<?xml version="1.0" encoding="utf-8"?>
<!-- Generator: Adobe Illustrator 25.2.1, SVG Export Plug-In . SVG Version: 6.00 Build 0)  -->
<svg version="1.1" id="Calque_1" xmlns="http://www.w3.org/2000/svg" xmlns:xlink="http://www.w3.org/1999/xlink" x="0px" y="0px"
	 viewBox="0 0 100 112" style="enable-background:new 0 0 100 112;" xml:space="preserve">
<style type="text/css">
	.st0{fill-rule:evenodd;clip-rule:evenodd;fill:#FFFAE8;}
</style>
<path class="st0" d="M23.23,71.46c-0.15,0.03-0.35,0-0.35,0.19c0.67,0.2,2.01,0.19,2.63,0.07c-0.26-0.46-1.09,0.04-1.36-0.33
	c0.21-0.4,0.19-1.2,0.48-1.65c0.15,0.62,0.13,1.1,0.35,1.62c0.05,0,0.06,0.04,0.1,0.05c0.23-0.53-0.19-1.05-0.2-1.52
	c-0.04-1.03-0.47-1.83-0.51-3.04c-0.06,0-0.07-0.06-0.14-0.05C23.77,68.18,23.75,69.95,23.23,71.46z M24.19,70.31
	c-0.11,0.43-0.08,0.97-0.42,1.21c-0.36-0.25-0.06-0.8,0.03-1.22c0.11-0.49,0.13-1.07,0.24-1.56c0.02-0.11,0.11-0.15,0.15-0.24
	c-0.09-0.19,0.05-0.32,0.02-0.59C24.59,68.7,24.4,69.47,24.19,70.31z M37.13,85.49c-3.25,0.22-7.17-0.23-10.16,0.03
	c0.25,0.12,0.59,0.12,0.93,0.02c1.37,0.11,3.52,0.11,5.27,0.09c1.94-0.03,3.78,0.18,5.22-0.01C38.01,85.44,37.49,85.46,37.13,85.49z
	 M26.04,85.54c0.24,0.05,0.7,0.13,0.78-0.13C26.47,85.39,26.23,85.32,26.04,85.54z M26.69,85.02c1.05-0.09,2.04,0.19,3.03,0.03
	c0.34,0.16,1.01,0.02,1.46,0.04c0.72,0.03,1.56-0.05,2.25,0.01c0.35,0.03,0.82-0.01,1.22-0.02c0.79-0.01,1.62,0.01,2.39,0.06
	c0.57,0.04,1.1,0.19,1.32-0.16c-0.02-0.03-0.43-0.1-0.53-0.21c0.12-1.48-0.1-2.52,0.15-3.8c-0.53-0.01-1.2-0.08-1.56-0.14
	c-0.8,0.32-1.31-3.77-1.32-3.84c-0.1-0.97-1.73-7.9-1.79-8.15c-0.02-0.09-0.34-1.68-0.43-2.16c-0.1-0.56-1.53-7-1.7-7.95
	c-0.18-0.97-0.94-5.13-1.16-6.33c-0.14-0.79-0.55-3.52-0.59-3.68c-0.3-0.71-0.28-1.58-0.67-2.36c-0.08,0.3,0.11,0.6,0.12,0.88
	c0.01,0.16-0.11,0.28-0.11,0.44c0,0.09,0.12,0.31,0.13,0.49c0.08,0.78,0.26,1.35,0.39,1.87c0.27,1.08,0.66,3.29,0.64,3.43
	c1.01,6.4,2.76,13.07,3.8,19.34c0.56,2.07,1.18,4.7,1.52,7.36c0.15,0.05,0.24,0.41,0.18,0.49c-0.27-0.03-0.04-0.54-0.33-0.55
	c-0.14-0.93-0.7-1.71-0.61-2.7c-0.65-1.59-0.86-3.63-1.23-5.45c-0.58-2.84-1.24-5.91-1.78-8.54c-0.12-0.59-0.27-1.18-0.39-1.77
	c-0.26-1.21-2.64-13.35-2.97-15.46c-1.57,0.08-3.15-0.12-4.88-0.03c-0.04,0.22,0.24,0.16,0.19,0.4c-0.99,5.33-3.43,18.22-3.82,19.38
	c-0.49,3.69-1.61,7-2.23,10.78c-0.04,0.13-0.17,0.16-0.2,0.29c-0.17,1.87-0.78,3.67-2.6,4.23c-0.11-0.09-0.26-0.13-0.49-0.11
	c-0.26,1.13,0.02,2.64-0.19,3.56c0.44,0.19,0.88,0.13,1.36,0.13c2.69,0.01,5.7-0.03,8.64,0.12c-0.02,0.2,0.07,0.23-0.01,0.39
	c-2.99,0-5.92-0.11-8.59-0.07c-0.23,0-0.48-0.18-0.64,0.08c1.78,0.11,3.02,0.1,4.39,0.11c1.51,0.01,3.1,0.15,5.12,0.08
	c0.14,0,0.34,0.01,0.44-0.14c-0.04-0.12-0.34,0.01-0.39-0.11c-0.45-0.96,0.1-2.86-0.19-3.96c-0.31,0.97,0.02,2.59-0.33,3.26
	c-0.17,0.03-0.19-0.08-0.34-0.06c-0.08-1.28,0.04-2.62-0.01-3.42c0.04-0.14,0.34,0,0.35-0.19c-0.38-0.29-1.05,0.04-1.41-0.23
	c0.3-1.26,0.43-2.65,0.83-3.98c0.85,0,1.85,0.01,2.78,0.07c0.2,1.4,0.87,2.92,0.77,4.07c-0.43,0.02-1.15,0.17-1.41-0.08
	c-0.17,1.45,0.05,2.85-0.26,4.29c0.29,0.27,0.78-0.15,1.02,0.17C26.19,85.05,26.47,85.04,26.69,85.02z M22.9,76.57
	c-0.26,1.07-0.4,2.26-0.72,3.25c0,0.32,0,0.94-0.41,0.97c-0.12-0.6,0.15-1.23,0.24-1.8c0.14-0.86,0.21-1.65,0.36-2.58
	c0.15-0.11,0.19-0.34,0.31-0.48c1.13-0.02,1.95-0.01,3.17,0.08c0.04,0.17,0.06,0.36,0.08,0.54C24.93,76.67,23.9,76.45,22.9,76.57z
	 M25.52,84.75c-0.21-1.19,0-2.25-0.05-3.66c0.61-0.07,1.24,0.19,1.71-0.01c-0.3-1.76-0.88-3.51-1.04-5.25
	c-1.07-0.19-2.98-0.23-3.9-0.1c-0.23,1.77-0.49,3.67-1.01,5.25c0.66,0.13,1.25,0.01,1.9,0.15c0,1.02,0.04,2.23-0.09,3.42
	c-3.07,0.06-5.69-0.08-8.79-0.08c-0.03-1-0.09-2,0.12-2.63c0.68-0.16,1.1-0.48,1.58-0.89c0.49-0.4,0.68-1.15,1.07-1.68
	c0.03-0.7,0.38-1.34,0.54-2.04c0.23-1.01,0.25-2.07,0.57-3.06c0.06-0.19,0.2-0.35,0.26-0.53c0.22-0.75,0.24-1.52,0.4-2.33
	c0.52-2.67,1.15-5.39,1.67-8.11c0.74-3.79,1.43-7.47,2.14-10.98c0.36-1.79,0.74-3.88,1.13-5.78c1.12-0.17,2.49,0.01,4-0.04
	c0.65,2.21,1.23,5.32,1.56,7.76c0.33,0.81,0.49,2.04,0.7,3.14c1.14,5.83,2.52,12.01,3.6,17.82c0.51,1.93,0.84,3.96,1.51,5.65
	c0.01,0.2-0.23,0.13-0.25,0.29c0.86-0.15,1.1,0.81,1.09,1.3c-2.08,0.25-2.04-1.06-2.47-2.55c-0.72-2.47-1.09-5.01-1.76-7.61
	c-0.43-1.68-0.68-3.4-0.99-5.05c-1.04-5.44-2.28-10.76-3.3-15.86c-0.02-0.16,0.04-0.23,0.06-0.34c-0.41-1.02-0.46-2.17-0.8-3.24
	c-0.58-0.32-1.23-0.2-2-0.15c-0.71,2.08-0.74,4.7-1.55,6.94c0,0.88-0.17,1.63-0.31,2.43c-0.71,4.3-1.66,8.77-2.63,13.17
	c-0.29,1.32-0.57,2.66-0.83,3.93c-0.22,1.08-0.43,2.24-0.77,3.35c-0.25,1.04-0.64,2.55-1.16,3.49c-0.21,0.37-0.37,0.81-0.61,0.96
	c-0.56,0.35-1.07-0.02-1.71,0.2c-0.09,0.48,0.04,1.05,0.06,1.61c0.33,0.16,0.57,0.09,0.97,0.07c0.95-0.04,2.03,0.15,2.88,0.03
	c1.08-0.15,2.23,0.32,3.37-0.06c-0.16-0.52-0.15-0.89-0.11-1.42c-0.45-0.38-1.18-0.14-1.85-0.39c-0.15-0.4-0.1-0.75-0.31-1.13
	c0.44-1.91,0.86-3.84,1.22-5.83c1.44-0.19,3.61-0.03,5.52-0.01c0.42,1.61,0.68,3.4,1.14,5.01c0.24,0.85,0.51,1.59,0.04,2.2
	c-0.47,0.06-1.06-0.05-1.37,0.06c-0.17,0.42-0.2,1.21-0.05,1.81c3.68,0.19,6.43,0.05,9.86,0.2c0.18-0.4-0.13-1.06,0.27-1.17
	c-0.27-0.57-0.59-1.26-0.69-1.73c0.41-0.17,0.94-0.05,1.52-0.11c0.08,0.95-0.04,1.7-0.06,2.49c-0.01,0.35,0.1,0.86-0.08,1.17
	c-3.09,0.23-6.03-0.18-8.64,0.07c-0.2-0.19-0.5,0-0.73-0.17c-0.15,0-0.21,0.08-0.25,0.19C27.11,84.69,26.33,84.79,25.52,84.75z
	 M29.14,73.27c-0.02,0.08,0.04,0.09,0.1,0.1c-0.11,0.2,0.07,0.55-0.12,0.73c-0.28-0.03-0.29-0.02-0.58-0.01
	c0.03-0.17-0.17-0.12-0.14-0.3c0.04,0.01,0.05,0.05,0.1,0.05C28.08,73.29,28.59,73.23,29.14,73.27z M27.86,71.62
	c0.01-0.22,0.05-0.19,0.01-0.39c0.22-0.07,0.55,0.05,0.78,0.12c0,0.24,0.13,0.35,0.18,0.54c-0.21,0.13-0.47,0.2-0.79,0.22
	c0.02-0.1-0.01-0.15-0.09-0.15c-0.01-0.18,0.02-0.32,0.06-0.44C27.96,71.56,27.96,71.64,27.86,71.62z M25.54,51.84
	c0.06,0,0.13,0,0.19,0c0.09,0.12,0.18,0.25,0.13,0.49c-0.12-0.02-0.11,0.09-0.24,0.04C25.44,52.16,25.7,52.04,25.54,51.84z
	 M25.91,52.73c0.02,0.19,0.17,0.28,0.09,0.44c-0.16,0.14-0.39,0.07-0.63-0.02c-0.04-0.13-0.08-0.42,0.01-0.54
	C25.59,52.62,25.66,52.76,25.91,52.73z M27.6,60.97c0.6,1.27,0.42,2.63,0.93,3.83c-0.1,0.33,0.03,0.48-0.02,0.73
	c-0.32-0.09-0.65-0.06-0.87-0.32c0.05-0.21-0.12-0.35,0.01-0.49c-0.64-2.1-0.85-4.11-1.36-6.09c0.27-0.13,0.51-0.09,0.83-0.03
	c0.36,0.63,0.09,1.17,0.5,1.62C27.44,60.48,27.71,60.82,27.6,60.97z M30.29,74.03c-0.1,0.08-0.32,0.03-0.49,0.04
	c-0.22-0.22-0.16-0.62-0.37-0.74c0.14-0.06,0.29,0.13,0.44-0.09c0.14,0.03,0.2,0.12,0.34,0.15c0,0.12-0.09,0.14-0.06,0.29
	C30.35,73.48,30.25,73.82,30.29,74.03z M30.57,78.29c0.02-0.19-0.08-0.27-0.04-0.49c0.28-0.13,0.32-0.08,0.59-0.03
	c0.09,0.06-0.03,0.32,0.19,0.25c-0.02,0.28-0.23,0.35-0.45,0.43C31.01,78.28,30.65,78.45,30.57,78.29z M30.28,76.33
	c-0.2-0.1-0.14-0.44-0.28-0.59c0.14-0.26,0.43-0.1,0.69-0.18c0.03,0.19,0.11,0.34,0.08,0.59C30.62,76.22,30.53,76.35,30.28,76.33z
	 M29.85,72.02c-0.17,0.02-0.32,0.06-0.54,0.03c0.1-0.36-0.17-0.37-0.18-0.64c0.38-0.11,0.59-0.05,0.83,0.12
	C29.96,71.73,29.8,71.76,29.85,72.02z M29.06,70.68c0.05-0.19-0.14-0.15-0.09-0.34c0.05,0,0.04-0.06,0.05-0.1
	c0.33-0.18,0.48,0.04,0.68,0.21C29.57,70.61,29.4,70.74,29.06,70.68z M29.18,69.61c-0.23-0.09-0.39-0.14-0.53-0.21
	c-0.07-0.18,0.2-0.25,0.11-0.29C29.03,68.9,29.68,69.33,29.18,69.61z M29.16,68.48c-0.09,0-0.29,0.1-0.54,0.08
	c-0.09-0.11-0.07-0.31-0.28-0.3c0.04-0.43,0.61-0.25,0.88-0.12C29.2,68.22,29.03,68.4,29.16,68.48z M28.85,67.5
	c-0.15-0.07-0.28-0.05-0.3,0.14c-0.22-0.18-0.52-0.3-0.47-0.74c0.11-0.01,0.23-0.03,0.2-0.19c0.17,0.08,0.26,0,0.49,0.06
	C28.89,66.99,29.04,67.23,28.85,67.5z M28.05,66.36c-0.08-0.19-0.28-0.48-0.18-0.69c0.34,0.04,0.47,0,0.73,0.07
	c0.07,0.18,0.07,0.44,0.13,0.64C28.41,66.35,28.31,66.42,28.05,66.36z M26.35,58.4c-0.45-0.49-0.15-1.16,0.56-0.77
	c0.12,0.14,0.16,0.36,0.13,0.64C26.81,58.42,26.71,58.4,26.35,58.4z M26.82,57.29c-0.4-0.03-0.62,0.04-0.88-0.07
	c0.02-0.21-0.12-0.27-0.09-0.49c0.37-0.19,0.74,0.02,1.02,0.17C26.84,57.02,26.8,57.12,26.82,57.29z M25,57.68
	c0.52-0.34,0.89,0.08,0.86,0.66c-0.31,0-0.62,0.1-0.78-0.12C25.2,58.02,25.08,57.84,25,57.68z M25.64,57.31
	c-0.26,0-0.49-0.01-0.68-0.07c-0.06-0.19-0.23-0.39-0.13-0.59c0.25-0.04,0.4,0.03,0.73,0.02C25.54,56.93,25.7,57.02,25.64,57.31z
	 M26.42,55.57c-0.33-0.01-0.51,0.05-0.78-0.07C25.46,55.06,26.49,55.16,26.42,55.57z M26.59,56.36c-0.25,0.14-0.57-0.01-0.83-0.12
	c-0.12-0.6,0.88-0.31,0.88-0.03C26.59,56.22,26.6,56.3,26.59,56.36z M25.51,54.77c0.03-0.04,0.08-0.13,0-0.15
	c0.12-0.21,0.44-0.2,0.74-0.23c0.09,0.12,0.16,0.26,0.18,0.44C26.15,54.95,25.76,54.92,25.51,54.77z M26.12,54.1
	c-0.25-0.02-0.55,0.02-0.73-0.07c0.04-0.2-0.04-0.28-0.04-0.44c0.3-0.19,0.7,0.05,0.92,0.22C26.22,53.91,26.17,54,26.12,54.1z
	 M25.3,55.35c-0.02,0.25-0.33,0.19-0.59,0.18C24.75,55.32,25.14,55.27,25.3,55.35z M25.43,55.99c-0.05,0.18,0.08,0.26-0.01,0.34
	c-0.32,0.1-0.83,0-0.72-0.46C24.94,55.75,25.28,55.88,25.43,55.99z M25.3,67.02c0.37,1.91,0.84,3.85,1.17,5.79
	c-1.37,0.11-3.32,0.03-4.69-0.07c-0.06-0.22,0.11-0.4,0.16-0.63c0.72-3.25,1.32-6.96,2.03-10.4c0-0.05,0-0.1,0-0.15
	c0.03,0,0.07,0,0.1,0c0.3,0.37,0.26,0.88,0.36,1.33C24.69,64.16,25.02,65.58,25.3,67.02z M25.66,60.48
	c-0.14-0.21-0.29-0.63-0.17-0.93c-0.14-0.26-0.43-0.58-0.27-0.98c0.32-0.05,0.5-0.06,0.73,0.07c0.47,2.23,0.95,4.45,1.34,6.63
	c-0.18,0.13-0.29,0.05-0.54,0.13C26.22,64.04,25.93,62.01,25.66,60.48z M27.34,65.51c0.03,0.31,0.25,0.43,0.22,0.79
	c-0.15,0.12-0.43,0.26-0.69,0.13c-0.11-0.26-0.12-0.62-0.12-0.98C27,65.41,27.11,65.52,27.34,65.51z M27.26,66.77
	c0.16,0.07,0.4,0.06,0.48,0.21c0,0.23-0.06,0.41-0.16,0.53c-0.1,0-0.2-0.01-0.29-0.01c-0.16-0.04,0.01-0.39-0.19-0.4
	C27.1,66.95,27.26,66.95,27.26,66.77z M27.95,68.06c-0.03,0.15,0.08,0.17,0.04,0.34c-0.22,0.04-0.24,0.25-0.49,0.13
	C27.2,68.17,27.48,67.72,27.95,68.06z M27.68,69.08c0.11,0.15,0.23,0.06,0.44,0.06c0.02,0.09,0.14,0.09,0.09,0.25
	c-0.23,0.09-0.34,0.03-0.64,0.08C27.67,69.32,27.63,69.17,27.68,69.08z M27.85,70.11c0.3,0.07,0.47-0.14,0.58,0.21
	c-0.07,0.21-0.39,0.38-0.64,0.23C27.74,70.48,27.8,70.22,27.85,70.11z M28.99,75.46c0.21,0.06,0.36,0.13,0.58,0.06
	C30.14,76.42,28.55,76.51,28.99,75.46z M29.56,77.67c0.5-0.06,0.58,0.29,0.57,0.6c-0.11,0.19-0.29-0.16-0.39,0.14
	c-0.27-0.06-0.32-0.33-0.38-0.6C29.47,77.93,29.49,77.73,29.56,77.67z M30.44,79.8c-0.09,0.15,0.13,0.33,0.13,0.54
	c-0.16-0.01-0.14,0.19-0.2,0.29c-0.22-0.08-0.34-0.25-0.53-0.36C29.7,79.88,29.97,79.63,30.44,79.8z M30.39,81.7
	c0.27-0.11,0.73-0.04,0.63,0.36c-0.25,0.22-0.41,0.12-0.64,0.08C30.46,81.98,30.41,81.87,30.39,81.7z M31.06,80.35
	c-0.14-0.06,0.08-0.05,0.1,0c0-0.03,0-0.06,0-0.1c-0.01-0.06-0.1-0.05-0.1,0c-0.11-0.54,0.54-0.27,0.79-0.22
	c-0.07,0.28-0.18,0.26-0.06,0.53c-0.28-0.04,0.02-0.1-0.09-0.2c-0.13-0.02-0.16,0.06-0.15,0.19C31.26,80.55,31.27,80.29,31.06,80.35
	z M32.23,82.09c-0.09,0.06-0.2,0.09-0.25,0.19c-0.26-0.07-0.45-0.21-0.58-0.41C31.77,81.64,32.05,81.81,32.23,82.09z"/>
<path class="st0" d="M38.62,33.14c-0.63,0.19-1.5-0.18-1.94,0.22c0.67,0.21,1.68-0.04,2.33,0.17c0.35,0.63,0.46,1.37,0.44,2.39
	c-0.08,4.23,0.06,9.38,0.06,14.04c0,2.81,0.08,4.44,0.11,6.94c0.02,1.61-0.11,3.42-0.11,5.33c0,1.5,0.36,4.06-0.39,4.66
	c-0.48,0.38-1.73,0.01-2.44,0.11c0.2,1.49,0.15,3.45,0,4.83c4.82-0.05,9.66-0.21,14.43-0.17c0.66,0.01,0.91-0.1,1.5-0.33
	c1.03-0.41,1.41-0.73,2.27-1.33c1.02-0.71,1.66-1.4,2.39-2.28c0.55-0.66,1.02-1.31,1.33-2.16c0.21-0.58,0.36-1.39,0.55-2.11
	c0.14-0.52,0.28-0.66,0.28-1.05c0-0.13,0.04-0.26,0.06-0.39c0.11-0.78,0.32-1.64,0.33-2.44c0.02-1.04-0.21-2.24-0.5-3.33
	c-0.37-1.38-0.71-2.67-1.22-3.66c-0.52-1.02-1.02-1.79-1.72-2.44c-0.57-0.54-1.1-0.91-1.72-1.28c0.59-0.53,1.08-1.05,1.61-1.61
	c0.26-0.28,0.63-0.47,0.83-0.72c0.12-0.15,0.14-0.4,0.28-0.61c0.29-0.44,0.72-0.68,0.67-1.33c0.29-0.33,0.36-0.62,0.44-1
	c0.13-0.6,0.54-1.56,0.67-2.11c0.05-0.22-0.02-0.48,0-0.72c0.06-0.67,0.19-1.41,0.17-2.11c-0.06-2.06-0.63-4.38-1.22-5.83
	c-0.13-0.33-0.29-0.74-0.44-1c-0.48-0.81-1.31-1.84-2.16-2.44c-0.43-0.3-0.99-0.51-1.5-0.78c-0.52-0.27-1.07-0.63-1.55-0.78
	c-0.68-0.21-1.57-0.2-2.33-0.39c-0.17-0.04-0.28-0.15-0.44-0.17c-0.47-0.05-1.45,0-1.83,0.06c-0.84,0.13-1.71-0.02-2.61,0
	c-0.65,0.02-1.31,0.17-2,0.17c-2.65-0.03-5.8,0.05-8.05,0.17c0.46,1.26-0.03,3.76,0.44,5.27c0.22,0.03,0.07-0.31,0.33-0.22
	c0.37,0.05,0.85,0.01,1.44,0C37.93,32.68,38.61,32.53,38.62,33.14z M35.73,32.31c0.06-1.65-0.14-2.96-0.06-4.38
	c3.55-0.22,6.6-0.2,9.65-0.33c0.61-0.03,1.13,0.18,1.83,0c0.66-0.17,2.02-0.05,2.83,0c0.59,0.03,1.77,0.35,2.39,0.55
	c2.65,0.89,4.55,2.54,5.6,5.1c0.63,1.54,1.08,3.94,1.05,5.99c0,0.28-0.13,0.54-0.17,0.83c-0.03,0.29,0.04,0.6,0,0.89
	c-0.1,0.66-0.33,1.49-0.55,2.16c-0.66,2.02-1.44,3.25-2.83,4.55c-0.26,0.25-1.2,0.91-1.22,1.17c-0.03,0.35,0.99,0.63,1.28,0.83
	c0.29,0.2,0.6,0.58,0.89,0.89c0.78,0.82,1.24,1.68,1.78,2.88c0.22,0.49,0.34,1.16,0.55,1.72c0.38,0.99,0.59,2.78,0.67,4
	c0.05,0.91,0.02,1.41-0.17,2.39c-0.19,0.97-0.34,1.99-0.67,3c-0.4,1.24-0.79,1.79-1.55,2.83c-0.79,1.09-1.12,1.58-2.27,2.33
	c-0.22,0.14-0.44,0.29-0.67,0.44c-0.51,0.35-0.95,0.57-1.61,0.89c-1.65,0.81-5.29,0.39-8.05,0.39c-2.52,0-4.85,0.08-7.27,0.06
	c-0.12-1.26-0.02-2.75-0.06-4.11c0.71-0.1,1.56-0.09,2-0.06c0.6-0.52,0.74-1.43,0.78-2.27c0.06-1.41-0.09-3.03-0.06-4.77
	c0.07-3.79,0-8.13-0.11-11.98c-0.05-1.68,0-3.44,0.11-4.77c-0.32-1.07-0.07-2.18-0.05-3.22c0-0.25-0.16-0.53-0.17-0.78
	c-0.01-0.4,0.06-0.79,0.05-1.22c-0.02-1.14,0.12-2.67,0-4.22c-0.16-0.24-0.22-0.54-0.33-0.83c-0.1-0.26-0.25-0.52-0.22-0.78
	C38.36,32.13,36.89,32.38,35.73,32.31z M58.04,50.67c-0.52-0.68-1.38-1.15-1.94-1.72c0.98-1.6,2.57-3.29,3.27-5.16
	c0.92-2.43,0.87-6.35,0.11-8.82c-0.24-0.79-0.49-1.7-0.78-2.05c-0.32-0.4-0.76-1.73-1.11-1.55c0.16,0.18,0.36,0.41,0.5,0.67
	c0.64,1.16,1.48,3.58,1.66,4.99c0.07,0.56-0.06,1.23,0,1.83c0.07,0.7-0.02,1.31,0,1.72c0.06,1.44-0.6,3.07-1.05,3.94
	c-0.53,1.01-1.17,1.88-1.72,2.72c-0.37,0.68-1,1.11-1.28,1.89c0.91,0.36,1.42,1.13,2.11,1.72c0.11,0.44,0.49,0.71,0.72,1.11
	c1.25,2.17,1.84,5.37,1.83,8.38c0,0.57-0.13,1.11-0.17,1.66c-0.04,0.62-0.12,1.22-0.22,1.83c-0.25,0.55-0.57,1.02-0.72,1.66
	c-0.49,0.98-1.09,1.83-1.61,2.77c-0.81,0.68-1.41,1.53-2.27,2.11c-1.23,0.83-2.85,1.67-4.6,1.78c-2.25,0.14-4.72-0.05-7.27,0.06
	c-2.05,0.09-4.27-0.05-6.21-0.06c-0.17,0-0.6-0.17-0.67,0.17c0.09,0.36,0.55,0.22,0.78,0.22c4.27,0.13,8.86-0.05,12.54-0.22
	c0.6-0.03,1.26,0.08,1.78,0c0.52-0.09,1.11-0.39,1.67-0.61c2.02-0.82,3.55-2.13,4.6-3.66c0.43-0.63,0.66-1,1-1.66
	c0.47-0.9,0.88-1.73,1.28-2.66C61.08,59.6,60.34,53.66,58.04,50.67z M47.83,32.8c0.04,5.19,0.22,9.28,0.11,13.76
	c1.36-0.21,1.51-1.63,1.89-2.83c0.09-0.75,0.25-1.64,0.22-2.61c-0.08-2.68-0.1-6.18-1.11-8.38c-0.08-0.26,0.3-0.19,0.11-0.39
	c-0.35-0.17-0.98-0.03-1.33-0.06c-0.01,0.06-0.06,0.09-0.11,0.11C47.57,32.65,47.91,32.52,47.83,32.8z M49.22,35.14
	c0.51,1.58,0.5,4.34,0.55,6.44c0.03,1.32-0.33,2.56-0.61,3.55C49.07,41.91,49.2,38.43,49.22,35.14z M48.16,32.8
	c0.03-0.08,0.09-0.14,0.17-0.17c0.3-0.05,0.61,1.07,0.67,1.5c0.21,1.57-0.15,3.43-0.17,5.22c-0.02,1.49,0.05,2.78,0.06,4.11
	c0,0.4-0.12,0.87-0.11,1.28c0.01,0.75,0.09,1.21-0.5,1.5c-0.04-3.61-0.1-7.74-0.11-11.37c0-0.38,0.14-0.81,0.11-1.11
	C48.25,33.47,48.06,33.17,48.16,32.8z M49.88,56.83c0.07-0.1,0.19-0.15,0.17-0.33c-0.12-1.34-0.3-2.44-0.55-3.77
	c-0.57-0.38-0.59-1.3-1.5-1.33c-0.19,0.21,0.06,0.4,0.06,0.61c0,0.06-0.16,0.16-0.17,0.22C47.88,52.32,48,52.49,48,52.62
	c0.01,1.34,0.07,2.73,0,4.05c-0.01,0.23-0.12,0.45-0.11,0.67c0.01,0.27,0.16,0.5,0.17,0.78c0,0.14-0.1,0.3-0.11,0.44
	c-0.02,0.19,0.11,0.36,0.11,0.55c0,0.15-0.1,0.28-0.11,0.44c-0.03,0.8,0.11,1.63,0.11,2.44c0,0.09-0.1,0.2-0.11,0.28
	c-0.03,0.42,0.17,0.84,0.17,1.22c0,0.15-0.16,0.29-0.17,0.44c-0.01,0.19,0.1,0.38,0.11,0.56c0.06,0.95-0.04,1.92,0.06,2.77
	c0.29-0.01,0.63,0.03,0.83-0.06c0,0.17,0.1,0.23,0.22,0.28c1.1-1.46,1.1-3.79,1-5.66c0.31-0.96-0.24-2.13,0.11-3.05
	C49.87,58.41,50.35,57.3,49.88,56.83z M49.88,64.76c-0.1,0.76-0.29,1.66-0.78,2.16c-0.24,0.05-0.24-0.13-0.22-0.33
	c-0.25-0.05-0.13,0.28-0.33,0.28c-0.37-0.63-0.16-2.01-0.28-3.11c-0.25-2.39,0.22-5.03-0.17-7.43c0.24-1.21,0.01-3.43,0.17-4.49
	c0.36,0.01,0.41,0.33,0.67,0.44c0.18,0.6,0.55,0.94,0.67,1.5c0.13,0.64-0.03,1.35,0.11,2.16c0.02,0.13-0.01,0.35,0.22,0.39
	c-0.01,0.07-0.1,0.05-0.17,0.06c0.16,1.26,0.14,2.47,0.17,3.99C49.95,61.44,50.09,63.27,49.88,64.76z M48.66,52.39
	c-0.1,0.25-0.01,0.4,0,0.67C48.91,53.01,48.81,52.51,48.66,52.39z M48.77,53.78c-0.03-0.24,0.04-0.37,0.06-0.55
	c-0.07,0-0.08-0.07-0.17-0.06C48.7,53.37,48.57,53.74,48.77,53.78z M48.94,58.16c-0.22-1.27,0.03-2.56-0.06-3.61
	c-0.01-0.13-0.07-0.4-0.22-0.44c0.05,1.09-0.02,2.1,0,3C48.67,57.44,48.64,57.96,48.94,58.16z M48.88,58.22
	c-0.07,0-0.08-0.07-0.17-0.06c0.15,1.57-0.15,3.58,0.11,5.49c0.24-1.11-0.09-2.7,0.22-3.88C48.69,59.45,49.08,58.85,48.88,58.22z
	 M48.83,66.04c0.06-0.68,0.25-1.74-0.06-2.27C48.84,64.61,48.5,65.11,48.83,66.04z M57.48,30.92c-0.16-0.29-0.36-0.53-0.67-0.67
	C56.99,30.53,57.19,30.76,57.48,30.92z M40.56,35.36c0.32,1.82,0.11,3.86,0.11,6.05c0,4.23,0.11,9.15,0.11,13.93
	c0,2.1,0,4.18,0,6.16c0,2.45,0.13,4.86-0.22,6.66c-0.53,0.26-1.46,0.65-2.33,0.44c-0.07,0.56-0.14,1.58,0.05,2.05
	c2.87-0.11,5.67,0.06,8.32-0.06c0.76-0.03,1.54-0.12,2.28-0.17c0.74-0.05,1.48,0.12,2.05,0c0.2-0.04,0.37-0.2,0.56-0.28
	c0.67-0.26,1.4-0.5,2.11-0.72c0.67-0.57,1.28-1.31,1.83-1.72c0.4-1.05,1.18-1.67,1.61-2.55c0.03-0.43,0.16-0.76,0.44-0.94
	c-0.08-0.37,0-0.58,0.17-0.67c-0.04-0.9,0.31-2.35,0.44-3.33c-0.22-0.68,0.06-1.79-0.06-2.72c-0.26-2.2-1.44-4.22-2.11-5.77
	c-0.91-0.85-1.87-1.65-2.94-2.33c-0.26,0.06-0.56-0.12-0.83-0.22c-0.28-0.11-0.68-0.16-0.78-0.44c0.65-0.38,1.66-0.47,2.11-0.83
	c0.58-0.46,1.24-1.21,2-1.72c0.14-0.63,0.62-0.93,0.89-1.44c0.71-1.35,1.11-3.17,1.22-4.77c0.04-0.58,0.15-1.65,0.11-1.78
	c-0.2,0.02-0.08-0.1,0.05-0.06c-0.36-1.02-0.43-2.4-0.78-3.5c-0.09-0.27-0.13-0.58-0.22-0.83c-0.2-0.55-0.66-0.98-0.72-1.5
	c-0.51-0.46-0.84-1.08-1.28-1.61c-1.44-0.84-2.86-1.86-4.88-1.89c-3.98-0.04-8.69,0.16-12.93,0.22c-0.24,0.65-0.26,1.52,0.06,2.11
	c0.98,0.28,1.95-0.05,2.83,0.44C40.48,32.68,40.87,33.75,40.56,35.36z M53.21,65.37c-0.04-0.26,0.19-0.26,0.22-0.44
	c0.6,0.09,0.88-0.09,1.39,0.06c-0.01,0.14-0.11,0.17,0.06,0.22C54.5,65.47,53.84,65.48,53.21,65.37z M55.21,63.6
	c-0.58-0.27-1.47,0.34-1.94-0.11c-0.03,0.18,0.2,0.08,0.06,0.22c-0.15-0.03-0.22-0.15-0.22-0.33c0.21,0.02,0.23-0.14,0.28-0.28
	c0.68,0.07,1.17,0,1.94,0.06C55.34,63.36,55.26,63.46,55.21,63.6z M53.32,61.88c-0.06-0.17-0.04-0.26-0.06-0.55
	c0.15,0.04,0.11-0.11,0.17-0.17c0.5,0.27,1.51,0.08,2.22,0.17c-0.06,0.21,0.14,0.16,0.11,0.33C55.06,61.97,54.19,61.79,53.32,61.88z
	 M53.71,60.16c-0.12,0.02-0.11-0.08-0.11-0.17c-0.11,0.11-0.22,0.13-0.39,0.06c-0.13-0.42,0.29-0.31,0.28-0.61
	c0.7,0.11,1.42-0.06,2.22,0c0.05,0.12,0.17,0.16,0.17,0.33C55.29,60.36,54.51,59.77,53.71,60.16z M53.49,58.33
	c-0.12-0.1-0.28-0.16-0.22-0.44c0.81-0.06,2.06-0.38,2.55,0.11C55.42,58.59,54.14,58.05,53.49,58.33z M55.54,56.77
	c-0.9,0.11-1.68,0.26-2.33,0c-0.11-0.54,0.36-0.38,0.5-0.56C54.42,56.63,55.12,55.9,55.54,56.77z M55.04,55.28
	c-0.21,0.3-1.26-0.03-1.61,0.28c-0.11-0.05-0.22-0.11-0.33-0.17c-0.02-0.22,0-0.41,0.11-0.5C53.81,55.18,54.69,54.74,55.04,55.28z
	 M54.6,53.83c0.03,0.24,0.02,0.18,0.06,0.39c-0.53,0.07-0.74-0.17-1.22,0.06c-0.13-0.15-0.42-0.14-0.39-0.44
	C53.54,53.87,54.16,53.65,54.6,53.83z M54.1,52.61c0.01,0.61-0.84,0.53-1.16,0.5c-0.02-0.22-0.21-0.27-0.17-0.56
	C53.31,52.53,53.75,52.45,54.1,52.61z M52.66,51.56c0.18,0.12,0.56,0.03,0.5,0.39c-0.19,0.1-0.27-0.01-0.5,0
	C52.64,51.72,52.47,51.72,52.66,51.56z M55.32,37.63c0.09,3.08-0.11,6.85-2.61,8.16c0.1-0.62,0.15-1.12,0.06-1.61
	c-0.01-0.14,0.12-0.14,0.17-0.22c0.22-2-0.01-4.66,0.28-7.16c0.56-0.11,1.24,0.11,1.94,0.06c0.04,0.2,0.13,0.35,0.17,0.55
	c-0.62,0.09-1.37-0.24-1.83,0.06C53.99,37.69,54.7,37.61,55.32,37.63z M55.26,36.36c-0.86,0.13-1.31,0.13-2.05,0.17
	c-0.21-0.03,0.05-0.26-0.22-0.28c0.05-0.1,0.13-0.16,0.17-0.28C53.95,36.07,54.89,35.77,55.26,36.36z M54.99,35.63
	c-0.32,0.06-0.57-0.15-0.72,0.06c-0.44-0.29-1.06,0.18-1.33-0.28c0.59-0.27,1.09,0.18,1.61-0.11
	C54.65,35.45,55.05,35.31,54.99,35.63z M54.6,34.8c-0.66,0.08-1.15,0.32-1.83,0c0.12-0.74,1.1-0.21,1.72-0.33
	C54.46,34.64,54.66,34.59,54.6,34.8z M52.77,33.97c0.21-0.55,1.34-0.27,1.72-0.06C54.02,34.32,53.43,33.93,52.77,33.97z
	 M52.71,33.14c0.05,0,0.04-0.07,0.06-0.11c0.55-0.06,0.89,0.01,1.22,0.11C53.71,33.29,52.98,33.55,52.71,33.14z M52.77,32.69
	c-0.11-0.02-0.04-0.22-0.22-0.17c-0.04-0.17,0.06-0.2,0.06-0.33c0.41,0.02,0.76,0.09,0.94,0.33C53.44,32.86,52.98,32.53,52.77,32.69
	z M52.71,31.86c-0.11,0.12-0.28,0-0.28-0.17C52.59,31.68,52.74,31.69,52.71,31.86z M42.56,36.41c0.67-0.14,1.26-0.22,2.05-0.05
	c-0.03,0.84-1.6,0.48-2.11,0.39C42.46,36.57,42.6,36.58,42.56,36.41z M44.72,54.67c0.11,0.17,0.13,0.43,0.11,0.72
	c-0.16-0.06-0.46-0.08-0.61,0.11c-0.29-0.27-0.91,0.02-1.44-0.17C42.39,54.21,43.99,54.82,44.72,54.67z M42.78,54
	c0-0.17,0-0.33,0-0.5c0.68-0.16,1.51-0.07,2.05-0.06c-0.01,0.17-0.06,0.31-0.11,0.44C44.1,54.1,43.4,53.96,42.78,54z M43,68.54
	c-0.07-0.94,1.27-0.17,1.83-0.44c-0.02,0.21-0.01,0.38,0.17,0.39C44.71,68.93,43.55,68.55,43,68.54z M44.83,67.09
	c-0.66-0.04-1.12-0.1-2-0.17c0-0.07,0-0.15,0-0.22c0.7-0.2,1.54-0.19,2.16,0.06C44.81,66.84,44.88,66.96,44.83,67.09z M44.89,61.66
	c-0.73,0.15-1.11,0.16-2,0.22c-0.31-1.04,1.29-0.44,1.94-0.5C44.79,61.54,44.91,61.52,44.89,61.66z M51.44,63.43
	c-0.05,1.35-0.17,2.71-0.72,3.88c-0.91,0.99-1.84,1.36-3.61,1.33c-0.03-2.16-0.38-5.65-0.17-8.54c-0.24-2.97-0.16-6.73-0.28-9.99
	c0.83,0,1.54-0.1,2.27,0c1.27,0.17,1.58,1.14,1.94,2.22c0.06,1.1,0.5,2.09,0.5,3.22c0,1.05-0.05,1.92-0.06,3.44
	C51.32,60.2,51.49,61.92,51.44,63.43z M46.55,32.08c-0.24-0.31-0.1-0.55,0.05-0.83c1.44-0.03,2.75-0.28,3.38,0.67
	c1.11,1.63,1.14,4.66,1.11,7.1c-0.03,2.35,0.42,5.15-0.33,7.05c-0.26,0.65-0.83,1.18-1.39,1.5c-0.75,0.19-1.74,0.38-2.72,0.33
	c-0.05-5.51-0.13-10.52-0.28-15.59C46.34,32.13,46.47,32.13,46.55,32.08z M42.89,65.21c-0.15-0.24,0.17-0.11,0.11-0.39
	c0.63,0.09,1.23-0.02,1.89,0.06c-0.07,0.23,0.09,0.24,0.11,0.39C44.57,65.36,43.42,65.47,42.89,65.21z M42.84,58.27
	c0.13-0.41,1.39-0.33,2-0.17C44.43,58.39,43.35,58.27,42.84,58.27z M44.94,63.43c-0.55,0.13-1.52,0.42-2.05,0.06
	c0.08-0.69,1.1-0.34,2-0.44C44.81,63.28,45.08,63.3,44.94,63.43z M44.72,60.1c-0.42-0.17-1.03,0.08-1.78,0
	c-0.06-0.15-0.07-0.34-0.06-0.55c0.9,0.05,1.56-0.22,2.05,0.17C44.93,59.9,44.77,59.95,44.72,60.1z M44.78,56.66
	c-0.56,0.38-1.14,0.15-1.89,0.28c-0.67-1.02,1.23-0.7,1.94-0.72C44.87,56.42,44.74,56.46,44.78,56.66z M42.78,52.83
	c0.01-0.16-0.03-0.36,0.06-0.44c0.44,0.12,1.83-0.29,2,0.28C44.26,53.09,43.38,52.79,42.78,52.83z M44.72,51.89
	c-0.56-0.1-1.04-0.01-1.89-0.06c-0.6-1.11,1.35-0.69,1.94-0.61C44.86,51.41,44.76,51.66,44.72,51.89z M44.78,50.62
	c-0.65,0-1.29,0-1.94,0c-0.03-0.38,0.1-0.6,0.06-1c0.73-0.07,1.24,0.25,1.83,0C44.83,49.92,44.8,50.27,44.78,50.62z M44.78,49.23
	c-0.71-0.03-1.57,0.03-2.05,0.06c0.02-3.46-0.27-7.92-0.06-12.15c0.68-0.04,1.21-0.15,1.94,0c-0.02,0.24-0.13,0.39-0.17,0.61
	c-0.31,0.13-0.96-0.07-1.16,0.17c0.26,0.1,0.89-0.01,1.22,0.17c0.18,1.87,0.22,3.75,0.22,5.44C44.72,45.03,44.7,47.14,44.78,49.23z
	 M42.61,36.02c-0.13-0.16-0.08-0.25-0.11-0.55c0.68,0,1.57-0.16,2.11,0.22C44.22,36.23,43.17,35.81,42.61,36.02z M42.61,34.41
	c0.44-0.4,1.3-0.34,1.83-0.17C44,34.66,43.05,34.47,42.61,34.41z M44.44,34.91c-0.43,0.32-1.36,0.17-1.72,0.17
	C43.1,34.74,43.94,34.73,44.44,34.91z M44.44,33.75c-0.8,0.14-1.3,0.05-1.89,0c0.19-0.75,1.29-0.19,1.89-0.39
	C44.49,33.5,44.47,33.57,44.44,33.75z M42.5,32.25c0.43-0.3,1.48-0.25,1.89,0C43.82,32.46,42.88,32.58,42.5,32.25z M42.56,32.97
	c0.44-0.18,1.4-0.53,1.89-0.05C43.8,32.97,43.11,33.21,42.56,32.97z M42.17,31.03c0.75,0.18,1.41-0.03,2.22,0.22
	c0.02,0.2-0.1,0.27-0.11,0.44c-0.99-0.05-1.83,0.32-2.27-0.33C42.03,31.22,42.17,31.19,42.17,31.03z"/>
<path class="st0" d="M74.87,54.13c0.07,0.34,0.34,0.61,0.59,0.81c0.68,0.55,1.55,0.56,2.54,0.16c2.14-0.87,3.08-4.34,2.49-7.3
	c-0.42-2.12-1.87-3.81-2.65-4.97c-0.58-0.36-1.22-0.65-1.73-1.08c0.29-0.21,0.67,0.12,0.92,0.27c1.34,0.8,2.72,2.63,3.35,4.27
	c1.02,2.64,0.67,6.53-1.13,8.32c-1.04,1.03-2.84,1.38-4.16,0.43c-0.35-0.25-1.28-1.28-1.51-1.68c-0.33-0.56-0.63-1.55-0.54-2.49
	c0.08-0.86,0.62-1.57,0.97-2.54c0.26-0.7,0.8-2.09,0.49-2.92c-0.2-0.54-1.46-1.03-2.27-0.92c-0.96,0.14-1.89,1.16-2.38,1.95
	c-0.35,0.57-1.07,1.99-1.19,2.86c-0.23,1.7-0.01,3.71,0,5.46c0.04,5.39-0.16,12.03,0,17.83c0.09,3.32-0.15,6.49,1.08,8.7
	c0.22,0.14,0.37,0.35,0.54,0.54c1.07,0.62,3.21,0.47,3.84-0.43c0.52-0.96,0.27-2.7-0.11-3.84c-0.5-1.5-1.46-2.47-0.97-4.38
	c0.19-0.76,0.63-1.24,1.19-1.84c0.52-0.54,1.19-1.24,2-1.41c1.64-0.33,3.1,1.03,3.67,2.05c1.09,1.94,1.28,4.96,0.38,7.3
	c-0.63,1.62-1.96,3.44-3.35,4.27c-0.28,0.17-0.61,0.43-0.92,0.32c0.08-0.41,0.66-0.31,0.81-0.65c0.46-0.01,0.5-0.44,0.92-0.49
	c0.79-1.18,2.22-2.86,2.65-4.97c0.57-2.84-0.3-6.38-2.43-7.3c-1.3-0.56-2.65-0.26-3.19,0.92c2.94,0.06,4.5,1.87,4.65,4.81
	c0.07,1.36-0.2,2.58-0.49,3.46c-0.36,1.1-1.08,2.29-1.94,3.19c-0.72,0.75-1.91,1.68-3.19,1.89c-2.65,0.44-4.63-0.55-6.16-1.68
	c-0.83-0.61-1.66-1.28-2.38-2c-1.52-1.52-2.71-3.37-3.3-5.46c-0.96-3.43-1.13-7.66-1.08-11.84c0.02-1.93,0.22-3.95,0.49-5.89
	c0.61-4.51,1.22-8.78,3.19-11.94c1.59-2.55,3.84-4.9,7.68-5.19c1.6-0.12,2.86,0.29,3.95,1.19c1.06,0.88,2.45,2.41,2.92,4
	c0.13,0.45,0.19,1.02,0.27,1.57c0.09,0.59,0.19,1.23,0.16,1.84C79.39,51.95,77.97,54.28,74.87,54.13z M71.68,42.67
	c-1.19,0.12-2.49,0.76-3.19,1.62c-1.7,2.11-1.3,5.79-1.41,9.57c-0.07,2.4,0,4.97-0.06,7.4c-0.06,2.54-0.16,5.03-0.05,7.4
	c0.17,3.71-0.16,7.69,0.7,10.43c0.39,0.65,0.7,1.39,1.41,1.73c-0.7-1.67-0.64-3.87-0.7-6.11c-0.05-1.78,0-3.63-0.05-5.3
	c-0.09-3.02-0.2-6.48-0.05-9.89c0.07-1.73,0.18-3.53,0.11-5.24c-0.07-1.7-0.26-3.53-0.05-5.03c0.1-0.73,0.53-1.55,0.92-2.27
	c0.71-1.32,1.47-2.43,2.86-2.86c0.45,0.12,0.89,0,1.3,0.11c0.47,0.12,0.78,0.56,1.03,0.49C74.42,43.18,73.28,42.51,71.68,42.67z
	 M76.17,44.89c-0.04,0.24,0.05,0.34,0.27,0.32c0.05-0.04,0.15-0.42-0.05-0.38C76.37,44.92,76.25,44.89,76.17,44.89z M76.49,46.73
	c0.09,0.05,0.09,0.2,0.22,0.22c0.02-0.23,0.2-0.3,0.22-0.54c-0.07,0-0.14,0-0.22,0C76.77,46.65,76.52,46.57,76.49,46.73z
	 M76.65,47.21c-0.09,0.22-0.37,0.4-0.27,0.65c-0.25-0.01-0.29,0.18-0.38,0.32c0.6-0.25,1.02-0.67,1.35-1.19
	C76.96,46.99,77.09,47.36,76.65,47.21z M77.3,47.7c-0.11,0.23-0.45,0.46-0.65,0.43c-0.34,0.59-1.28,0.9-1.3,1.57
	c0.79-0.47,1.4-1.12,2.16-1.62c-0.1-0.17,0.05-0.24-0.05-0.38C77.41,47.7,77.36,47.7,77.3,47.7z M75.09,50.46c0,0.05,0,0.11,0,0.16
	c0.96-0.38,1.53-1.14,2.43-1.57c0.01-0.16,0.14-0.34,0.05-0.43c-0.7,0.3-1.26,1-1.84,1.24C75.75,50.08,75.27,50.27,75.09,50.46z
	 M77.52,49.59c-0.93,0.3-1.42,1.03-2.16,1.51c-0.04,0.26-0.44,0.4-0.32,0.65c0.96-0.65,2-1.2,2.59-2.22c-0.01-0.04,0-0.11-0.05-0.11
	C77.57,49.5,77.5,49.51,77.52,49.59z M75.68,51.92c0.65,0.02,1.13-0.6,1.46-1.08C76.72,51.02,76.06,51.69,75.68,51.92z M64.76,51.16
	c0.2,0.15,0.35-0.13,0.38-0.32C64.93,50.86,64.83,50.99,64.76,51.16z M64.28,52.56c0.47-0.14,0.63-0.59,0.92-0.92
	C64.71,51.56,64.53,52.24,64.28,52.56z M64.39,53.32c0.22-0.2,0.63-0.48,0.59-0.76C64.81,52.85,64.42,52.9,64.39,53.32z M63.95,53.7
	c0.07-0.13,0.33-0.06,0.27-0.32C64,53.31,63.83,53.59,63.95,53.7z M64.39,53.65c-0.09,0.29-0.32,0.44-0.43,0.7
	c0.3-0.01,1.04-0.56,0.87-0.86C64.76,53.62,64.58,53.64,64.39,53.65z M64.49,54.35c-0.13,0.53-0.9,0.81-1.14,1.41
	c0.31,0,0.29-0.33,0.65-0.27c0.11-0.59,1.02-0.67,0.97-1.24C64.81,54.35,64.71,54.41,64.49,54.35z M63.41,56.62
	c0.53-0.41,1.03-0.84,1.41-1.4C64.23,55.53,63.56,56.04,63.41,56.62z M63.52,57.21c0.26,0.12,0.52-0.36,0.81-0.59
	c0.28-0.23,0.72-0.43,0.54-0.7C64.27,56.19,63.93,56.74,63.52,57.21z M64.66,57.27c0.06-0.21,0.51-0.73,0.16-0.54
	c-0.04,0.02-0.16,0.22-0.32,0.38c-0.29,0.28-0.86,0.55-0.86,0.92C64.04,57.85,64.28,57.3,64.66,57.27z M64.39,58.08
	c0.03-0.08,0.36-0.14,0.16-0.27C64.51,57.89,64.22,57.97,64.39,58.08z M63.25,59.1c0.44-0.21,0.68-0.62,0.97-0.97
	c-0.07,0-0.08-0.07-0.16-0.05C63.89,58.52,63.4,58.64,63.25,59.1z M63.79,60.13c-0.36-0.09-0.57,0.35-0.76,0.59
	c0.66-0.48,1.66-0.9,1.78-1.73c-0.28,0.27-0.55,0.57-0.92,0.76C63.91,59.92,63.9,60.08,63.79,60.13z M64.06,60.67
	c0.14-0.12,0.4-0.11,0.38-0.38C64.2,60.28,64.04,60.61,64.06,60.67z M65.03,60.62c0.1-0.01,0.18-0.04,0.22-0.11
	c-0.09,0-0.03-0.15-0.11-0.16C65.12,60.45,64.99,60.45,65.03,60.62z M63.14,61.97c0.03,0.17-0.1,0.19-0.05,0.38
	c0.63-0.54,1.37-0.97,1.84-1.68C64.11,60.89,63.85,61.65,63.14,61.97z M63.63,62.78c0.07-0.46,1.26-0.82,1.13-1.3
	c-0.39,0.25-0.81,0.91-1.46,1.08C63.25,62.77,63.59,62.85,63.63,62.78z M63.85,62.89c-0.31,0.26-0.69,0.65-0.76,1.08
	c0.74-0.55,1.67-0.92,2-1.89C64.73,62.32,64.22,62.57,63.85,62.89z M63.57,64.29c-0.17-0.06-0.59,0.33-0.49,0.54
	c0.46-0.62,1.29-0.87,1.68-1.57C64.25,63.49,63.84,63.82,63.57,64.29z M63.03,65.54c0.61-0.09,1.02-1.09,1.73-1.08
	c-0.14-0.27,0.56-0.63,0.32-0.81C64.42,64.29,63.62,64.8,63.03,65.54z M64.98,64.51c-0.13-0.02-0.12,0.1-0.27,0.05
	c-0.22,0.78-1.16,0.84-1.4,1.46c0.61-0.32,1.45-0.89,1.78-1.68c-0.07-0.02-0.1-0.08-0.22-0.05C64.83,64.44,64.98,64.4,64.98,64.51z
	 M64.39,65.86c0.02-0.19,0.31-0.12,0.32-0.32C64.49,65.5,64.28,65.75,64.39,65.86z M63.74,66.46c-0.15,0.07-0.41,0.02-0.38,0.27
	c0.31-0.06,0.37-0.35,0.7-0.38c-0.07-0.27,0.17-0.23,0.16-0.43C63.92,65.98,63.73,66.24,63.74,66.46z M63.25,67.27
	c-0.05,0.31-0.08,0.34-0.27,0.54c0.74-0.25,0.99-1,1.73-1.24c0.01-0.2,0.23-0.2,0.22-0.43C64.29,66.22,63.95,67.06,63.25,67.27z
	 M63.14,68.67c0.21-0.19,0.36-0.44,0.76-0.43c-0.01-0.55,0.61-0.47,0.65-0.97c0.39-0.02,0.44-0.38,0.65-0.43
	c-0.18-0.02,0.16-0.26-0.11-0.22C64.48,67.3,63.44,67.85,63.14,68.67z M63.63,68.78c0.68-0.22,1.01-0.79,1.46-1.24
	c-0.48,0.1-1,0.61-1.24,1.14C63.76,68.59,63.6,68.61,63.63,68.78z M63.2,70.24c0.57-0.12,0.91-0.93,1.51-1.19
	c-0.02-0.13,0.1-0.12,0.05-0.27c0.13,0.01,0.17-0.08,0.27-0.11c-0.04-0.22,0.27-0.37,0.11-0.54C64.49,68.83,63.73,69.42,63.2,70.24z
	 M63.36,68.89c0,0.15-0.22,0.35-0.11,0.43c0.16-0.13,0.29-0.29,0.38-0.49C63.48,68.79,63.49,68.91,63.36,68.89z M64.01,70.02
	c-0.01,0.16-0.24,0.37-0.05,0.54c0.34-0.51,0.96-0.73,1.19-1.35C64.58,69.3,64.66,70.02,64.01,70.02z M64.06,71.1
	c-0.01,0.12,0.19,0.02,0.27,0.05c0-0.4,0.48-0.32,0.49-0.7C64.45,70.56,64.29,70.86,64.06,71.1z M64.71,71.91
	c-0.02,0.52-0.99,0.85-0.97,1.4c0.49-0.26,0.75-0.76,1.24-1.03c-0.17-0.27,0.17-0.23,0.16-0.49C64.93,71.86,64.84,71.88,64.71,71.91
	z M64.93,72.89c0,0.07,0.03,0.12,0.05,0.16c0.14,0.01,0.17-0.08,0.22-0.16C65.06,72.88,65.03,72.79,64.93,72.89z M64.49,73.37
	c0.23,0,0.32-0.15,0.38-0.32C64.64,73.05,64.59,73.24,64.49,73.37z M64.17,73.75c0.15-0.02,0.44-0.26,0.22-0.32
	C64.35,73.57,64.19,73.59,64.17,73.75z M64.06,74.56c0.18,0.02-0.14,0.24,0.05,0.27c0.37-0.35,0.83-0.61,1.08-1.08
	c0,0.07,0.15,0.07,0.16,0c-0.12-0.01-0.12-0.14-0.11-0.27C64.74,73.73,64.5,74.24,64.06,74.56z M77.03,74.78
	c-0.04-0.25-0.35-0.23-0.32-0.54c-0.3-0.17-0.97-0.7-1.08-0.54C76.05,74.06,76.62,74.57,77.03,74.78z M77.52,76.18
	c-0.46-1.16-1.66-1.59-2.54-2.32c-0.04,0-0.07,0-0.11,0C75.44,74.94,76.53,75.51,77.52,76.18z M65.36,74.51
	c0.07-0.07,0.08-0.27-0.05-0.27C65.23,74.31,65.22,74.5,65.36,74.51z M64.49,75.1c0.35-0.09,0.49-0.38,0.65-0.65
	C64.8,74.54,64.69,74.87,64.49,75.1z M75.68,75.8c0-0.02,0.02-0.08,0.05-0.05c0.53,0.33,1.06,0.96,1.73,1.24
	c0.09-0.1-0.04-0.27-0.05-0.43c-0.91-0.43-1.48-1.19-2.43-1.57c0,0.07,0,0.14,0,0.22C75.29,75.32,75.63,75.61,75.68,75.8z
	 M64.82,75.53c0.22,0.03,0.16-0.23,0.38-0.22C65.25,75.02,64.9,75.45,64.82,75.53z M75.19,76.13c0.7,0.71,1.3,1.33,2.16,1.78
	c0.1-0.14-0.05-0.21,0.05-0.38c-0.78-0.5-1.36-1.19-2.22-1.62C75.19,75.98,75.19,76.06,75.19,76.13z M64.98,76.94
	c0.23,0.04,0.43-0.44,0.32-0.38C65.26,76.75,64.95,76.67,64.98,76.94z M76.28,77.8c-0.09,0.19,0.19,0.4,0.27,0.59
	c0.13,0.01,0.26,0.01,0.32-0.05c0.02,0.19,0.17,0.26,0.38,0.27c-0.31-0.49-0.82-1.05-1.35-1.14C75.99,77.62,76.12,77.73,76.28,77.8z
	 M76.38,78.94c0.24-0.01,0.13,0.34,0.43,0.27c-0.05-0.22-0.15-0.39-0.27-0.54C76.5,78.77,76.42,78.83,76.38,78.94z M76.06,80.72
	c0.17-0.04,0.2,0.06,0.32,0.05c0-0.14,0.02-0.31-0.05-0.38C76.11,80.38,76.02,80.48,76.06,80.72z"/>
</svg>
