<?xml version="1.0" encoding="utf-8"?>
<!-- Generator: Adobe Illustrator 25.2.1, SVG Export Plug-In . SVG Version: 6.00 Build 0)  -->
<svg version="1.1" id="Calque_1" xmlns="http://www.w3.org/2000/svg" xmlns:xlink="http://www.w3.org/1999/xlink" x="0px" y="0px"
	 viewBox="0 0 400 584" style="enable-background:new 0 0 400 584;" xml:space="preserve">
<style type="text/css">
	.st0{fill:#A5593C;}
</style>
<path class="st0" d="M390.32,539.7c-0.06,0.05-0.13,0.12-0.21,0.17c-1.43,1.22-3.21,1.47-4.62,0.77c-0.71-0.35-1.05-2.51-1.03-3.83
	c0.11-4-0.43-7.95-0.49-11.95c-0.09-4.37,1.15-8.6,0.81-12.97c-0.04-0.6,0.13-1.24,0.79-1.29c1.11-0.07,2.22-0.2,3.32-0.03
	c0.68,0.1,1.24,0.85,0.83,1.79c-0.51,1.17-0.94,0.65-1.37-0.17c-0.17-0.35-0.88-0.4-0.85-0.32c0.11,1.81-2.18,1.49-2.12,3.21
	c0.04,1.04-0.54,2.29,0.43,3.03c0.94,0.75,1.15-0.89,1.88-1.02c1.03-0.2,1.71-0.94,2.16-1.91c0.58-1.27,1.11-2.19,2.52-1.27
	c0.34,0.22,1.07-0.03,1.3-0.67c0.6-1.77,2.05-2.29,3.27-3.16c2.71-1.96,3.76-5.72,2.57-9.22c-1.05-3.08-4.04-4.82-7.14-4.15
	c-1.58,0.35-3.19,0.62-4.77,0.99c-1.69,0.42-2.29-0.47-2.4-2.34c-0.17-2.76-0.36-5.52-0.28-8.3c0.23-2.34-0.15-4.67,0.11-7.08
	c0.17-1.54,1.37-2.61,0.98-4.32c-0.17-0.75,0.79-0.42,1.22-0.47c1.84-0.2,3.12-1.12,4.47-2.76c1.22-1.49,2.57-3.06,4.15-4.3
	c3.64-2.81,4.51-7.03,1.09-10.86c-1.73-1.94-4-0.62-6.01-0.8c-0.47-0.05-0.98,0.3-1.45,0.5c-4.06,1.54-4.7,0.99-4.66-4.05
	c0.04-5.44,0.32-10.86,1.6-16.13c0.73-2.98-0.39-5.79-0.39-8.7c-0.02-3.06,0.47-3.73,3.1-3.36c0.75,0.1,1.48,0.45,2.2,0.7
	c0.83,0.3,1.13,0.8,0.62,1.77c-0.71,1.32-0.75,2.81-0.79,4.3c-0.02,0.45-0.13,1.07,0.41,1.27c0.64,0.22,0.88-0.42,1.13-0.92
	c0.13-0.25,0.19-0.55,0.28-0.82c0.85-2.86,0.9-5.87,3.91-7.78c2.54-1.61,2.4-8.03,0.6-10.94c-0.94-1.52-2.01-2.29-3.7-1.66
	c-1.8,0.65-3.81,0.02-5.39,2.01c-0.83,1.02-2.16,0.32-2.18-1.52c-0.04-4.4-0.73-8.77-0.19-13.2c0.13-1.07,0.26-2.16,0.3-3.23
	c0.13-2.81,0.66-3.78,2.97-4.15c0.96-0.15,1.69-1.72,2.91-0.62c0.32,0.27,1.03-0.5,0.92-1.12c-0.51-3.06,1.67-3.83,3.16-5.05
	c3.29-2.73,4.75-7.93,2.72-11.91c-1.3-2.51-3.19-3.33-5.6-2.11c-1.35,0.67-2.67,1.29-4.13,1.57c-2.12,0.4-3.04-0.35-2.91-2.71
	c0.28-4.87-0.04-9.72-0.45-14.54c-0.11-1.27-0.19-2.61,0.34-3.8c0.17-0.37,0-1.19,0.62-1.02c0.9,0.25,1.88,0.05,1.5-1.04
	c-0.43-1.22-0.04-3.43-1.88-3.48c-0.62-0.03-0.79-0.17-0.79-0.65c0-1.29,0.06-2.56,0.19-3.83c0.07-0.8,0.71-0.7,1.2-0.82
	c1.8-0.52,2.82,1.59,4.45,1.74c0.39,0.02-1.01,2.46-1.9,2.46c-1.05,0.02-1.11,0.62-1.05,1.49c0.08,0.9,0.17,1.86,1.15,2.04
	c0.3,0.05,0.64-0.17,0.96-0.25c-0.85-2.68,1.97-1.94,2.44-3.53c0.28-0.89,1.33-1.34,1.41-2.63c0.09-1.22,1.24-1.57,1.95-2.21
	c2.18-1.99,2.76-4.6,1.56-7.28c-1.54-3.43-4.08-5.02-6.63-3.8c-1.69,0.8-3.36,0.22-5.02,0.5c-0.51,0.07-0.83-0.07-0.86-0.99
	c-0.13-3.7-0.43-7.41-0.62-11.11c-0.08-1.57-0.19-3.23,0.83-4.52c0.71-0.89,0.15-1.72-0.11-2.48c-0.9-2.66-0.81-5.42-0.79-8.2
	c0-1.22,0.39-1.86,1.5-1.86c0.51,0,1.05-0.05,1.52-0.27c1.84-0.94,2.48,0.27,2.82,2.04c0.11,0.57,0.19,1.17,0.39,1.69
	c0.17,0.47,0.58,0.72,1.05,0.62c0.34-0.07,0.62-0.27,0.73-0.72c0.17-0.82-0.43-2.71,1.37-1.34c0.02,0.03,0.26-0.22,0.3-0.37
	c0.75-2.24,2.63-3.51,3.38-5.84c1.67-5.22-1.47-9.69-6.01-9.45c-1.6,0.1-3.21,0.47-4.81,0.72c-1.24,0.2-1.99-0.27-1.9-1.91
	c0.32-5.34-0.13-10.69-0.23-16.03c-0.01-0.41-0.06-0.85,0.07-0.99v-3.1c0-0.59,0.09-1.14,0.25-1.67c-0.18-0.36,0.08-0.97,0-1.4
	c-0.34-1.91,0.66-3.9-0.28-5.77c-0.36-0.75,0.19-0.87,0.58-0.87c1.99,0,4-0.7,5.84,1.04c1.45,1.37,4.58,0.2,6.37-2.06
	c1.45-1.82,1.35-5.17,0.28-7.43c-1.82-3.83-4.77-3.31-7.68-3.18c-3.83,0.15-3.87,0.17-3.93-4.1c-0.04-4.32,0.02-8.67,0.04-13
	c0-0.57,0.19-1.09,0.68-0.94c0.88,0.27,1.93,0.15,1.6-0.92c-0.41-1.27,0.28-3.13-1.28-3.85c-0.41-0.2-1.22,0.2-1.15-0.7
	c0.15-1.76-0.43-3.58,0.15-5.32c0.64-1.99,1.97-1.44,3.21-1.17c1.54,0.37,2.59,1.17,2.31,3.36c-0.09,0.67-0.26,1.91,0.71,1.91
	c1.03,0,1.15-1.12,0.83-2.01c-0.66-1.89,0.58-2.14,1.54-2.71c1.84-1.12,3.57-5.64,3.01-7.93c-0.62-2.56-4.04-4.45-6.26-3.48
	c-1.73,0.74-3.53,0.37-5.32,0.3c-0.77-0.05-0.68-0.62-0.73-1.24c-0.34-5.14-0.68-10.29-0.56-15.46c0.06-2.29,1.11-3.83,2.93-4.72
	c2.35-1.14,3.06-2.56,2.84-5.59c-0.04-0.67-0.19-1.49,0.47-1.86c0.66-0.35,0.75,0.6,1.15,0.9c1.09,0.82,1.82,0.77,1.67-0.97
	c-0.13-1.52,0.85-2.09,1.54-2.86c2.33-2.54,3.14-5.54,1.75-7.9c-1.63-2.73-4.11-5.52-7.44-3.9c-1.09,0.52-2.5,0.15-3.76,0.17
	c-0.75,0-1.11-0.55-1.07-1.34c0.32-5-0.23-10.02,0.09-15.01c0.15-2.54,1.54-3.75,3.1-5.04c1.05-0.87,2.27-1.84,0.92-3.75
	c-0.79-1.14-1.22-2.24-2.37-0.4c-0.49,0.79-1.22,0.7-1.24-0.65c0-0.6-0.17-1.19-0.11-1.76c0.11-0.94-0.34-2.11,0.58-2.73
	c1-0.7,2.05-0.05,2.93,0.42c0.51,0.27,1.43,0.99,0.56,2.09c-0.32,0.37-0.34,0.95-0.15,1.39c0.26,0.65,0.02,1.79,1.07,1.69
	c1.13-0.07,1.18-1.14,0.94-1.96c-0.51-1.71,0.21-1.79,1.3-1.59c2.67,0.55,4.85-3.88,5.22-7.28c0.34-3.16-1.26-5.44-3.91-6.11
	c-1.71-0.42-3.38-0.12-5.09,0.03c-2.03,0.17-2.33-0.25-2.25-2.64c0.17-4.65-0.38-9.27-0.49-13.92c-0.02-0.8-0.06-1.59-0.06-2.39
	c0-0.37,0.02-1.02,0.17-1.07c0.45-0.17,0.36,0.5,0.58,0.75c0.43,0.5,0.79,1.04,1.52,0.67c0.73-0.37,0.68-0.99,0.51-1.74
	c-0.51-2.41,1.6-3.28,2.52-3.75c1.24-0.62,1.28-0.97,0.73-1.94c-1.13-1.99-0.53-2.91,1.24-3.7c5.02-2.24,4.53-6.31,2.95-10.02
	c-0.94-2.21-4-3.48-6.05-2.71c-2.69,1.02-4.58-0.55-4.6-3.85c-0.02-2.96,0.32-5.92-0.09-8.87c-0.09-0.57-0.06-1.32,0.19-1.74
	c2.2-3.65,1.03-7.38,0.21-11.09c-0.66-3.08-0.66-3.16,2.1-3.28c0.98-0.05,1.95-0.87,2.97,0c0.47,0.4,0.75,0.77,0.64,1.44
	c-0.13,0.77-0.6,0.4-0.98,0.45c-1.78,0.17-2.99,0.85-2.57,3.43c0.15,0.92-0.34,1.94-0.38,2.91c-0.06,1.47,0.09,2.63,1.9,2.61
	c1.39-0.02,1.95-0.27,1.6-1.94c-0.13-0.57-0.13-1.19-0.13-1.79c0-0.27,0.02-0.75,0.15-0.82c0.45-0.25,0.45,0.35,0.62,0.6
	c0.32,0.5,0.73,0.92,1.28,0.65c0.64-0.32,0.49-1.07,0.32-1.54c-0.6-1.59-0.13-3.11,0.13-4.65c0.09-0.5-0.13-1.42,0.6-1.32
	c0.26,0.02,0.43,0.97,0.68,1.47c0.43,0.8-0.3,1.49-0.11,2.29c0.13,0.52,0.24,1.04,0.73,1.04c0.64,0,0.47-0.6,0.45-1.09
	c-0.04-0.7,0.09-1.42-0.09-2.06c-0.47-1.89,0.13-3.26,1.05-4.82c1.2-2.04,1.62-4.3,0.53-6.96c-0.96-2.31-1.69-3.68-2.61-4.4
	c-0.32-0.15-0.62-0.3-0.92-0.45c-0.98-0.25-2.24,0-4.17,0.65c-1.35,0.47-2.72-0.07-4.08,0.07c-0.79,0.07-0.83-0.77-0.77-1.52
	c0.28-3.48,0.04-6.96-0.47-10.39c-0.15-0.97,0.04-1.67,0.39-2.19c-0.21-1.24-0.32-2.54-0.3-3.88c-0.3,0.4-0.62,0.8-0.96,1.14
	c-0.54,0.52-1.05,0.92-1.16,1.81c-0.06,0.52-0.04,1.47-0.71,1.32c-0.56-0.12-0.17-0.99-0.21-1.17c-0.15-1.57,0.32-2.31,1.18-3.03
	c0.62-0.52,1.28-1.02,1.9-1.57c0.01-0.1,0.03-0.2,0.03-0.3c-0.6-1.03-1.04-2.17-1.37-3.31c-0.07-0.26-0.14-0.52-0.21-0.78
	c-0.01-0.02-0.02-0.05-0.05-0.09c-0.06-0.1-0.16-0.25-0.31-0.39c-0.3-0.28-0.61-0.54-0.91-0.82c-0.73-0.68-1.34-1.44-1.95-2.22
	c-0.28-0.17-0.55-0.36-0.82-0.61c-1.75-1.62-3.76-1.79-5.8-2.01c-6.54-0.7-13.11-0.5-19.67-0.42c-6.74,0.07-13.41,1.54-20.16,1.09
	c-6.89-0.45-13.73,0.7-20.61,0.52c-16.36-0.4-32.74,0.35-49.12,0.05c-7.57-0.15-15.14-0.82-22.73-0.25
	c-5.56,0.42-11.12,1.19-16.72,1.17c-3.06,0-6.09,0.89-9.15,0.15c-0.81-0.2-1.71-0.07-2.55,0.07c-6.63,1.02-13.3,0.25-19.93,0.75
	c-2.05,0.15-3.83-1.44-5.67-1.19c-3.44,0.45-6.86-0.6-10.33,0.37c-5.69,1.59-11.44-2.11-17.19-0.22c-3.14-1.32-6.46-1.12-9.77-0.99
	c-4.02,0.12-7.89-1.84-11.89-1.64c-7.91,0.42-15.82-0.7-23.73-0.22c-5.52,0.32-11.1-0.12-16.53,0.75
	C87.44,2.48,77.09,2.18,66.76,2.63c-3.16,0.12-6.29-0.62-9.43-0.37c-4.55,0.37-9.07-0.22-13.53-0.7c-5.26-0.55-10.5-1.02-15.76-0.75
	c-2.69,0.15-5.37,0.55-8.08,0.52c-2.89-0.05-5.41,1.39-6.95,4.28c-1.39,2.61-2.42,5.59-2.67,8.6c-0.24,2.91-1.39,4.32-3.46,5.59
	c-3.19,1.96-5.41,5-5.45,9.49c-0.04,7.11-0.96,14.19-0.64,21.33c0.11,2.44,0.19,4.9,0.09,7.38c-0.17,3.58-0.77,7.08-0.79,10.66
	c-0.02,6.29-0.21,12.6,0.15,18.89c0.26,4.32,0.36,8.8,1.97,12.85c1.73,4.38,3.63,8.65,6.12,12.55c1.48,2.34,1.09,5.84-0.86,7.58
	c-3.31,2.96-5.45,6.54-5.73,11.63c-0.11,2.21,0.45,4.3,0.3,6.46c-0.38,6.24,0.51,12.45,0.53,18.69c0.02,8.58,0.96,17.15,0.94,25.75
	c0,5.22,0.26,10.49-0.43,15.66c-0.56,4.18,0.17,7.46,2.63,10.56c1.41,1.81,3.01,3.9,2.18,6.91c-0.13,0.47,0.24,1.12,0.36,1.69
	c0.79,4.13,1.95,8.2,2.22,12.38c0.36,5.37,0.49,10.79,0.92,16.18c0.81,10.14-0.17,20.23-0.49,30.35c-0.26,8.2-0.81,16.41-1.09,24.63
	c-0.28,8.48-0.32,16.95-0.51,25.4c-0.19,7.8-0.36,15.63-0.68,23.44c-0.26,6.31-0.41,12.63-0.13,18.94c0.09,2.04-1.11,3.78-0.83,5.79
	c0.68,4.85,0.49,9.72,0.41,14.57c-0.21,11.96-1.5,23.86-0.45,35.87c0.75,8.67,1.03,17.4,1.45,26.12c0.45,8.8,0.88,17.6,1.22,26.4
	c0.32,7.71,0.83,15.39,0.81,23.12c-0.02,3.26-0.06,6.51-0.13,9.74c-0.13,5.64-0.09,11.28,0.21,16.93c0.15,2.78-0.64,5.37-0.6,8.15
	c0.06,4.23,0.06,8.5-0.11,12.75c-0.24,5.49-1.24,11.04,0.15,16.5c0.38,1.52,0.56,3.06,0.6,4.65c0.04,2.56,0.77,4.85,2.99,6.11
	c0.75,0.42,1.6,0.94,2.07,1.69c1.6,2.46,3.93,2.93,6.31,3.4c7.76,1.62,15.63,0.82,23.43,0.92c6.16,0.07,12.36-0.4,18.5-0.08
	c7.85,0.42,15.69,0.22,23.52,0.62c10.71,0.55,21.45,0.7,32.16,0.4c9.04-0.25,18.07,0,27.11,0.42c13.13,0.6,26.28-0.25,39.39-1.02
	c9.54-0.55,19.09-0.87,28.65-0.99c7.59-0.07,15.18,0.27,22.77,0.17c10.05-0.1,20.1,0.77,30.15,0.92c8.94,0.12,17.88,0.35,26.81-0.02
	c5.79-0.25,11.57,0.22,17.36,0.15c3.14-0.05,6.29-0.45,9.41-0.17c8.66,0.75,17.34,0.8,26.02,0.82c5.71,0.03,11.44-0.4,17.1,0.5
	c5.09,0.82,9.86,0.42,14.07-3.31c0.31-0.28,0.57-0.44,0.82-0.51c1.68-3.87,3.24-7.79,3.2-12.08c-0.01-1.11,0.24-2.06,0.65-2.85
	c-0.08-0.36-0.05-0.77,0.14-1.26c1.22-3.13,0.34-6.02-0.17-9.02c-0.19-1.07-0.88-2.61,0.21-3.28c1.18-0.72,2.72-0.5,4.02-0.1
	c0.96,0.3,0.86,1.62,0.98,2.54c0.13,0.89,0.39,1.59,1.22,1.57c0.79,0,0.9-0.74,0.88-1.49c0-0.67,0.11-1.14,0.88-0.92
	c3.27,0.94,5.07-1.42,6.54-4.15c1.41-2.63,0.43-6.29-2.16-9C394.23,537.64,393.1,537.61,390.32,539.7z M389.57,501.3
	c1.13,0.12,2.12,0.47,2.95,1.49c0.73,0.89,0.66,1.86,0.34,2.73c-0.32,0.87-0.79,1.64-1.88,1.64c-7.23-0.03-14.48-0.07-21.7-0.5
	c-1.03-0.05-2.65-2.16-2.4-3.26c0.32-1.39,0.66-2.73,2.5-2.64c3.31,0.22,6.65,0.05,9.96,0.05C382.75,501,386.17,500.95,389.57,501.3
	z M377.68,512.96c0.02-0.4,0.02-0.8,0.09-1.17c0.08-0.45,0.06-1.14,0.58-1.14c0.54,0.03,0.34,0.72,0.43,1.14
	c0.08,0.37,0.15,0.8,0.08,1.17c-0.11,0.7,0.13,1.89-0.79,1.79C377.44,514.7,377.74,513.6,377.68,512.96z M378.04,524.66
	c0.06-0.62-0.13-1.52,0.66-1.66c0.77-0.12,0.58,0.72,0.71,1.17c-0.11,0.82-0.21,1.74-1.07,1.69
	C377.79,525.83,378,525.09,378.04,524.66z M379.54,482.28c-0.02,0.87,0,1.94-1.01,1.96c-0.19,0-0.53-1.49-0.58-2.31
	c-0.02-0.55-0.11-1.59,0.81-1.54C379.84,480.49,379.39,481.56,379.54,482.28z M378.58,491.08c-0.79,0.1-0.58-0.92-0.56-1.54
	c0.26-0.72-0.34-1.91,0.56-2.06c0.83-0.12,0.64,0.92,0.62,1.57C379.15,489.79,379.37,490.96,378.58,491.08z M389.87,470.5
	c-0.62,0.12-0.62,0.84-0.83,1.37c-0.34,0.82-0.64,1.76-1.56,0.74c-0.36-0.2-0.64-0.22-0.98-0.02c-0.49,0.3,0.06,1.71-0.88,1.29
	c-0.53-0.25,0.28-1.02,0.11-1.57c-0.09-0.27-0.23-0.5-0.36-0.74c-0.58-1.24-0.94-3.03-0.02-3.65c1.01-0.67,2.61-0.35,3.72,0.67
	c0.3,0.27,0.47,0.75,0.9,0.94C390.87,469.96,390.93,470.28,389.87,470.5z M389.12,460.29c0.49,0.03,1-0.07,1.5-0.2
	c0.9-0.22,1.9-0.27,2.24,0.75c0.36,1.07,0.26,2.31-0.36,3.41c-0.66,1.17-1.6,0.02-2.35,0.47c-0.34,0.2-0.71-0.17-0.6-0.62
	c0.41-1.54-0.34-2.11-1.41-2.04c-1.75,0.08-3.66-0.12-5,1.64c-0.32,0.42-0.15,0.9,0.3,1.22c0.34,0.25,1.2-0.57,1.03,0.5
	c-0.09,0.57-0.9,0.4-1.39,0.32c-3.72-0.72-7.48-0.3-11.23-0.62c-1.62-0.15-3.23-0.3-4.53-1.67c-0.75-0.77-0.92-1.69-0.73-2.68
	c0.24-1.19,1.13-0.97,1.88-0.99h3.08C377.38,460.71,383.26,460.04,389.12,460.29z M374.84,471.62c-0.58-0.05-3.1-2.61-3.08-3.23
	c0.02-0.94,0.68-0.62,1.09-0.67c1.88,0,2.89,0.87,2.8,2.48C375.63,470.75,375.86,471.72,374.84,471.62z M377.81,448.48
	c0.39-0.77-0.41-2.39,0.77-2.26c1.07,0.1,0.39,1.67,0.68,2.53c-0.04,0.57-0.04,1.17-0.17,1.74c-0.13,0.57-0.54,1.22-1.03,1.14
	c-0.64-0.1-0.43-0.92-0.43-1.44C377.64,449.62,377.59,448.95,377.81,448.48z M377.98,455.27c-0.06-0.52-0.21-1.39,0.51-1.29
	c1.09,0.12,0.53,1.37,0.85,1.94c-0.19,0.7,0.15,1.81-0.75,1.59C377.64,457.26,378.09,456.04,377.98,455.27z M378.66,430.19
	c-1.13-0.12-0.38-2.09-0.38-3.23c0-0.3,0.09-0.57,0.09-0.87c0.02-0.5,0.04-1.04,0.58-1.12c0.73-0.1,0.73,0.62,0.81,1.19
	c0.04,0.27,0,0.57,0,0.92C379.47,428.17,379.77,430.31,378.66,430.19z M379.24,441.97c-0.21,0.67,0.06,2.11-0.53,1.91
	c-0.94-0.32-0.43-1.82-0.58-2.78c-0.06-0.5-0.19-1.49,0.45-1.34C379.6,439.98,379.13,441.15,379.24,441.97z M382.73,445.2
	c-0.09,1.12-0.04,2.11-0.86,2.76c-0.23,0.2-0.6,0.2-0.62-0.03c-0.09-0.94-0.17-1.91-0.04-2.86c0.09-0.72,0.39-1.74,1.18-1.54
	C383.02,443.71,382.66,444.7,382.73,445.2z M382.23,452.73c0,0.65,0.21,1.64-0.58,1.57c-0.68-0.07-0.26-1.12-0.41-1.72
	c-0.15-0.6,0.04-1.34,0.64-1.24C382.58,451.41,382.08,452.26,382.23,452.73z M381.72,437.99c0.51,0,0.85,0.5,1.01,1.02
	c-0.28,0.84-0.56,1.69-1.28,1.72c-0.41,0.02-0.43-0.75-0.41-1.22C381.06,438.89,380.84,437.99,381.72,437.99z M381.63,431.41
	c0.13-0.97,0.6-1.69,1.41-1.84c0.47-0.1,0.64,0.52,0.6,1.04c-0.06,1.09-0.75,1.44-1.5,1.59
	C381.63,432.18,381.57,431.8,381.63,431.41z M390.44,414.4c2.42-0.75,3.68-0.17,4.4,2.21c0.47,1.57-0.81,4.4-2.46,4.85
	c-2.35,0.62-4.53,2.68-7.21,1.37c-5.37-1.09-10.86,0.47-16.29-0.6c-1.5-0.3-2.37-0.85-2.57-2.61c-0.19-1.84,0.6-3.13,1.97-3.7
	c1.52-0.62,3.12-1.12,4.77-0.89c3.81,0.55,7.63,0.12,11.46,0.65C386.45,415.95,388.5,415,390.44,414.4z M379.43,401.65
	c0.81,0.02,0.75,0.87,0.75,1.32c0,1.39-0.73,2.46-1.77,2.91c-0.71,0.3-0.58-0.67-0.62-1.22
	C377.72,403.2,378.34,402.25,379.43,401.65z M377.85,398.7c0.17-0.9,0.64-1.69,1.35-1.96c0.56-0.22,0.43,0.62,0.53,1.04
	c-0.11,1.02-0.71,1.54-1.47,1.74C377.79,399.64,377.76,399.09,377.85,398.7z M378.9,412.37c-0.81,0.1-0.66-1.32-0.73-2.16
	c-0.26-0.97,0.06-1.57,0.9-1.61c0.81-0.05,0.64,0.77,0.54,1.24C379.39,410.75,379.86,412.27,378.9,412.37z M383.82,407
	c0.06,0.47-0.04,0.99-0.04,1.09c0,1.49,0.02,2.56-0.02,3.65c-0.02,0.6-0.15,1.24-0.81,1.29c-0.32,0.02-0.77,0.02-0.94-0.2
	c-0.47-0.57-0.02-1.04,0.26-1.54c0.36-0.67,0.71-1.37,0.94-2.09c0.19-0.6,0.15-1.27-0.64-1.14c-1,0.17-1.07-0.57-0.77-1.22
	c0.45-0.99,0.06-2.98,1.3-2.86C384.22,404.11,383.71,405.9,383.82,407z M382.47,388.68c-0.39,0.05-0.75-0.12-0.58-0.62
	c0.26-0.74,0.79-1.32,1.48-1.49c0.47-0.1,0.43,0.5,0.45,0.85C383.9,388.6,383.13,388.58,382.47,388.68z M381.74,385.05
	c-0.6,0.3-0.36-0.65-0.36-0.99c-0.06-1.27,0.53-1.76,1.58-1.59c0.36,0.05,0.62,0.25,0.64,0.74
	C382.98,383.83,382.47,384.7,381.74,385.05z M390.96,386.57c-0.28,0.6-0.66,0.6-0.98,0.17c-0.81-1.07-1.43-0.77-1.99,0.3
	c-0.28,0.55-0.34,1.66-1.03,1.39c-0.85-0.32-0.6-1.47-0.64-2.11c0-3.43,0.43-3.9,3.08-3.43
	C391.02,383.19,391.73,384.85,390.96,386.57z M388.71,373.29c1.37,0.07,2.74,0.05,4.06,0.32c1.78,0.37,2.59,1.96,2.18,3.83
	c-0.3,1.39-2.46,2.71-3.7,2.24c-0.15-0.05-0.32-0.2-0.36-0.37c-0.11-0.32,0.04-0.52,0.34-0.55c0.26-0.02,0.51-0.02,0.75-0.12
	c0.71-0.25,1.33-0.7,1.22-1.62c-0.11-0.79-0.81-0.97-1.39-1.07c-0.75-0.15-1.52-0.15-2.37-0.22c-1.28,0.32-3.51-0.87-3.1,2.59
	c0.06,0.5-0.71,0.27-1.07,0.45c-1.56,0.72-3.34-0.15-4.77,0.5c-3.02,1.37-6.03,0.45-9.02,0.6c-1.28,0.08-2.46-0.5-3.74-0.52
	c-1.11-0.03-2.05-1.04-2.18-2.51c-0.13-1.47,0.32-2.46,1.56-3.33c1.65-1.17,3.21-1.17,5.05-1.02
	C377.66,372.9,383.2,373.02,388.71,373.29z M378.26,355.08c0.15-0.67-0.17-1.81,0.79-1.81c0.83,0,0.58,1.04,0.62,1.66
	c0.06,0.87-0.34,1.82-1.01,1.82C377.85,356.72,378.45,355.67,378.26,355.08z M379.33,359.75c1.05-0.22,0.56,0.87,0.71,1.22
	c-0.06,1.54-0.26,3.21-1.45,3.28c-0.9,0.05-0.6-1.72-0.79-2.68C377.49,360.17,378.58,359.92,379.33,359.75z M379.65,368.5
	c-0.17,0.87,0.24,2.09-0.86,2.19c-1.01,0.1-0.75-1.12-0.88-1.76c-0.21-0.99,0.45-1.47,1.13-1.59
	C379.92,367.2,379.52,368.12,379.65,368.5z M381.8,357.46c-0.06-0.72,0.19-1.64,0.88-1.47c0.79,0.2,0.51,1.24,0.51,1.84
	c-0.04,0.82-0.02,1.84-0.71,1.79C381.36,359.5,381.87,358.26,381.8,357.46z M383.3,365.41c0.19,0.77-0.06,1.62-0.73,1.49
	c-0.83-0.15-0.17-1.17-0.32-1.49c-0.13-0.97-0.17-1.96,0.56-1.91C383.77,363.58,383.11,364.74,383.3,365.41z M389.85,330.54
	c1.69-0.02,2.24,1.59,2.99,2.71c0.49,0.74-0.06,1.96-0.77,2.61c-0.77,0.67-1.52,1.74-2.7,0.8c-0.26-0.22-0.53-0.4-0.81-0.57
	c0.3-0.2,0.58-0.4,0.88-0.57c0.3-0.17,0.64-0.3,0.92-0.5c0.32-0.2,0.53-0.62,0.41-0.99c-0.13-0.32-0.45-0.7-0.73-0.72
	c-1.8-0.17-3.57,0.02-5.28,0.75c-0.41,0.17-0.81,0.77-0.62,1.17c1.28,2.68-0.71,1.71-1.56,1.94c-4.6,1.17-9.13-0.87-13.73-0.35
	c-1.39,0.17-2.37-1.02-2.35-2.86c0.04-2.06,0.98-3.08,2.72-3.08h3.57C378.47,330.54,384.16,330.59,389.85,330.54z M375.35,344.61
	c-0.66,0.15-1.6,1.24-2.2-0.5c-0.41-1.19-1.09-0.47-1.45,0.3c-0.28,0.6-0.43,1.27-0.64,1.89c-0.06-0.87-0.09-1.74-0.19-2.61
	c-0.45-3.43,1.16-4.95,4.02-3.75c1.07,0.45,1.07,1.47,1.03,2.43C375.88,343.17,376.4,344.39,375.35,344.61z M379.11,300.44
	c-0.04,0.6-0.26,1.39-0.71,1.42c-0.81,0.05-0.41-0.79-0.43-1.32c0.23-0.55-0.21-1.64,0.68-1.59
	C379.17,298.98,379.15,299.87,379.11,300.44z M379.17,321.3c0.04,0.27,0,0.6,0,0.25c-0.11,1.79-0.11,2.98-0.7,4
	c-0.77-1.17-0.6-2.48-0.43-3.8c0.02-0.2,0.04-0.4,0.09-0.57c0.09-0.5,0.21-1.04,0.77-0.87C379.05,320.35,379.11,320.92,379.17,321.3
	z M385.72,288.64c1.99-0.4,4,0.3,6.07-0.05c1.54-0.27,1.56,1.84,1.73,3.13c0.17,1.32,0.88,3.58-1.71,2.39
	c-2.24,0.92-1.78,0.02-0.66-1.34c0.66-0.82,0.09-1.39-0.45-1.54c-1.43-0.45-2.89-0.05-4.28,0.4c-0.71,0.22-0.71,1.07-0.77,1.74
	c-0.09,0.77,0.49,0.94,1.01,1.09c0.49,0.12,1.01,0.17,1.52,0.25c0.23,0.05,0.45,0.12,0.68,0.17c-0.21,0.15-0.41,0.32-0.62,0.42
	c-1.99,1.04-4.11,1.27-6.24,1.17c-3.12-0.17-6.24-0.5-9.39-0.72c-1.75-0.12-3.12-1.54-4.98-1.54c-1.2,0-1.43-1.66-1.3-3.08
	c0.15-1.64,1.15-0.9,1.88-1.12C373.94,288.21,379.9,289.78,385.72,288.64z M371.84,305.49c0,0.27-0.02,0.77-0.06,0.77
	c-0.49,0.02-0.28-0.52-0.41-0.8c-0.04-0.07-0.04-0.2-0.11-0.27c-0.6-0.94-0.04-3.03-1.56-2.93c-1.35,0.1-0.49,2.09-1.2,2.93
	c0.21-1.52-0.19-2.93-0.36-4.4c-0.09-0.85-0.43-1.49-1.33-1.39c-0.34,0.05-0.92,0.47-0.88-0.42c0.02-0.62,0.53-0.67,0.96-0.7
	c2.37-0.22,4.72-0.45,7.1-0.72c1.09-0.12,1.56,0.37,1.47,1.69c-0.06,1.37-0.04,2.76-0.02,4.13c0,0.57,0.26,1.24-0.49,1.42
	c-0.51,0.12-1.15,0.67-1.45-0.42c-0.21-0.72-0.75-1.19-1.39-0.95C371.07,303.9,371.86,304.79,371.84,305.49z M378.77,265.42
	c0.66-0.12,1.33,0.4,1.26,1.42c-0.09,1.22-0.49,2.73-1.39,2.88c-0.83,0.12-0.17-1.42-0.49-2.16
	C378.47,266.89,377.64,265.65,378.77,265.42z M378.45,257.87c-0.02-0.08,0.02-0.2,0.04-0.27c0.3-0.84-0.02-2.48,0.75-2.43
	c0.73,0.05,0.23,1.66,0.47,2.53c-0.15,1.32,0.34,3.48-1.03,3.43C377.59,261.1,378.83,258.98,378.45,257.87z M379.39,273.08
	c0.77,0,0.28,1.09,0.3,1.69c0.02,1.17-0.38,2.29-1.37,2.44c-0.88,0.12-0.39-1.02-0.56-1.37
	C377.98,274.45,378.17,273.08,379.39,273.08z M378.71,281.06c0.21-0.15,0.47,0,0.6,0.3c0.49,1.09,0.21,2.09-0.26,3.06
	c-0.09,0.17-0.15,0.37-0.28,0.5c-0.3,0.3,0.04,1.09-0.62,0.99c-0.06,0-0.04-0.67-0.04-1.02v-1.02
	C378.19,282.99,377.68,281.8,378.71,281.06z M382.13,279.66c-0.96-0.08-0.39-1.57-0.71-2.39c-0.26-0.65,0.58-1.52,0.96-1.37
	c0.64,0.25,0.17,1.17,0.19,1.81C382.55,278.45,382.92,279.71,382.13,279.66z M381.91,272.8c-0.6,0.12-0.62-0.65-0.49-1.04
	c0.32-0.99-0.15-2.64,0.71-2.93c0.79-0.27,0.49,1.12,0.62,1.81C382.55,271.41,382.98,272.56,381.91,272.8z M381.98,284.11
	c0.43-0.22,0.36,0.65,0.51,1.02c0.09,1.22-0.68,1.17-1.33,1.24c-0.36,0.05-0.75-0.27-0.56-0.65
	C380.95,285.11,381.4,284.41,381.98,284.11z M390.19,245.96c0.62-0.03,2.42,2.96,2.24,3.78c-0.28,1.29-1.26,1.04-2.09,1.09
	c-0.26,0.02-0.51,0.02-0.77-0.05c-0.77-0.25-2.16,0.6-2.22-0.35c-0.09-1.02,1.37-0.5,2.1-0.85c0.45-0.22,1.11-0.25,1.05-1.04
	c-0.06-0.82-0.64-1.27-1.28-1.02c-1.11,0.42-2.22-0.2-3.29,0.17c-0.6,0.22-1.73,0.25-1.58,1.14c0.47,2.59-1.01,2.09-2.2,2.19
	c-3.83,0.32-7.63,0.7-11.44,1.02c-1.86,0.15-3.49-1.07-3.68-2.76c-0.26-2.31,1.11-3.13,2.65-3.68c1.8-0.65,3.61-1.09,5.54-0.6
	C380.18,245.29,385.16,246.18,390.19,245.96z M383.84,231.1c0.02,0.15,0.04,0.25,0.04,0.35c-0.11,0.87,0.45,2.41-0.64,2.41
	c-1.24,0-0.9-1.69-0.92-2.66c-0.02-0.99,0.54-2.14,1.39-2.11C384.18,229.08,383.62,230.43,383.84,231.1z M383.05,237.36
	c0.17,0.1,0.43,0.2,0.43,0.27c-0.17,1.32,0.9,2.36,0.62,3.68c-0.11,0.52-0.39,0.87-0.85,0.95c-0.54,0.1-0.77-0.22-0.86-0.8
	c-0.11-0.77-0.26-1.54-0.38-2.31C381.83,238.13,382.77,238.01,383.05,237.36z M381.16,227.84c-0.26,0.72-0.75,1.32-1.15,1.94
	c-0.24,0.35-0.36,1.04-0.92,0.72c-0.45-0.27-0.26-0.87-0.26-1.32c-0.02-0.85,0.34-1.54,0.75-2.16c0.62-0.95,1.48-2.24,2.46-1.44
	C382.68,226.08,381.46,227.02,381.16,227.84z M378.77,236.39c0.02-0.27-0.04-0.7,0.08-1.02c0.32-0.8,0.66-1.94,1.54-1.64
	c0.75,0.25,0.34,1.37,0.32,2.11c0,0.37-0.21,0.75-0.43,1.07c-0.38,0.6-0.36,1.89-1.09,1.74
	C378.36,238.4,379.09,237.21,378.77,236.39z M380.65,214.32c-0.13,1.04-0.34,2.26-1.45,2.36c-0.79,0.07-0.21-0.92-0.53-1.27
	c0.45-0.92,0.04-2.44,1.43-2.41C380.82,213,380.72,213.8,380.65,214.32z M387.94,204.28c1.35,0.17,2.72,0.1,4.08,0.17
	c1.43,0.08,1.75,0.77,1.15,2.31c-0.83,2.21-1.73,4.03-4.21,3.63c-1.18-0.17-2.4-0.02-3.57-0.02c-2.39-0.17-4.79,0.05-7.1,0.6
	c-3.16,0.77-6.24-0.32-9.36-0.25c-0.94,0.02-2.07-0.72-2.5-2.09c-0.43-1.37,0.28-2.51,0.96-3.16c0.96-0.9,2.29-1.74,3.46-1.74
	C376.55,203.76,382.25,203.58,387.94,204.28z M379.13,186.51c-0.77,0.22-0.28-1.04-0.47-1.57c-0.17-1.02-0.02-1.86,0.92-2.11
	c0.56-0.12,0.43,0.5,0.32,0.79C379.56,184.62,380.22,186.18,379.13,186.51z M378.53,173.98c-0.98-0.17-0.09-1.59-0.64-2.01
	c-0.19-0.87-0.11-1.39,0.62-1.34c0.98,0.05,0.88,1.04,1.01,1.71C379.71,173.23,379.24,174.1,378.53,173.98z M382.96,174.85
	c0.15,0.79,0.04,1.34-0.62,1.39c-0.64,0.05-0.49-0.57-0.54-1.02c-0.06-0.77,0.19-1.54,0.81-1.57
	C383.52,173.63,382.6,174.63,382.96,174.85z M381.93,181.73c-0.04-0.17,0.24-0.67,0.36-0.67c0.41-0.02,0.51,0.35,0.51,0.8v2.98
	h-0.06c0,0.8,0.06,1.59-0.02,2.39c-0.07,0.57,0.36,1.67-0.47,1.62c-0.66-0.05-0.45-1.17-0.51-1.79
	C381.59,185.27,382.38,183.55,381.93,181.73z M381.83,195.28c0.11-0.87-0.36-2.34,0.83-2.31c0.68,0,0.28,1.34,0.41,2.06
	c-0.43,0.6,0.56,2.09-0.81,1.96C381.46,196.92,381.74,195.9,381.83,195.28z M389.59,172.71c-0.19,2.16-1.01,3.01-3.46,2.96
	c-1.48-0.03-0.36-1.29-0.58-1.99c-0.21-1.64-0.06-3.08,1.84-2.71C388.24,171.15,389.82,170.35,389.59,172.71z M389.67,161.68
	c1.13,0,2.46,0.37,2.74,1.62c0.3,1.29-0.75,2.21-1.69,3.01c-1.33,1.12-2.71,1.59-4.32,1.22c-0.28-0.07-0.79,0.1-0.77-0.37
	c0-0.45,0.51-0.35,0.83-0.47c1.05-0.4,2.95-0.1,2.72-1.86c-0.21-1.72-2.01-0.7-3.1-0.92c-0.58-0.12-1.2-0.05-1.78-0.12
	c-1.37-0.15-2.01,0.7-1.67,2.11c0.36,1.44,0.04,1.66-1.11,1.69c-4.15,0.1-8.32-0.47-12.47,0.3c-1.22,0.22-2.37-0.74-2.63-2.24
	c-0.3-1.81,0.96-3.11,2.89-3.23c3.55-0.22,7.12-0.42,10.67-0.62c0.43-0.02,0.85-0.05,1.5-0.08
	C384.05,161.13,386.85,161.68,389.67,161.68z M373.21,172.36c-0.86-0.17-1.18,0.52-1.26,1.44c-0.04,0.42,0.21,1.17-0.32,1.17
	c-0.26,0-0.15-0.87-0.11-1.37c0.02-0.3,0.04-0.6,0.09-1.02c0.26-0.72-0.75-2.26,0.51-2.34c0.98-0.07,2.35-0.55,3.1,0.57
	c0.62,0.92,0.73,2.24,0,3.28c-0.28,0.4-0.45,0.82-0.6,1.27c-0.11,0.27,0.11,0.97-0.45,0.75c-0.19-0.07-0.3-0.67-0.34-1.04
	c-0.02-0.27,0.13-0.57,0.17-0.84C374.15,173.38,374.04,172.56,373.21,172.36z M377.59,130.78c0.11-1.02-0.04-2.78,0.83-2.71
	c0.9,0.08,0.9,1.79,0.79,2.93c-0.09,0.9-0.32,2.01-1.2,1.84C377.32,132.7,377.72,131.5,377.59,130.78z M378.13,151.86
	c0-0.77-0.13-1.94,0.66-1.94c0.68,0,0.53,1.29,0.68,1.99c0.15,0.7-0.23,1.59-0.83,1.57C377.74,153.47,378.32,152.41,378.13,151.86z
	 M378.66,144.73c0.53-0.12,0.43,0.4,0.53,0.75c-0.21,0.79-0.32,1.76-1.18,1.94c-0.32,0.08-0.3-0.57-0.3-0.92
	C377.7,145.67,377.81,144.92,378.66,144.73z M377.64,139.51c0.11-0.57-0.32-1.54,0.68-1.49c0.68,0.02,1.07,0.6,0.92,1.44
	c-0.15,0.87-0.39,2.11-1.13,2.06C377.34,141.47,377.85,140.23,377.64,139.51z M381.51,141.15c0.49-0.75,0.9-2.16,1.71-1.84
	c0.77,0.32,0.04,1.59-0.13,2.29c-0.51,2.06-0.28,4.1-0.32,6.14c-0.02,0.67,0.32,1.79-0.79,1.71c-0.88-0.08-0.49-1.04-0.68-1.62
	c0.62-1.69,0.71-3.31,0.06-5C381.18,142.39,381.18,141.67,381.51,141.15z M381.42,132.75c0.17-0.67,0.68-1.22,1.3-1.24
	c0.58-0.03,0.47,0.67,0.49,1.12c0.06,0.99-0.53,0.74-1.07,0.72C381.89,133.22,381.18,133.64,381.42,132.75z M382.25,152.55
	c1.15,0.15,0.13,1.94,0.39,2.93c-0.13,1.04,0.75,2.36-0.39,2.93c-0.9,0.45-1.13-0.42-0.86-1.37c0.13-0.47,0.28-0.92,0.41-1.37
	c0.02-0.1,0.06-0.17,0.09-0.27C382.04,154.37,381.4,152.46,382.25,152.55z M390.76,119.62c0.92,0.08,2.01,0.12,2.16,1.59
	c0.17,1.52-0.66,2.41-1.73,2.98c-1.88,0.99-3.87,0.37-5.82,0.4c-0.13,0-0.36-0.15-0.36-0.22c-0.04-0.45,0.3-0.37,0.53-0.42
	c1.09-0.27,2.16-0.55,3.25-0.77c0.66-0.12,1.22-0.4,1.2-1.24c-0.02-0.8-0.71-0.75-1.15-0.9c-2.59-0.79-4.75,0.25-6.46,3.16
	c-0.38,0.67-0.88,0.45-1.35,0.45c-3.23,0.08-6.48-0.05-9.71,0.25c-1.75,0.17-3.08-0.84-4.51-1.47c-1.58-0.7-1.37-2.78,0.36-3.8
	c1.71-1.02,3.59-1.17,5.49-1.17h1.54C379.75,118.28,385.25,119.2,390.76,119.62z M375.05,130.01c-0.09,0.55,0.19,1.39-0.68,1.54
	c-0.94,0.15-0.83-0.7-0.88-1.34c-0.08-0.95-0.45-1.44-1.3-1.34c-0.32,0.05-0.71,0.82-0.88-0.05c-0.06-0.37,0.02-0.97,0.47-1.24
	C373.34,126.63,375.07,127.87,375.05,130.01z M379.8,111.32c0.83,0.12,0.45,1.64,0.73,2.41c-0.09,0.82,0.06,1.81-0.96,1.74
	c-1.05-0.08-1.07-1.09-1.05-1.96C378.55,112.49,378.9,111.17,379.8,111.32z M378.64,106.77c-0.02-0.72,0.09-1.34,0.77-1.61
	c0.62,0.3,0.64,0.97,0.58,1.49c-0.11,0.75-0.34,1.74-1.11,1.64C378.36,108.24,378.66,107.32,378.64,106.77z M380.48,99.39
	c-0.26,0.97-0.85,2.09-1.8,2.31c-0.6,0.12-0.45-0.87-0.53-1.42c-0.15-0.99-0.04-1.81,1.09-1.79
	C379.73,98.69,380.76,98.32,380.48,99.39z M378.04,93.18c-0.51,0.25-0.43-0.5-0.43-0.77c0.02-1.37,0.88-2.11,1.75-2.66
	c0.49-0.3,0.3,0.5,0.45,0.7C379.67,91.78,379.03,92.7,378.04,93.18z M381.76,92.58c0.06-0.55,0.41-1.02,0.64-1.54
	c0.73,0.2,0.75,0.92,0.81,1.59c0.04,0.67,0.15,1.42-0.56,1.76c-0.32,0.15-0.64,0.25-0.96,0C380.91,93.77,381.7,93.18,381.76,92.58z
	 M381.76,87.39c0.02-0.25,0.21-0.45,0.34-0.67c0.17,0.2,0.47,0.35,0.51,0.57c0.21,1.24,0.34,2.51-0.24,3.7
	C382.04,89.82,381.61,88.65,381.76,87.39z M383.75,102c-0.04,0.17-0.04,0.62-0.21,0.92c-0.28,0.47-0.6,1.09-1,1.27
	c-0.6,0.25-0.39-0.67-0.64-0.97c-0.56-0.6-0.6-1.22,0.02-1.72c0.54-0.42,0.73-1.59,1.54-1.29
	C384.03,100.41,383.73,101.23,383.75,102z M384.24,108.56c0.06,1.34-0.47,2.53-1.48,2.71c-0.9,0.15-0.75-1.27-0.79-1.99
	c-0.11-1.24,0.64-2.09,1.6-2.24C384.39,106.92,384.2,107.94,384.24,108.56z M388.95,88.7c-0.04,1.57,0,2.88-2.03,2.66
	c-2.24-0.25-1.11-2.24-1.39-3.28c-0.34-1.29,0.94-1.42,1.75-1.27C388.16,86.96,389.59,86.71,388.95,88.7z M389.52,77.34
	c1.2,0.27,1.73,1.07,2.27,2.11c0.49,0.94,0.47,1.84-0.51,2.11c-0.6,0.15-1.95,1.59-1.9-0.77c0.02-0.85-0.51-0.85-1.03-0.97
	c-2.37-0.55-3.53,0.15-4.83,2.98c-0.3,0.65-0.92,0.65-1.33,0.55c-3.89-0.99-7.78,0-11.65-0.12c-0.49-0.02-0.98-0.22-1.48-0.35
	c-1.39-0.35-2.05-1.54-2.03-3.01c0.02-1.72,1.33-1.89,2.42-1.99c4.58-0.42,9.17-0.75,13.75-1.12
	C385.31,76.57,387.41,76.87,389.52,77.34z M370.34,89c-0.41-0.07-0.81-0.27-1.07-0.72c-0.28-0.5-0.73-0.97-0.58-1.59
	c0.17-0.7,0.81-0.57,1.28-0.65c0.66-0.12,1.35-0.15,1.67-0.17c3.06-0.12,4.15,1.79,2.78,4.55c-0.53,1.07-0.34,2.06-0.45,3.11
	c-0.02,0.25-0.08,0.5-0.15,0.75c-0.32-0.12-0.24-0.47-0.24-0.7C373.59,91.01,372.67,89.35,370.34,89z M377.53,46.3
	c0.21-0.92-0.43-2.44,1.11-2.39c1.03,0.05,0.9,1.22,0.96,2.06c0.08,1.32-0.71,2.71-1.5,2.71C376.95,48.66,377.83,47.09,377.53,46.3z
	 M383.56,49.26c-0.15,1.07-0.36,2.76-0.98,2.49c-0.81-0.35-1.22-1.94-1.3-3.16c-0.09-1.07,0.88-1.84,1.41-1.76
	C383.9,47,383.05,48.56,383.56,49.26z M383.54,66.81c-0.13,0.67-0.17,1.14-0.32,1.59c-0.19,0.57-0.58,1.09-1.11,1.09
	c-0.71-0.02-0.49-0.84-0.64-1.34c-0.09-0.27-0.06-0.6-0.06-0.87c0.02-1.27,0.39-2.88,1.33-2.88
	C384.09,64.34,382.66,66.23,383.54,66.81z M382.83,58.35c0.54,0.4,0.51,1.02,0.04,1.44c-1.75,1.54-2.42,3.98-3.64,5.94
	c-0.32,0.52-0.49,1.57-1.13,1.37c-0.79-0.25-0.34-1.34-0.49-2.04c-0.04-0.17,0.02-0.4,0.04-0.57c-0.3-3.26,1.9-4.77,3.46-6.71
	C381.78,56.94,382.32,57.96,382.83,58.35z M379.73,70.88c0.06,1.29-0.13,2.46-1.18,2.73c-0.81,0.2-0.73-0.85-0.75-1.47
	c-0.09-1.32,0.79-1.94,1.6-2.26C379.88,69.74,379.58,70.66,379.73,70.88z M381.93,26.56c0.15-0.17,0.45-0.15,0.66-0.22
	c0.19,1.04,0.39,2.06,0.56,3.06c-0.26,0.62,0.06,1.67-0.71,1.74c-0.73,0.07-0.81-0.89-0.88-1.52
	C381.51,28.58,381.16,27.46,381.93,26.56z M389.01,34.2c1.62,0,3.27,0,4.13,2.11c0.73,1.79,0.45,3.08-1.07,3.9
	c-0.71,0.37-1.35,0.89-1.28-0.94c0.04-1.84-1.56-1.94-2.7-1.59c-0.92,0.27-2.78-0.17-2.24,2.19c0.17,0.77,0.19,0.99-0.56,1.04
	c-5.6,0.32-11.14,0.07-16.66-1.32c-1.35-0.32-1.99-0.94-1.54-2.56c0.41-1.59,0.58-3.48,2.65-2.83H389.01z M369.6,44.49
	c-0.77,0.22-0.83,0-0.96-0.5c-0.15-0.57,0.26-0.87,0.64-1.09c0.53-0.3,5.07,0.22,5.43,0.67c0.56,0.65,0.21,1.49,0.3,2.56
	c0.7,1.79-1.65,2.36-1.69,4.15c0,0.3-0.56-0.12-0.62-0.47c-0.09-0.47-0.04-0.97-0.04-1.47C372.67,46.82,370.77,44.11,369.6,44.49z
	 M379.2,20.18c0.04,1.19-0.64,1.71-1.41,2.11c-0.53,0-0.56-0.45-0.49-0.82c0.19-1.02,0.77-1.76,1.56-2.11
	C379.3,19.16,379.17,19.85,379.2,20.18z M379.13,25.45c0.13,1.07-0.26,1.74-0.98,1.94c-0.68,0.17-0.53-0.62-0.51-0.99
	c0.04-0.82,0.32-1.67,1.05-1.86C379.43,24.35,378.85,25.3,379.13,25.45z M377.61,11.18c0.39-0.3,0.83-0.42,1.05,0.22
	c0.28,0.85,1.18,1.62,0.41,2.68c-0.21,0.3-0.49,0.57-0.68,0.87c-0.54,0.85,0.45,2.96-1.11,2.68c-1.01-0.17-0.26-2.14-0.58-3.21
	c-0.11-0.37-0.13-0.77-0.09-0.57C376.29,12.15,376.99,11.7,377.61,11.18z M375.22,8.27c1.03,0.42,1.28,0.72,0.47,1.74
	c-1.26,1.59-2.54,2.91-4,2.26c-1.37-0.2-2.5,0.7-2.82-0.35c-0.19-0.67,0.96-1.57,1.69-1.89C372.08,9.36,373.23,7.45,375.22,8.27z
	 M368.87,6.51c0.47,0.1,1.15-0.05,1.24,0.67c0.04,0.32-0.43,0.85-0.75,1.09c-2.27,1.71-3.7,5.17-7.08,4.6
	c-0.45-0.05-1.07,0.37-1.39-0.2c-0.34-0.67,0.28-1.04,0.6-1.44C363.52,8.77,365.34,5.81,368.87,6.51z M359.27,6.23
	c0.58-0.77,1.78-0.22,2.35,0.4c0.51,0.55-0.34,1.17-0.66,1.64c-0.81,1.27-1.84,2.36-2.61,3.65c-0.88,1.47-2.07,1.57-3.48,1.59
	c-0.39-0.05-1.01,0.27-1.26-0.45c-0.26-0.7,0.36-1.02,0.64-1.47C355.66,9.51,357.75,8.25,359.27,6.23z M353.62,6.66
	c0.39-0.25,0.88-0.15,1.18,0.32c-0.26,0.45-0.36,0.72-0.53,0.92c-1.28,1.69-2.57,3.41-3.87,5.07c-0.47,0.62-1.13,0.85-1.84,0.8
	c-0.83-0.07-1.18-0.67-0.6-1.32C349.78,10.43,351.4,8.12,353.62,6.66z M348.15,6.46c1.11,0.02,1.11,0.6,0.51,1.42
	c-1.35,1.79-2.67,3.58-4.06,5.29c-1.09,1.32-2.63,0.25-3.4,0.8h-1.24c-0.51,0.02-1.15,0.17-1.37-0.42
	c-0.26-0.72,0.47-0.89,0.81-1.24c0.79-0.77,1.52-1.57,2.1-2.56C343.1,7.03,345.52,6.41,348.15,6.46z M335.3,8.12
	c0.49-1.57,1.99-0.32,2.59-0.72c0.9-0.12,1.39-0.2,1.9-0.25c0.49-0.05,0.6,0.3,0.43,0.72c-1.01,2.39-3.34,3.26-4.53,5.47
	c-0.51,0.94-1.56,0.47-2.35,0.62c-0.54,0.1-1.33,0.27-1.58-0.5c-0.24-0.75,0.49-1.19,0.86-1.64C333.55,10.68,334.74,9.86,335.3,8.12
	z M332.09,7.53c0.3-0.05,0.56,0.25,0.45,0.8c-0.32,1.54-4.94,5.87-6.33,5.87c-0.43-0.25-1.13,0.35-1.28-0.4
	c-0.06-0.35,0.3-0.89,0.58-1.24c1.26-1.57,2.86-2.71,3.93-4.6C329.89,7.15,331.19,7.67,332.09,7.53z M323.65,8.35
	c0.62-0.65,1.41-0.7,2.16-0.72c0.58-0.02,0.83,0.42,0.47,0.92c-1.73,2.46-3.93,4.28-6.2,6.04c-0.11,0.07-0.32-0.02-0.49-0.05
	c-0.39-0.15-0.94,0.07-1.15-0.42c-0.21-0.55,0.28-0.85,0.58-1.14C320.55,11.4,322.09,9.89,323.65,8.35z M319.2,7.92
	c0.32-0.12,0.71-0.25,0.9,0.15c0.09,0.15-0.06,0.6-0.23,0.75c-1.95,1.89-3.89,3.75-5.86,5.62c-0.17,0.17-0.47,0.2-0.71,0.27
	c-0.26-0.1-0.53-0.12-0.71-0.3c-0.32-0.35-0.13-0.7,0.13-0.97C314.69,11.3,316.5,8.94,319.2,7.92z M313.13,8.05
	c0.36-0.35,0.83-0.2,1.18,0.15c0.21,0.22,0.15,0.55-0.04,0.77c-1.75,1.86-3.53,3.7-5.3,5.54c-0.15,0.17-0.49,0.1-0.51,0.12
	c-1.18,0.05-0.96-0.7-0.6-1.07C309.55,11.65,311.33,9.84,313.13,8.05z M308.61,7.72c0.62,0.15,0.75,0.55,0.41,0.97
	c-1.9,2.21-3.72,4.55-6.09,6.09c-0.19,0.12-0.49,0.1-0.79,0.15c-0.45-0.15-1.3,0.35-1.2-0.87C301.13,12.2,307.08,7.38,308.61,7.72z
	 M301.84,7.6c0.6,0.05,1.09,0.27,0.56,1.02c-1.6,2.29-3.38,4.37-5.39,6.19c-0.36,0.32-0.77,0.42-1.26,0.42
	c-0.34-0.05-0.81,0.05-1.05-0.47c-0.19-0.42,0.11-0.75,0.32-0.99c1.78-1.91,3.57-3.83,5.37-5.74C300.83,7.58,301.32,7.55,301.84,7.6
	z M294.22,7.77v0.07c0.51,0,1.03-0.07,1.52,0.02c0.68,0.12,0.85,0.6,0.39,1.24c-1.58,2.19-3.66,3.8-5.24,6.04
	c-0.64,0.89-2.12,0.22-3.21,0.27c-0.41,0.02-0.56-0.52-0.3-0.84c1.75-2.29,3.51-4.55,5.34-6.74C292.98,7.53,293.71,7.77,294.22,7.77
	z M286.16,7.58c1.09,0.05,2.31-0.42,2.65,0.32c0.49,1.09-0.81,1.74-1.33,2.56c-0.49,0.8-1.24,1.37-1.73,2.16
	c-1.43,2.36-3.4,3.08-5.73,2.78c-0.56-0.07-1.33,0.3-1.58-0.45c-0.11-0.3,0.43-0.94,0.73-1.39c1.39-1.99,3.31-3.36,4.6-5.52
	C284.39,7,285.54,7.85,286.16,7.58z M277.95,7.1c0.88-0.02,1.95-0.17,2.37,0.65c0.58,1.12-0.68,1.57-1.15,2.26
	c-0.88,1.32-1.86,2.56-2.91,3.73c-1.03,1.17-2.14,2.31-3.85,1.67c-0.79,0-2.09,0.32-2.31-0.35c-0.34-1.07,0.81-1.74,1.5-2.44
	c1.39-1.44,2.78-2.91,4.08-4.42C276.35,7.45,277.05,7.13,277.95,7.1z M272.33,7.18c0.6,0.07,0.21,0.85-0.04,1.14
	c-1.9,2.26-3.81,4.55-5.82,6.69c-0.71,0.75-1.82,0.27-2.67,0.47c-0.47,0-0.9-0.02-1.33,0c-1.07,0.07-1.3-0.62-0.68-1.39
	c2.05-2.46,4.08-5.02,6.35-7.21C269.31,5.76,270.92,7.03,272.33,7.18z M257.85,8.62c1.18-1.94,2.59-2.41,4.38-2.14
	c0.6,0.1,1.5-0.52,1.77,0.5c0.21,0.82-0.47,1.39-0.92,1.99c-0.98,1.24-2.01,2.41-2.89,3.75c-1.33,2.01-2.82,3.43-5.22,2.83
	c-0.79-0.3-2.16,0.7-2.44-0.57c-0.23-1.04,0.79-1.99,1.65-2.71C255.5,11.15,256.96,10.09,257.85,8.62z M250.88,7.75
	c0.53-0.35,1.01-0.89,1.56-1.02c1.03-0.22,2.42-0.97,3.02,0.3c0.49,1.04-0.92,1.62-1.54,2.36c-1.5,1.86-3.55,3.11-4.62,5.44
	c-0.56,1.22-1.45,0.7-2.35,0.82c-0.23-0.02-0.6,0-0.9-0.12c-0.73-0.3-1.9,0.32-2.12-0.42c-0.23-0.89,0.75-1.84,1.37-2.29
	C247.38,11.4,248.83,9.14,250.88,7.75z M242.93,7.2c0.62-1.02,1.88-0.65,3.19-0.5c0.13-0.02,0.56-0.1,0.96-0.1
	c0.64,0.02,1.09,0.3,0.45,1.02c-2.27,2.51-4.79,4.7-6.91,7.41c-0.66,0.84-2.29,0.42-3.46,0.27c-0.54-0.07-0.54-0.6-0.36-1.14
	c0.26-0.87,0.79-1.47,1.35-2.11C239.66,10.31,241.65,9.29,242.93,7.2z M233.24,7.92c0.45-1.39,1.99-0.8,3.02-0.87
	c0.98-0.07,2.59-0.77,2.86-0.02c0.45,1.24-1.18,1.86-1.75,2.88c-1.01,1.74-2.86,2.56-3.29,5.02c-0.19,1.07-1.84-0.07-2.61,0.4
	c-1.41-0.4-3.25,0.42-3.7-0.87c-0.32-0.92,1.65-1.67,2.44-2.68C231.19,10.48,232.64,9.81,233.24,7.92z M228.97,7.58
	c0.79-0.02,1.18-0.12,1.35,0.32c0.17,0.47-0.19,0.75-0.43,0.97c-2.01,1.81-3.96,3.73-5.79,5.79c-1.2,1.34-2.76-0.02-4.15,0.12
	c-0.45,0.05-0.43-0.62-0.13-0.85C222.89,11.55,225.03,7.25,228.97,7.58z M213.57,13.02c1.71-3.63,2.46-4.7,5.86-4.75
	c0.56,0.12,1.45-0.42,1.71,0.57c0.17,0.72-0.62,1.07-1.05,1.52c-1.03,1.04-2.07,2.06-3.06,3.16c-0.73,0.8-1.54,1.14-2.52,1.14
	C213.38,14.71,212.48,15.31,213.57,13.02z M204.72,12.07c1.54-2.83,3.49-3.78,6.22-3.21c1.05,0.22,1.15,0.6,0.43,1.44
	c-1.05,1.24-2.22,2.34-2.95,4c-0.41,0.94-1.54,0.45-2.29,0.6c-0.88-0.25-1.95,0.22-2.4-0.62C203.56,13.89,204.31,12.79,204.72,12.07
	z M201.13,8.52c0.83,0.02,1.97-0.35,2.35,0.52c0.3,0.72-0.75,1.37-1.24,1.96c-0.75,0.89-1.8,1.42-2.18,2.76
	c-0.45,1.54-1.67,0.27-2.54,0.87c-0.39,0-0.88,0.05-1.39,0c-0.73-0.07-0.9-0.72-0.45-1.19c1.45-1.64,2.97-3.16,4.51-4.7
	C200.38,8.52,200.8,8.49,201.13,8.52z M192.47,9.79c0.71-0.87,1.52-1.17,2.52-1.09c0.41,0.07,1.05,0,1.18,0.27
	c0.32,0.67-0.38,0.94-0.68,1.32c-0.92,1.14-1.88,2.24-2.86,3.33c-0.3,0.32-0.64,0.77-1.01,0.82c-0.9,0.17-2.18,0.6-2.61-0.25
	c-0.6-1.14,0.58-1.81,1.33-2.34C191.16,11.3,191.85,10.58,192.47,9.79z M187.29,8.69c0.81,0.42,2.1-0.99,2.5,0.22
	c0.36,1.07-1.09,1.52-1.67,2.31c-1.6,2.19-3.44,3.8-6.16,2.91c-0.92-0.27-1.28-0.82-0.56-1.59C183.1,10.78,184.09,7.45,187.29,8.69z
	 M174.16,12.45c0.53-1.74,3.42-4.03,5.15-4c0.56,0.2,1.48-0.57,1.73,0.47c0.21,0.85-0.64,1.29-1.09,1.81
	c-1.39,1.64-2.61,3.68-5.07,2.81C174.38,13.34,173.91,13.32,174.16,12.45z M165.99,11.65c1.69-2.63,3.81-4.05,6.78-3.45
	c1.15,0.22,1.03,0.62,0.53,1.47c-1.58,2.73-3.55,4.5-6.61,3.78c-0.41-0.07-1.01,0-1.18-0.27C165.18,12.6,165.72,12.1,165.99,11.65z
	 M162.42,8.57c0.71-0.67,1.84-0.82,2.37-0.25c0.79,0.87-0.41,1.49-0.81,1.99c-1.13,1.44-1.41,4.42-4.13,3.31
	c-0.47-0.05-1.26,0.45-1.45-0.4c-0.09-0.35,0.45-0.99,0.79-1.37C160.22,10.73,161.29,9.61,162.42,8.57z M155.39,8.3
	c0.88-1.42,2.16-0.72,3.29-0.65c0.41,0.02,0.45,0.45,0.3,0.89c-0.49,1.57-4.7,5.15-6.07,5.15c-0.53-0.07-1.28,0.42-1.58-0.42
	c-0.3-0.87,0.56-1.09,0.94-1.52C153.34,10.61,154.53,9.69,155.39,8.3z M148.12,7.53c0.04-0.94,1.37-0.07,1.82-0.4
	c0.39,0,0.56-0.02,0.73,0c0.64,0.15,1.6-0.25,1.84,0.62c0.21,0.8-0.62,1.29-1.11,1.81c-1.05,1.17-2.12,2.31-3.14,3.5
	c-0.51,0.6-1.11,0.97-1.82,0.99c-0.66,0.02-1.56,0.45-1.93-0.27c-0.56-1.04,0.56-1.42,0.98-2.09
	C146.37,10.33,148.01,9.74,148.12,7.53z M138.73,8.79c-0.26-3.5,1.9-2.11,3.4-2.31c1.03,0.62,2.93-0.72,3.36,0.77
	c0.39,1.42-1.35,2.51-2.16,3.73c-1.82,2.66-3.93,4.18-7.01,3.23c-1.01-0.3-1.24-0.5-0.49-1.39c0.58-0.72,1.22-1.39,1.78-2.14
	C138.03,10.09,138.78,9.39,138.73,8.79z M134.99,6.33c0.56,0.12,1.37-0.5,1.67,0.2c0.32,0.8-0.09,1.74-0.6,2.41
	c-0.9,1.19-1.84,2.34-2.76,3.48c-1.15,1.44-2.4,2.61-3.89,1.89c-0.53,0-0.73,0.05-0.88,0c-0.71-0.25-1.75,0.4-2.07-0.5
	c-0.39-0.97,0.68-1.39,1.2-1.99c1.13-1.32,2.33-2.58,3.44-3.95C132.19,6.53,133.43,5.96,134.99,6.33z M127.44,6.21
	c0.92-0.05,1.24,0.52,0.54,1.47c-1.45,1.91-2.95,3.8-4.34,5.79c-0.96,1.37-2.16,0.8-3.31,0.87c-0.75-0.07-1.9,0.57-2.16-0.17
	c-0.36-0.97,0.88-1.42,1.41-2.09c1.2-1.49,2.69-2.73,3.74-4.37C124.47,5.89,125.99,6.31,127.44,6.21z M116.22,6.61
	c0.73-0.77,1.77-0.42,2.52-0.7c0.79,0.25,1.67-0.3,1.99,0.62c0.28,0.8-0.56,1.07-0.9,1.59c-1.58,2.46-3.87,4.08-5.67,6.24
	c-0.58,0.7-1.45,0.4-2.2,0.42c-0.51,0.02-1.09-0.1-1.37-0.62c-0.39-0.75,0.15-1.32,0.54-1.79C112.8,10.41,114.49,8.47,116.22,6.61z
	 M110.85,6.28c0.56,0,1.33-0.37,1.6,0.4c0.28,0.72-0.38,1.22-0.79,1.69c-1.33,1.52-2.67,3.01-4,4.52c-0.83,0.97-1.84,1.34-3.01,1.39
	c-0.34-0.12-0.88,0.22-1.07-0.42c-0.13-0.42,0.17-0.75,0.39-1.02c1.65-1.99,3.27-3.98,4.94-5.94
	C109.46,6.26,110.17,6.28,110.85,6.28z M100.8,7.05c1.2-1.32,3.1-0.32,4.68-0.45c0.39-0.02,0.26,0.65,0.02,0.92
	c-1.99,2.31-3.85,4.82-6.31,6.49c-0.47,0.32-1.15,0.2-1.69,0.27c-0.64-0.42-1.58,0.35-1.88-0.57c-0.26-0.82,0.45-1.44,0.88-2.04
	C97.76,9.96,99.39,8.62,100.8,7.05z M96.16,6.85c0.38-0.02,0.92-0.25,1.11,0.37c0.17,0.55-0.3,0.85-0.6,1.17
	c-1.39,1.57-2.87,2.98-3.93,4.95c-0.77,1.44-2.37,0.57-3.29,0.92h-0.53c-0.9-0.1-2.14,0.47-2.54-0.65
	c-0.41-1.09,0.83-1.74,1.33-2.61C89.73,7.4,92.89,7,96.16,6.85z M85.88,7.72c0.53,0.05,1.58-0.05,0.86,0.97
	c-1.35,1.89-2.89,3.63-4.49,5.22c-0.62,0.62-1.65,0.22-2.57,0.2c-0.77-0.32-2.05,0.7-2.46-0.6c-0.26-0.89,0.98-1.47,1.41-2.31
	C80.32,7.95,82.97,7.5,85.88,7.72z M66.59,10.09c0.53-0.47,1.13-0.82,1.69-1.22c0.17,0.92-0.51,1.34-0.88,1.91
	c-0.43,0.7-0.38,1.27,0.15,1.79c0.53,0.5,1.11,0.52,1.6,0c0.3-0.32,0.56-0.75,0.73-1.19c1.5-3.5,4.23-3.45,6.97-3.16
	C78.01,8.35,77.3,9.09,77,9.61c-2.25,3.9-2.52,4.03-7.85,3.88c-1.37,0-2.72,0.07-4.08-0.02c-1.01-0.05-1.18-0.7-0.47-1.52
	C65.24,11.3,65.91,10.68,66.59,10.09z M59.21,11.35c1.07-1.19,1.82-2.91,3.51-3.18c0.49-0.07,1.22-0.1,1.45,0.22
	c0.41,0.57-0.32,0.94-0.6,1.39c-0.96,1.59-1.88,3.28-3.72,3.45c-0.53-0.3-1.24,0.07-1.43-0.57C58.19,11.97,58.89,11.73,59.21,11.35z
	 M50.7,11.8c1.54-1.59,2.61-4.1,5.43-3.6h1.3c0.53,0.02,0.77,0.27,0.56,0.92c-0.75,2.34-4.96,4.6-6.88,3.73
	C50.62,12.62,50.28,12.25,50.7,11.8z M45.14,10.98c1.2-1.34,1.75-3.7,4.06-3.31c0.98,0.17,1.58,0.37,0.64,1.47
	c-1.2,1.39-1.95,3.45-3.66,3.8c-0.75-0.12-1.37,0.12-1.63-0.5C44.25,11.8,44.82,11.35,45.14,10.98z M43.92,7.33
	c0.88,0.77,0.02,1.42-0.38,1.86c-1.26,1.44-1.95,3.8-4.17,3.7c-0.38,0.02-0.77,0.12-0.94-0.27c-0.19-0.42,0.15-0.7,0.38-0.99
	c1.09-1.37,2.18-2.71,3.27-4.08C42.66,6.85,43.39,6.85,43.92,7.33z M38.92,7c0.24,0.3,0.21,0.57,0.06,0.77
	c-1.6,2.11-3.01,4.52-5.43,5.54c-0.3,0.12-0.66,0.02-0.98,0.02c-0.49-0.22-1.2,0.25-1.43-0.37c-0.28-0.72,0.3-1.29,0.66-1.76
	c0.92-1.27,1.97-2.36,2.65-3.9C34.92,6.23,38.26,6.18,38.92,7z M28.12,7.05c0.41-0.7,0.88-0.8,1.45-0.89
	c0.86-0.15,1.9-0.37,2.37,0.45c0.47,0.85-0.53,1.49-0.94,2.16c-0.68,1.12-1.52,2.11-2.22,3.23c-0.73,1.17-1.6,1.72-2.91,1.39
	c-0.45-0.2-1.24,0.35-1.48-0.5c-0.17-0.57,0.43-0.99,0.73-1.44C26.11,9.96,27.2,8.59,28.12,7.05z M22.48,7.87
	c0.34-0.52,0.88-0.94,1.41-1.24c0.45-0.22,1.13-0.4,1.43,0.1c0.32,0.52-0.11,1.09-0.45,1.52c-1.48,1.86-2.57,4.13-4.53,5.57
	c-1.26,0.92-1.69,2.61-1.5,4.45c0.06,0.52,0.36,1.52-0.71,1.47c-0.94-0.4-1.97-0.5-2.97-0.75c-1.22-0.27-0.19-1.12-0.02-1.39
	c1.5-2.26,2.97-4.55,4.68-6.56C20.73,9.99,21.71,9.07,22.48,7.87z M18.27,116.22c-0.94-0.12,0.02-1.71-0.43-2.56
	c-0.04-0.07-0.02-0.2-0.06-0.3c-0.36-1.14-0.26-2.31-0.06-3.46c0-0.05,0.38-0.1,0.43,0c0.66,1.12,0.79,2.36,0.47,3.68
	C18.37,114.48,18.86,116.29,18.27,116.22z M17.22,105.78c-0.43-0.08-0.98-0.03-0.83-0.72c0.21-1.02,0.75-1.89,1.33-2.71
	c0.43,0.55,0.45,1.24,0.6,1.91C18.18,105.01,18.29,105.93,17.22,105.78z M13.93,14.24c1.5-2.49,2.63-5.32,5.24-6.64
	c0.21-0.1,0.41-0.27,0.51,0.12c-0.09,0.2-0.17,0.37-0.26,0.55c-1.33,2.29-3.21,4.05-4.34,6.51c-0.17,0.35-0.71,0.62-1.11,0.25
	C13.84,14.93,13.82,14.44,13.93,14.24z M10.95,38.37c0.56-0.7,0.79-1.71,1.63-2.14c0.06,0.17,0.13,0.35,0.19,0.55
	c-0.36,0.94-0.73,1.94-1.54,2.56c-0.11,0.07-0.36,0.12-0.43,0.05C10.5,38.99,10.74,38.64,10.95,38.37z M10.38,46.05
	c0.17-0.2,0.41-0.3,0.62-0.47c0.04,0.27,0.19,0.62,0.11,0.8c-1.07,1.96-2.18,3.9-3.29,5.84c-0.09,0.15-0.26,0.22-0.38,0.35
	c-0.41-0.2-0.38-0.62-0.24-0.92C8.17,49.73,9.03,47.69,10.38,46.05z M9.18,42.3c0.24,0.05,0.38,0.32,0.36,0.37
	c-0.79,2.09-1.82,3.63-2.93,5.07c-0.11,0.12-0.3,0.15-0.43,0.22c-0.02-0.17-0.11-0.37-0.04-0.52c0.53-1.81,0.94-3.75,2.37-4.97
	C8.67,42.32,8.96,42.25,9.18,42.3z M7.58,36.83c0.02-0.05,0.15-0.07,0.24-0.1c0.34,0.05,0.75,0.2,0.64,0.67
	c-0.32,1.39-1.26,2.29-2.1,3.26c-0.13,0.17-0.38-0.02-0.32-0.22C6.51,39.22,7.04,38.02,7.58,36.83z M5.59,62.01
	c0.53-1.54,0.92-3.28,1.8-4.52c1.67-2.41,3.06-4.97,4.26-7.73c0.28-0.65,0.73-1.12,1.39-1.17c0.38-0.02,0.64,0.2,0.64,0.6
	c-0.56,1.09-1.07,2.11-1.6,3.11c-1.86,3.45-3.49,7.06-5.64,10.27c-0.24,0.35-0.34,1.04-0.86,0.82C5.46,63.33,5.46,62.43,5.59,62.01z
	 M7.92,64.82c1.63-3.65,3.91-6.91,5.52-10.61c0.19-0.42,0.51-0.8,0.81-1.12c0.17-0.2,0.45-0.42,0.62-0.37
	c0.51,0.1,0.21,0.6,0.24,0.94c0.09,1.12-0.17,2.14-0.73,3.08c-2.72,4.65-5.05,9.57-7.51,14.39c-0.28,0.57-0.73,1.02-1.09,1.54
	C5.29,72,5.33,71.2,5.44,70.33C4.95,67.77,7.1,66.66,7.92,64.82z M15.32,61.98c-0.24,0.5-0.45,1.04-0.75,1.52
	c-2.44,3.8-4.68,7.78-6.84,11.81c-0.17,0.32-0.34,0.82-0.71,0.6c-0.43-0.25-0.06-0.72,0.06-1.02c2.03-4.55,4.51-8.77,6.93-13.05
	c0.21-0.4,0.51-0.87,1-0.72C15.17,61.16,15.21,61.64,15.32,61.98z M5.67,87.26c-0.09-0.02-0.04-0.72-0.09-1.12
	c-0.06-1.69,0.66-3.03,1.35-4.42c2.07-4.25,4.02-8.62,6.78-12.38c0.26-0.35,0.51-0.99,0.96-0.7c0.43,0.27,0.26,0.94,0.09,1.37
	c-0.38,0.99-0.86,1.94-1.35,2.86c-2.31,4.5-4.64,9-6.97,13.5C6.25,86.74,6.21,87.41,5.67,87.26z M12.24,99.96
	c-0.13,0.27-0.49,0.45-0.62,0.15c-0.13-0.3-0.02-0.75-0.02-1.59c0.17-1.64,1.73-2.81,2.48-4.55c0.13-0.3,0.45-0.37,0.62-0.17
	c0.15,0.15,0.21,0.57,0.15,0.77C14.25,96.56,13.09,98.17,12.24,99.96z M14.25,103.37c-0.04,1.02-0.56,1.74-0.98,2.44
	c-0.32,0.52-0.32,1.89-1.15,1.32c-0.77-0.52,0.32-1.07,0.47-1.66c0.17-0.75,0.47-1.49,0.77-2.19c0.11-0.22,0.36-0.37,0.56-0.55
	C14.03,102.97,14.16,103.19,14.25,103.37z M11.53,93.15c-0.21-0.17-0.28-0.67-0.3-1.02c-0.09-2.78,1.48-4.7,2.69-6.79
	c0.15-0.25,0.53-0.35,0.62-0.12c0.17,0.42,0.19,0.94,0.28,1.54c-0.43,2.16-1.24,4.18-2.5,5.94C12.13,93,11.87,93.42,11.53,93.15z
	 M6.23,92.95c-0.38-1.57,0.96-2.16,1.35-3.33c1.37-4.18,3.59-7.83,5.69-11.53c0.3-0.52,0.62-1.62,1.22-1.27
	c0.68,0.4,0.3,1.49,0.04,2.11c-0.77,1.79-1.69,3.45-2.5,5.19c-1.3,2.78-2.54,5.59-3.87,8.35c-0.32,0.67-0.86,1.19-1.24,1.76
	C6.29,93.95,6.33,93.4,6.23,92.95z M8.22,99.61c-0.68-0.2-0.51-1.09-0.51-1.74c0-0.2-0.04-0.4,0.02-0.6
	c0.28-1.02,0.92-2.54,1.5-2.34c1,0.37,0.43,1.76,0.24,2.76c-0.04,0.2-0.13,0.37-0.19,0.55C8.99,98.82,8.99,99.81,8.22,99.61z
	 M7.06,129.27c0.36-1.17,0.43-2.61,1.77-2.98c1.41-0.37,2.8-0.77,4.23-1.04c1.5-0.27,3.04-0.42,4.55-0.62
	c0.83-0.12,1.33,0.22,1.28,0.99c0.06,1.86-1.37,2.78-2.76,1.99c-0.56-0.32-1.22-0.95-1.28,0.25c-0.09,1.82-1.26,1.94-2.27,2.26
	c-1.65,0.55-3.34,0.82-5.02,0.37C7.1,130.34,6.93,129.71,7.06,129.27z M9.26,187.95c2.74-0.62,5.5-1.22,8.23-1.81
	c0.19-0.05,0.6,0.12,0.64,0.27c0.17,0.6-0.19,0.94-0.62,1.07c-2.65,0.75-5.3,1.44-7.68,2.06c-0.79,0.03-1.41,0.12-1.43-0.72
	C8.39,188.3,8.84,188.05,9.26,187.95z M8.2,184.52c-0.26-1.24,0.45-1.71,1.15-1.89c2.31-0.55,4.64-0.92,6.63-1.29
	c0.98-0.1,1.56-0.08,1.77,0.79c0.24,1.02-0.28,1.42-1.03,1.62c-2.22,0.62-4.45,1.19-6.65,1.91C9.05,185.99,8.47,185.79,8.2,184.52z
	 M16.3,148.88c-0.98-0.08-2.12,0.4-2.14-1.37c-0.02-1.74,1.13-2.71,2.93-2.81c1.48-0.07,1.43,0.92,1.41,2.06
	C18.5,148.63,17.67,149.22,16.3,148.88z M16.19,142.27c-0.92,0.12-1.01-0.65-0.86-1.32c0.19-0.97-0.06-2.41,1.11-2.61
	c0.92-0.15,0.92,0.84,0.75,2.26C17.15,140.92,17.45,142.12,16.19,142.27z M18.1,133.22c-0.21,0.1-0.41,0.35-0.58,0.57
	c-0.28,0.32-0.36,1.12-0.81,0.92c-0.6-0.25-0.15-1.07-0.34-1.49c0.02-0.4,0.02-0.7,0.04-0.99c0.15-1.14,0.9-1.59,1.71-1.96
	c0.38-0.17,0.73-0.07,0.71,0.42C18.8,131.6,19.27,132.75,18.1,133.22z M6.44,149.12c-0.96-4.65-0.15-9.37-0.06-14.07
	c0.04-1.91,0.86-2.61,2.39-2.68c1.45-0.08,2.91-0.15,4.32-0.42c1.18-0.22,1.84-0.02,1.71,1.54c-0.11,1.14,0.17,2.56-1.52,2.26
	c-0.58-0.1-1.2-0.1-1.41-0.12c-1.3,0.12-2.25,0.2-3.19,0.3c-0.58,0.05-1.39-0.05-1.24,0.99c0.13,1.02,0.83,1.12,1.58,0.74
	c1.09-0.52,2.18-0.17,3.27,0c0.79,0.15,2.07,0.05,1.82,1.42c-0.26,1.39,0.15,3.35-1.63,3.95c-0.66,0.22-1.33,0.37-1.99,0.52
	c-0.49,0.1-1.13,0.03-1.07,0.87c0.06,0.62,0.53,0.99,1.09,1.04c0.34,0.03,0.68-0.05,1-0.08c1.01-0.1,1.73,0.15,1.48,1.62
	c-0.21,1.17,0.09,2.73-1.75,2.41c-0.71-0.12-1.9-1.02-2.12,0.32c-0.13,0.84,1.2,1.17,1.97,1.54c0.45,0.2,1.24-0.07,1.28,0.52
	c0.02,0.57-0.75,0.65-1.24,0.82c-0.09,0.02-0.17,0.05-0.26,0.08c-1.2,0.05-2.46,0.45-3.55,0.1C5.76,152.26,6.7,150.34,6.44,149.12z
	 M6.95,156.61c-0.36-1.02-0.43-1.74,1-1.79c2.8-0.12,5.6-0.57,8.4-0.9c1.07-0.22,1.56,0.25,1.54,1.59
	c-0.02,1.14-0.24,1.54-1.37,1.86c-2.65,0.72-5.35,0.92-7.98,1.59C6.4,159.52,7.28,157.53,6.95,156.61z M15.87,174.1
	c-2.14,0.57-4.28,1.17-6.41,1.69c-0.43,0.1-1.07,0.55-1.22-0.37c-0.13-0.82-0.38-1.86,0.56-2.31c2.35-1.14,4.9-1.39,7.4-1.91
	c0.81-0.2,0.79,0.72,0.9,1.39C17.2,173.66,16.58,173.91,15.87,174.1z M8.02,161.93c0.86-0.99,5.77-2.21,6.86-1.64
	c0.75,0.37,0.81,1.19,0.92,1.96c0.13,0.9-0.43,1.29-1.01,1.44c-1.99,0.47-4.02,0.82-6.2,1.27c-0.36,0.02-0.86-0.1-0.96-0.85
	C7.49,163.34,7.47,162.57,8.02,161.93z M8.84,166.52c1.24-0.5,2.5-0.4,3.76-0.35c0.86,0,1.69,0.03,2.54,0
	c0.56-0.02,1.01,0.08,1.11,0.85c0.09,0.72,0.13,1.39-0.62,1.69c-2.01,0.8-4,1.59-6.14,1.89c-1.28,0.2-1.58-0.79-1.82-1.91
	C7.4,167.47,7.87,166.9,8.84,166.52z M8.94,178.18c2.39-0.55,4.77-1.14,7.16-1.69c0.49-0.12,1.05-0.2,1.24,0.57
	c0.19,0.77,0.02,1.42-0.71,1.59c-2.46,0.67-4.94,1.29-7.4,1.91c-0.83,0.22-1.3-0.22-1.41-1.17C7.75,178.5,8.32,178.33,8.94,178.18z
	 M7.98,194.73c-0.02-1.12-0.3-2.51,1.11-2.86c2.72-0.67,5.45-1.27,8.19-1.91c0.58-0.05,1.03,0.08,1.09,0.87
	c0.04,0.62-0.04,1.24-0.62,1.47c-2.89,1.12-5.77,2.19-8.68,3.26C8.52,195.75,7.98,195.46,7.98,194.73z M8.77,201.64
	c-0.45-3.68-0.51-3.58,2.46-4.9c1.48-0.65,3.01-0.6,4.49-1.09c2.31-0.77,2.35-0.65,2.25,2.51c0.45,2.16-0.79,2.91-2.48,3.36
	c-1.58,0.42-3.14,0.94-4.68,1.52C9.58,203.53,8.99,203.38,8.77,201.64z M11.32,207.98c-0.96,0.2-1.03-0.65-1.28-1.39
	c-0.32-0.95,0.11-1.32,0.73-1.54c2.1-0.77,4.21-1.49,6.39-1.82c0.53-0.02,1.05-0.02,1.2,0.75c0.13,0.65-0.02,1.22-0.53,1.52
	C15.76,206.61,13.58,207.48,11.32,207.98z M12.02,209.82c0.26-0.95,1.39-0.95,2.2-1.07c0.62-0.08,1.13-0.47,1.69-0.57
	c1.09-0.22,2.59-1.29,2.59,1.49c0,1.19,2.44,1.19,1.41,2.93c0,0.87,0.02,1.47,0,2.06c-0.04,0.65-0.56,0.77-0.94,0.8
	c-0.75,0.05-0.45-0.6-0.36-1.02c0.13-0.6,0.24-1.17,0.04-1.74c-0.15-0.45-0.21-0.99-0.75-1.04c-0.51-0.05-0.71,0.37-0.96,0.79
	c-1.35,2.36-1.37,2.34-3.06,0.32c-0.17-0.22-0.36-0.42-0.51-0.67C12.88,211.34,11.74,210.82,12.02,209.82z M13.8,427.26
	c1.26-1.12,2.33-2.56,3.55-3.75c0.34-0.35,0.94-1.04,1.28-0.57c0.41,0.55,0.56,1.54,0.15,2.24c-0.9,1.54-1.86,3.03-2.87,4.5
	c-0.43,0.6-0.98,1.09-1.5,1.59c-0.45,0.42-0.86,1.34-1.39,1.09c-0.75-0.35-0.06-1.39-0.13-1.62
	C12.43,428.95,12.86,428.1,13.8,427.26z M18.74,359.25c-0.62,3.28-2.76,5.32-4.83,7.41c-0.26,0.27-0.58,0.47-0.88,0.07
	c-0.49-0.67,0.02-1.29,0.11-2.04c-0.43-1.24,0.04-2.04,0.9-2.98c0.96-1.04,1.56-2.58,2.46-3.75c0.58-0.77,1.09-2.41,1.95-1.96
	C19.36,356.52,18.93,358.18,18.74,359.25z M18.46,411.15c-1.37,1.86-2.78,3.68-4.19,5.49c-0.32,0.4-0.83,0.99-1.26,0.47
	c-0.38-0.45-0.58-1.29-0.21-1.91c0.58-0.97,1.22-1.89,1.92-2.73c0.81-0.99,1.69-1.91,2.57-2.86c0.24-0.27,0.53-0.47,0.83-0.72
	C18.74,409.56,19.1,410.3,18.46,411.15z M18.31,386.96c0.32,1.17-0.21,2.09-0.77,2.98c-0.56,0.87-1.13,1.77-1.84,2.46
	c-0.88,0.87-1.26,2.46-2.54,2.63c-0.53,0.08-0.32-3.93,0.51-5.22c0.88-1.34,1.92-2.54,2.95-3.7c0.41-0.47,0.88-1.34,1.43-1.07
	C18.65,385.35,18.24,386.29,18.31,386.96z M15.47,383.88c-0.53,0.7-1.09,2.34-1.95,1.87c-0.9-0.5-0.71-2.06-0.6-2.88
	c-0.21-4.3,2.61-5.77,4.58-7.85c0.62-0.65,0.71,0.27,0.83,0.82C19.1,379.36,17.18,381.65,15.47,383.88z M18.42,367.01
	c0.02,0.2,0,0.4,0,0.6c-0.02,2.64-3.04,7.76-4.94,8.4c-0.66,0.22-0.66-0.35-0.71-0.82c-0.11-2.01,0.11-3.9,1.41-5.44
	c0.94-1.12,1.82-2.31,2.72-3.48c0.32-0.42,0.53-1.19,1.11-1.02C18.8,365.52,18.31,366.41,18.42,367.01z M13.35,398.95
	c1.13-1.47,2.22-2.98,3.38-4.43c0.36-0.45,0.66-1.42,1.35-1.09c0.62,0.32,0.17,1.24,0.43,2.21c-0.45,2.11-2.25,3.51-3.25,5.44
	c-0.04,0.08-0.13,0.15-0.19,0.2c-0.83,0.35-1.41,2.29-2.1,1.44C12.32,401.93,12.43,400.11,13.35,398.95z M12.98,355.08
	c0-0.72,0.13-1.42,0.56-1.91c1.41-1.69,2.89-3.33,4.34-4.97c0.24-0.27,0.58-0.62,0.86-0.37c0.21,0.17,0.26,0.7,0.24,1.07
	c0.02,0.82-0.19,1.54-0.66,2.19c-1.24,1.74-2.44,3.53-3.68,5.29c-0.32,0.45-0.73,0.79-1.09,1.19c-0.13-0.55-0.26-1.07-0.38-1.62
	C13.09,355.67,13.03,355.37,12.98,355.08z M14.22,349.08c-0.47,0.15-0.64-0.17-0.71-0.52c-0.19-1.14-0.62-2.39,0.09-3.43
	c1.41-2.09,2.89-4.13,4.36-6.16c0.62-0.87,0.79-0.17,0.9,0.42c0.11,0.57,0.17,1.17,0.24,1.54
	C19.06,343.02,15.61,348.64,14.22,349.08z M13.86,328.95c-0.13-2.16,1.77-3.31,3.08-4.87c0.49-0.6,1.09-1.94,1.71-1.37
	c0.66,0.62,0.41,2.01-0.24,2.96c-1.03,1.57-2.01,3.18-3.29,4.47c-0.3,0.3-0.45,1.07-0.9,0.87
	C13.67,330.79,13.97,330.02,13.86,328.95z M14.03,335.54c0.83-2.41,2.87-3.88,4.19-5.97c0.38-0.62,0.73-0.2,0.75,0.42
	c0.02,0.5-0.04,0.99-0.09,1.57c0.28,1.54-0.19,2.81-1.2,3.95c-0.56,0.62-0.96,1.39-1.48,2.06c-0.88,1.12-1.41,2.64-2.74,3.21
	C13.35,338.97,13.48,337.13,14.03,335.54z M14.7,323.19c-0.62,0.22-0.75-0.32-0.77-0.79c-0.02-0.99-0.28-2.19,0.11-2.93
	c1.2-2.36,2.65-4.52,4.32-6.49c0.38-0.47,0.81-0.32,0.88,0.35c0.06,0.57-0.02,1.17-0.06,1.76C19.19,317.22,16.17,322.64,14.7,323.19
	z M15.14,313.79c-0.56,0.35-0.47-0.1-0.51-0.5c-0.09-0.7-0.19-1.37-0.3-2.04c-0.02-0.82,0.15-1.59,0.58-2.24
	c1.2-1.69,2.39-3.36,3.64-5c0.3-0.4,0.71-0.67,0.81,0.25C19.61,306.09,16.6,312.9,15.14,313.79z M18.99,299.18
	c-0.86,1.96-1.99,3.68-3.38,5.2c-0.34,0.37-0.62,1.14-1.18,0.7c-0.21-0.17-0.13-0.92-0.17-1.39c-0.13-1.22,0.38-2.14,1.03-2.96
	c0.75-0.97,1.5-1.91,2.31-2.76c0.53-0.55,0.71-2.09,1.52-1.57C19.61,296.71,19.4,298.23,18.99,299.18z M19.36,290.4
	c-1.15,2.54-2.65,4.82-4.26,7.03c-0.19,0.25-0.41,0.72-0.79,0.27c-0.32-0.4-0.32-0.89-0.3-1.39c0.11-1.39,0.38-2.73,1.22-3.83
	c0.86-1.12,1.67-2.24,2.57-3.31c0.45-0.55,0.73-1.89,1.35-1.47C19.85,288.19,19.7,289.63,19.36,290.4z M19.06,243.6
	c0.36,1.84-0.66,3.5-1.82,5.15c-0.21,0.32-0.45,0.62-0.83,0.47s-0.45-0.6-0.49-0.97c-0.28-2.61,0.32-4.9,1.9-6.79
	c0.28-0.32,0.43-1.02,0.92-0.82c0.45,0.2,0.3,0.85,0.32,1.32C19.08,242.33,19.06,242.73,19.06,243.6z M19.46,261.79
	c0.06,0.37,0.04,0.77,0.09,1.39c0.02,3.03-2.1,5.02-3.38,7.51c-0.06,0.12-0.34,0.2-0.43,0.12c-0.38-0.27-0.15-0.7-0.15-1.07
	c0.04-3.08,0.71-5.92,2.57-8.25c0.28-0.35,0.38-0.97,0.88-0.89C19.63,260.7,19.4,261.37,19.46,261.79z M19.14,253.59
	c0.06,2.43-1.41,4.1-2.27,6.09c-0.11,0.27-0.34,0.5-0.6,0.3c-0.17-0.12-0.32-0.47-0.32-0.7c0.13-2.54,0.11-5.12,1.65-7.21
	c0.3-0.42,0.64-1.14,1.11-0.95c0.49,0.2,0.3,1.04,0.41,1.59C19.19,252.97,19.14,253.29,19.14,253.59z M17.84,237.71
	c-0.21,0.3-0.36,0.67-0.6,0.95c-0.49,0.6-0.75,1.89-1.58,1.54c-0.62-0.25,0.02-1.44-0.3-2.09c-0.11-2.41,0.51-3.21,1.88-2.51
	C18.14,236.04,18.67,236.59,17.84,237.71z M18.54,270.94c0.13-0.17,0.51-0.27,0.66-0.17c0.41,0.3,0.32,0.85,0.34,1.12
	c-0.02,3.31-1.56,5.49-3.36,7.51c-0.51,0.57-0.92,0.52-0.92-0.4C15.32,275.74,16.73,273.23,18.54,270.94z M18.76,280.11
	c0.43-0.2,0.68-0.07,0.71,0.37c0.02,0.87,0.28,1.89-0.3,2.56c-1.15,1.34-1.8,3.11-2.84,4.52c-0.36,0.5-0.66,1.47-1.26,1.22
	c-0.51-0.22-0.47-1.19-0.45-1.89C14.63,285.31,17.41,280.78,18.76,280.11z M13.2,406.95c1.26-1.62,2.59-3.13,3.89-4.67
	c0.32-0.37,0.62-1.17,1.18-0.67c0.26,0.22,0.19,0.92,0.32,1.57c-0.47,2.59-2.35,4.13-3.89,5.89c-0.45,0.5-1.11,2.01-1.88,1.14
	C12.04,409.28,12.47,407.89,13.2,406.95z M12.73,421.96c1.52-2.14,3.23-4.05,5.09-5.77c0.79-0.72,1.01-0.07,1.11,0.75
	c0.17,1.32-0.81,1.84-1.3,2.73c-1.05,1.86-2.76,2.91-3.91,4.62c-0.15,0.22-0.34,0.37-0.58,0.62c-0.19-0.25-0.45-0.42-0.49-0.65
	C12.49,423.48,12.24,422.68,12.73,421.96z M13.56,435.68c1.22-1.64,2.54-3.16,4.04-4.5c0.43-0.4,0.64-1.37,1.39-0.87
	c0.49,0.32,0.26,1.09,0.34,1.64c-0.06,0.8-0.09,1.57-0.58,2.24c-1.45,1.94-2.87,3.93-4.3,5.89c-0.34,0.47-0.73,0.97-1.28,0.72
	c-0.47-0.2-0.21-0.87-0.36-1.32C12.28,437.99,12.75,436.77,13.56,435.68z M12.77,446.17c-0.02-0.87,0.43-1.39,0.86-2.04
	c1.22-1.89,3.12-3.06,3.98-5.32c0.19-0.52,0.64-1.07,1.18-0.94c0.92,0.22,0.28,1.14,0.38,1.37c0.11,2.26-0.47,3.73-1.9,4.85
	c-1.11,0.87-2.05,2.04-3.1,3.03c-0.32,0.3-0.71,0.75-1.11,0.42C12.66,447.26,12.79,446.67,12.77,446.17z M13.31,454.62
	c-0.21-1.09-0.36-2.24,0.32-3.11c1.48-1.89,2.82-3.9,4.58-5.47c0.3-0.25,0.62-0.52,0.9-0.2c0.38,0.45,0.17,1.12,0.26,1.69
	c0.02,0.7,0,1.42-0.49,1.91c-1.71,1.67-3.23,3.5-4.55,5.57c-0.15,0.22-0.38,0.5-0.58,0.5C13.2,455.49,13.37,454.97,13.31,454.62z
	 M14.78,458.02c0.88-1.07,1.45-2.43,2.54-3.26c0.53-0.4,0.88-1.59,1.56-1.12c0.36,0.25,0.28,1.42,0.38,2.19
	c0.11,0.82,0.09,1.52-0.43,2.21c-1.39,1.84-2.87,3.63-3.91,5.77c-0.41,0.82-0.75,0.6-0.9-0.25
	C13.67,461.6,13.39,459.72,14.78,458.02z M14.25,468.99c0.56-2.98,2.87-4.52,4.17-6.91c0.28-0.52,0.79-0.3,0.9,0.32
	c0.13,0.67,0.11,1.37,0.17,2.51c0.21,1.02-0.47,1.99-1.35,2.86c-0.77,0.77-1.52,1.54-2.27,2.31c-0.45,0.45-0.73,1.62-1.2,1.32
	C13.99,470.97,14.08,469.86,14.25,468.99z M14.59,476.94c-0.41-3.53,2.27-4.72,3.87-6.71c0.53-0.65,0.9,0.07,0.92,0.72
	c0.09,2.14,0.41,4.38-1.56,5.84c-0.41,0.3-0.64,0.95-1.07,1.27c-0.62,0.45-1.09,1.64-1.84,1.29
	C13.97,478.93,14.7,477.78,14.59,476.94z M16.41,510.87c-0.11,0.22-0.41,0.42-0.62,0.42c-0.53,0-0.3-0.55-0.36-0.9
	c-0.66-3.75,1.37-6.31,2.95-9.05c0.19-0.35,0.49-0.62,0.83-0.35c0.15,0.12,0.17,0.52,0.17,0.79c0,0.4-0.06,0.77-0.13,1.39
	C19.72,506.29,17.71,508.41,16.41,510.87z M15.21,492.87c-0.04-1.42,2.35-5.94,3.4-6.44c0.6-0.27,0.73,0.15,0.73,0.72
	c0,1.74,0.24,3.55-1.11,4.92c-0.36,0.37-0.6,0.95-0.94,1.39c-0.53,0.7-1.03,2.01-1.8,1.74C14.78,494.96,15.34,493.62,15.21,492.87z
	 M18.72,482.33c-0.66,0.9-1.2,1.91-1.92,2.76c-0.49,0.57-0.56,2.04-1.48,1.62c-0.75-0.32-0.32-1.59-0.47-2.34
	c0-1.84,2.25-4.65,3.81-5c0.71-0.15,0.66,0.35,0.73,0.82C19.53,481.04,19.19,481.71,18.72,482.33z M17.73,532.34
	c0.62-0.35,0.73,0.05,0.81,0.57c0.09,0.67,0.15,1.37,0.19,1.66c-0.02,1.24-2.67,5.42-3.34,5.59c-0.75,0.2-0.51-0.52-0.58-0.9
	C14.35,536.77,15.79,533.44,17.73,532.34z M14.74,547.11c0.09-2.04,2.16-5.92,3.34-6.21c0.28-0.08,0.47,0.07,0.62,0.35
	c0.58,1.19-0.51,6.24-1.65,7.46c-0.26,0.27-0.53,0.5-0.81,0.72c-0.41,0.32-0.81,0.97-1.33,0.55c-0.24-0.2-0.19-0.9-0.24-1.37
	c-0.04-0.4,0-0.8,0-0.8C14.72,547.3,14.74,547.21,14.74,547.11z M16.38,530.4c-0.32,0.37-0.79,0.92-1.18,0.03
	c-0.75-1.72-0.06-5.52,1.3-6.74c0.56-0.5,1.11-1.57,1.84-1.22c0.79,0.4,0.43,1.57,0.47,2.98C19.19,527.45,17.75,528.91,16.38,530.4z
	 M16.06,520.78c-0.58,0.4-0.75,0-0.77-0.57c-0.02-0.7,0-1.39,0-2.21c-0.45-2.68,1.73-3.7,2.82-5.44c0.3-0.5,0.66-0.32,0.81,0.4
	C19.31,515.12,17.69,519.69,16.06,520.78z M18.63,498.64c-0.81,0.35-1.28,1.19-1.71,2.06c-0.28,0.55-0.88,1.29-1.41,0.92
	c-0.47-0.32-0.32-1.24-0.17-1.91c0.45-2.04,2.27-2.73,3.21-4.3c0.36-0.62,0.88-0.05,0.88,1.37
	C19.46,497.57,19.48,498.27,18.63,498.64z M14.91,559.98c-1.3-3.13,0.17-7.71,2.93-9.17c0.64-0.32,0.94-0.05,1.03,0.7
	c0.06,0.77,0.13,1.57,0.17,2.36c0.53,3.03-1.54,4.62-2.82,6.61C15.72,561.27,15.21,560.73,14.91,559.98z M16.13,569.67
	c-1.11-2.58-0.21-6.07,1.82-7.68c1.09-0.87,1.37-0.5,1.62,0.82c0.34,1.84,0.17,4.05,2.27,4.8c-1.69-0.12-2.52,1.42-3.46,2.59
	C17.28,571.59,16.66,570.89,16.13,569.67z M23.91,573.43c-1.18,1.02-2.2,3.08-3.93,0.7c-0.66-0.9-0.81-1.47,0.06-2.11
	c0.96-0.7,1.5-2.34,3.04-1.79c0.9,0.4,2.37-0.37,2.67,0.94C25.92,572.11,24.64,572.81,23.91,573.43z M31.78,573.63
	c-1.37,2.29-3.01,3.7-5.54,2.56c-0.34-0.15-0.92-0.03-0.64-0.85c0.47-1.32,4.02-4.05,5.41-4.08c0.6,0.1,1.52-0.5,1.84,0.27
	C33.23,572.51,32.19,572.93,31.78,573.63z M35.2,576.68c-0.53-0.22-1.43,0.37-1.73-0.55c-0.28-0.85,0.47-1.37,0.92-1.94
	c0.45-0.57,0.94-1.12,1.37-1.71c1.26-1.79,3.34-2.51,5.09-1.79c0.38,0.15,0.56,0.32,0.45,0.82C41,573.08,36.72,576.73,35.2,576.68z
	 M45.14,575.09c-0.92,1.49-2.18,2.06-3.72,1.91c-0.38,0-0.92,0.35-1.09-0.27c-0.15-0.52,0.38-0.82,0.64-1.14
	c1.03-1.22,1.9-2.76,3.81-1.91C45.68,574.07,45.57,574.4,45.14,575.09z M46.19,571.89c-0.71-0.1-1.92,0.32-1.88-0.82
	c0.04-1.04,1.22-0.67,1.97-0.7c0.62,0.25,1.84-0.5,1.82,0.77C48.09,572.18,46.94,571.96,46.19,571.89z M51.49,574.99
	c-0.32,1.57-1.62,1.84-3.01,1.81c-0.28-0.07-1.13,0.27-0.9-0.65c0.32-1.39,1.3-2.04,2.57-1.84
	C50.66,574.4,51.69,574.03,51.49,574.99z M52.88,571.71c-0.62,0-1.11,0.02-1.6,0c-0.26-0.03-0.53-0.22-0.45-0.55
	c0.04-0.17,0.34-0.37,0.53-0.4c0.49-0.02,1.03-0.1,1.48,0.1c0.51,0.25,1.54,0.1,1.45,0.75C54.19,572.26,53.29,571.59,52.88,571.71z
	 M55.41,576.98c-0.49,0.03-1.2-0.12-1.03-0.92c0.24-0.97,1.01-1.24,1.82-1.14c0.43,0.22,1.3-0.2,1.2,0.62
	C57.22,576.63,56.28,576.96,55.41,576.98z M61.29,576.83c-0.36-0.15-1.07,0.15-1.01-0.45c0.13-1.12,1.11-0.99,1.82-1.12
	c0.38-0.07,1.07,0.02,1,0.55C62.98,577.06,61.93,576.56,61.29,576.83z M68.62,576.91c-0.49-0.27-1.77,0.02-1.69-0.5
	c0.19-1.19,1.39-0.65,2.16-0.8c0.36-0.07,0.94-0.17,0.9,0.55C69.93,577.08,69.39,577.23,68.62,576.91z M71.51,573.23
	c-0.56-0.12-1.56,0.35-1.58-0.62c-0.02-0.77,0.94-0.37,1.43-0.52c0.47,0.22,1.35-0.55,1.35,0.57
	C72.73,573.35,71.98,573.3,71.51,573.23z M74.57,577.18c-0.45-0.22-1.43,0.4-1.35-0.7c0.09-1.02,1.03-0.82,1.69-0.79
	c0.56,0,1.48-0.25,1.39,0.72C76.21,577.38,75.27,577.18,74.57,577.18z M77.94,573.3c-0.41-0.08-1.13,0-1.05-0.42
	c0.19-1.12,1.13-0.92,1.86-0.94c0.38,0,1.09-0.08,1.03,0.4C79.59,573.5,78.63,573.18,77.94,573.3z M81.3,577.33
	c-0.53-0.2-1.58,0.12-1.48-0.47c0.26-1.42,1.52-1.19,2.48-1.27c0.45-0.05,1.3-0.12,1.2,0.57C83.29,577.58,82.18,577.33,81.3,577.33z
	 M85.04,573.38c-0.49-0.07-1.5,0.25-1.35-0.67c0.15-0.94,1.18-0.92,1.95-0.89c0.45,0.08,1.26-0.22,1.2,0.52
	C86.73,573.43,85.79,573.5,85.04,573.38z M88.12,577.43c-0.47,0.07-1.15,0.15-1.26-0.5c-0.13-0.84,0.64-1.02,1.15-1.19
	c0.45-0.15,0.96-0.22,1.28,0.35C89.17,576.91,88.74,577.33,88.12,577.43z M90.28,572.86c0.3-1.14,1.13-1.81,2.22-1.86
	c0.38-0.03,1.13-0.03,1.05,0.4c-0.28,1.19-1.11,1.84-2.29,1.81C90.92,573.18,90.17,573.28,90.28,572.86z M93.77,577.73
	c-0.41-0.67-1.97,0.17-1.6-1.04c0.53-1.81,2.2-1.84,3.68-1.81c0.38,0,0.92-0.15,0.9,0.6C96.72,576.31,94.69,577.85,93.77,577.73z
	 M97.08,573.1c-0.11-0.1-0.26-0.3-0.24-0.42c0.13-0.92,0.92-1.09,1.39-1.64c0.56-0.62,1.26-0.52,1.95-0.5c0.06,0,0.15,0.3,0.21,0.45
	C100.31,572.06,97.81,573.65,97.08,573.1z M103.77,577.41c-1.26,0.99-3.1,0.52-4.68,0.27c-0.81-0.12-0.53-0.77-0.19-1.29
	c0.79-1.19,1.86-1.59,3.14-1.49c0.51,0.05,1.18,0.03,1.33-0.6c0.23-0.97-0.62-0.57-0.98-0.77c-0.45-0.25-0.77-0.62-0.47-1.12
	c0.49-0.82,0.43-2.26,1.71-2.29c1.11-0.03,2.2,0,3.31,0c1.28,0.2,3.29-0.77,3.7,0.4c0.43,1.22-1.71,1.76-2.48,2.91
	C106.98,575.19,105.27,576.21,103.77,577.41z M111.56,577.83h-0.51c-1.05-0.1-2.57,0.5-2.95-0.65c-0.28-0.8,1.24-1.64,2.03-2.36
	c1.37-1.27,3.16-1.96,3.7-4.25c0.13-0.55,0.64-0.57,1.07-0.57c1.86,0.05,3.74,0.12,5.6,0.17c0.45,0.03,0.9,0.15,1.07,0.65
	c0.19,0.52-0.13,0.95-0.47,1.24c-2.07,1.72-3.87,3.83-6.07,5.39C113.84,578.3,112.71,577.7,111.56,577.83z M126.12,576.21
	c-1.75,1.67-3.66,1.84-5.73,1.62c-0.32-0.02-0.73,0.2-0.9-0.25c-0.19-0.47,0.23-0.67,0.47-0.89c1.09-0.94,1.88-2.29,3.12-3.01
	c0.51-0.3,1.07-0.8,1.28-1.37c0.86-2.31,2.46-2.44,4.23-2.21c0.81,0.12,1.97-0.42,2.33,0.52c0.45,1.14-0.86,1.49-1.41,2.11
	C128.47,573.92,127.29,575.07,126.12,576.21z M130.76,577.65c-0.43,0.02-0.86,0.08-1.26,0.05c-0.3-0.03-0.73,0.17-0.86-0.35
	c-0.11-0.45,0.21-0.7,0.47-0.94c1.95-1.89,3.87-3.8,5.79-5.69c1.2-1.19,2.61-0.57,3.89-0.52c0.88,0.02,0.45,0.77,0.09,1.19
	c-1.52,1.71-3.06,3.4-4.58,5.12C133.3,577.65,132,577.55,130.76,577.65z M143.48,575.79c-0.98,1.09-1.82,2.83-3.23,2.21
	c-0.98-0.1-1.58-0.12-2.16-0.25c-0.66-0.15-0.77-0.57-0.45-1.27c1.01-2.24,3.06-3.4,5.17-2.88
	C144.51,574.03,144.7,574.45,143.48,575.79z M144.72,571.81c-0.6-0.15-1.58,0.6-1.6-0.55c-0.02-0.92,0.96-0.9,1.62-0.82
	c0.79,0.08,2.14-0.25,2.07,0.8C146.77,572.43,145.43,571.54,144.72,571.81z M151.35,574.5c-0.36,1.27-2.8,3.63-3.89,3.73
	c-0.17,0.03-0.34,0-0.51,0c-0.56-0.02-1.3,0.42-1.58-0.37c-0.26-0.72,0.49-1.14,0.81-1.66c0.19-0.32,0.49-0.52,0.73-0.79
	c1.13-1.34,2.52-1.94,4.13-1.74C151.46,573.68,151.48,574.05,151.35,574.5z M160.11,574.94c-1.2,1.89-3.74,3.36-5.82,3.38
	c-0.43,0-0.85,0.03-1.26,0c-0.41-0.05-0.94,0.12-1.11-0.45c-0.15-0.55,0.41-0.77,0.64-1.14c1.71-2.71,4.04-3.65,6.82-3.28
	c0.41,0.05,0.94-0.1,1.09,0.45C160.56,574.2,160.31,574.65,160.11,574.94z M167.58,577.93c-1.03,0.05-2.03,0.03-3.27,0.03
	c-0.81-0.4-2.78,1.09-2.78-0.37c0-1.42,1.73-2.83,3.27-3.23c0.96-0.25,2.03-0.1,3.04-0.03c0.88,0.05,1.9-0.57,2.55,0.55
	C170.59,575.22,168.18,577.88,167.58,577.93z M170.08,571.76c-0.9-0.03-2.86,0.17-2.76-0.52c0.24-1.44,1.82-0.47,2.82-0.65
	c1.24-0.2,3.51-0.65,3.42,0.4C173.37,572.76,171.41,571.34,170.08,571.76z M176.52,575.19c-0.45,1.32-1.39,2.26-2.74,2.21
	c-0.47,0-1.24,0.17-1.09-0.7c0.26-1.59,1.33-2.16,2.52-2.19C175.81,574.65,176.73,574.6,176.52,575.19z M177.52,571.29
	c-0.04-0.84,0.71-0.7,1.13-0.67c0.71,0.05,1.97-0.65,2.01,0.07c0.09,1.19-1.15,1.02-1.95,1.17
	C178.27,571.76,177.56,572.16,177.52,571.29z M185.54,575.89c-1.11,1.32-2.52,1.44-3.76,1.04c-0.3,0.1-0.39,0.12-0.47,0.12
	c-0.75-0.05-1.92,0.79-2.12-0.4c-0.15-0.99,0.94-1.91,1.86-2.06c1.41-0.22,2.86-0.27,4.28-0.15
	C186.37,574.55,185.92,575.44,185.54,575.89z M187.06,571.91c-0.75-0.22-2.18,0.32-2.22-0.4c-0.06-1.49,1.37-1.39,2.31-1.59
	c0.81-0.17,1.69-0.15,2.52-0.12c0.47,0,1.22-0.12,1.22,0.62c0,0.4-0.62,0.92-1.05,1.19C189,572.14,188.02,571.79,187.06,571.91z
	 M195.18,575.61c-1.09,1.22-2.48,0.97-3.98,0.99c-0.6-0.22-1.92,0.57-2.03-0.42c-0.13-1.22,1.13-1.72,2.14-2.01
	c1.09-0.32,2.18-0.27,3.27-0.32c0.47-0.03,1.13-0.22,1.22,0.57C195.85,574.79,195.46,575.32,195.18,575.61z M197.15,571.29
	c-0.81-0.05-1.92,0.35-1.97-0.27c-0.09-1.09,0.98-1.04,1.73-1.12c1.11-0.1,3.16-0.8,3.14,0.1
	C200.01,572.01,198.03,570.72,197.15,571.29z M202.54,575.42c-1.2,1.19-2.59,1.29-4.04,0.8c-0.3-0.1-0.32-0.55-0.11-0.7
	c1.07-0.9,2.07-2.09,3.91-1.74c0.19,0.05,0.98-0.37,1.2,0.45C203.65,574.84,202.9,575.04,202.54,575.42z M205.77,571.22
	c-0.6-0.12-1.69,0-1.62-0.75c0.09-0.94,1.16-0.89,1.92-0.92c0.43,0.3,1.43-0.47,1.33,0.65
	C207.33,570.99,206.49,571.36,205.77,571.22z M208.91,576.11c-0.34,0.03-0.68,0-0.94,0c-0.64-0.22-1.67,0.5-1.73-0.6
	c-0.04-0.77,0.75-1.47,1.54-1.69c0.41-0.1,0.85-0.17,1.26-0.15c0.79,0.07,2.18-0.5,2.22,0.4
	C211.33,575.39,210.11,576.06,208.91,576.11z M212.78,571.07c-0.23,0.02-0.49-0.03-0.75-0.05c-0.34-0.03-0.83-0.1-0.83-0.45
	c0-0.6,0.49-0.7,0.94-0.7c0.26,0,0.49,0.07,0.75,0.1c0.64,0.32,1.86-0.4,1.88,0.52C214.79,571.22,213.53,571.04,212.78,571.07z
	 M218.17,575.96c-0.66,0.12-1.35,0.12-2.03,0.17c-0.66-0.22-1.8,0.52-1.88-0.62c-0.04-0.75,0.77-1.71,1.73-1.89
	c0.66-0.12,1.35-0.32,2.01-0.35c0.83-0.02,2.18-0.82,2.33,0.55C220.43,574.79,219.26,575.74,218.17,575.96z M226.16,576.01
	c-0.26-0.03-0.49-0.05-1.22-0.15c-0.32-0.05-1.67,0.5-1.71-0.57c-0.02-1.12,1.22-1.69,2.33-1.74c0.26,0,0.51-0.05,0.75-0.05
	c0.81,0,2.18-0.42,2.22,0.55C228.58,575.34,227.45,576.14,226.16,576.01z M236.51,574.62c-0.81,1.02-1.6,2.19-2.97,1.96
	c-0.85-0.12-2.27,0.37-2.37-0.85c-0.09-1.04,1.13-1.84,2.16-2.11c0.49-0.12,1.01-0.12,1.11-0.12c0.83,0,1.26-0.02,1.67,0
	C236.81,573.58,237.05,573.95,236.51,574.62z M214.45,566.89c-7.14-0.57-14.22-0.25-21.32,0c-12.27,0.45-24.57,1.14-36.84,1.17
	c-5.28,0-10.56-0.35-15.87-0.6c-4-0.2-8.02-0.25-12.02-0.08c-6.93,0.27-13.83-0.47-20.74-0.07c-6.8,0.37-13.6,0.87-20.42,1.29
	c-9.41,0.57-18.84,1.14-28.29-0.12c-8.64-1.17-17.36-1.19-26.06-0.27c-2.2,0.22-4.38,0.15-6.56-0.72c-1.39-0.55-2.97-0.84-4.43,0.12
	c0.79-1.96,0.9-4.03,0.47-6.07c-1.09-5.37-1.15-10.81-1.22-16.26c-0.11-11.09-0.19-22.15,0.09-33.23c0.09-3.65,0.45-7.31,0.51-10.94
	c0.09-6.31,0.02-12.63,0.04-18.94c0.02-8.13,0.09-16.23,0.06-24.36c0-4.82,0.34-9.67-0.15-14.47c-0.19-2.01,0.06-3.95,0.13-5.92
	c0.26-10.12-0.28-20.23-0.51-30.32c-0.24-9.59-0.21-19.19-0.58-28.78c-0.11-2.81-0.51-5.94,0.9-8.65c0.13-0.22,0.26-0.67,0.17-0.82
	c-1.33-1.91-0.53-4.03-0.47-6.04c0.41-13.17-0.02-26.37,0.3-39.54c0.3-12.58,0.36-25.18,0.53-37.76
	c0.15-11.36,0.04-22.72-0.21-34.08c-0.19-7.78-0.24-15.56,0.41-23.36c0.86-10.24,0.53-20.58,0.21-30.87
	c-0.3-9.47-0.49-18.94-0.75-28.41c-0.19-7.33-0.3-14.66-0.64-21.97c-0.3-6.69,0.34-13.42,0.28-20.11
	c-0.09-8.2,0.53-16.43-0.49-24.61c-0.81-6.51-0.73-13.02-0.36-19.54c0.71-12.35,1.33-24.68,1.39-37.06
	c0.02-3.65,0.24-7.33,0.38-10.99c0.04-1.32-0.19-2.56-0.36-3.83c-0.38-3.11-1.18-6.24,0.45-9.2c0.19-0.37,0.09-0.72,0.02-1.12
	c-0.45-3.08-0.17-3.68,2.29-3.63c4.77,0.1,9.49-0.55,14.24-0.67c7.65-0.22,15.31-0.07,22.96,0.5c8.06,0.62,16.14,0.94,24.23,0.67
	c6.93-0.25,13.81,0.4,20.72,0.52c6.84,0.12,13.64-0.37,20.46-0.35c6.39,0.02,12.81,0.27,19.18-0.27c6.82-0.6,13.64-0.4,20.46-0.65
	c4.72-0.17,9.39,0.25,14.03,0.94c4.79,0.72,9.56,0.17,14.33,0.3c2.54,0.07,5.09,0.15,7.63,0.15c10.16,0,20.29,0.37,30.45,0.6
	c10.14,0.22,20.27,0.12,30.41,0.15c11.33,0.05,22.67-0.42,33.98-0.57c12.27-0.15,24.55-0.6,36.82-0.94
	c5.13-0.15,10.26,0.15,15.4,0.02c4.4-0.12,8.79-0.97,13.17-1.07c3.23-0.07,6.42-0.52,9.67-0.37c1.65,0.1,1.65,0.77,1.65,1.99
	c0,3.95,0.49,7.9,0.36,11.88c-0.06,1.81-0.73,2.09-1.84,1.94c-1.35-0.17-2.67-0.6-4.02-0.87c-2.76-0.55-5.9,2.06-6.59,5.49
	c-0.81,3.93,0.39,6.41,3.68,7.66c0.15,0.05,0.47,0.07,0.47,0.07c-0.11,2.29,1.54,3.13,2.57,4.55c1.28,1.79,2.05,3.98,4.36,4.7
	c1.07,0.35,1.75,1.99,1.75,3.6c0.04,5.12-0.17,10.24,0.26,15.36c0.13,1.62-0.41,2.56-2.05,2.56c-1.54,0-2.99-0.02-4.53-0.4
	c-5.32-1.32-8,2.81-6.86,8.35c0.32,1.57,1.05,2.68,2.46,3.08c1.15,0.32,2.35,0.47,1.97,2.58c-0.17,0.94,1.11,0.97,1.62,1.64
	c1.39,1.76,1.9,4.15,3.4,5.82c0.36,0.4,0.73,1.14,1.13,1.04c2.46-0.62,2.46,1.99,2.74,3.28c0.71,3.26,0.43,6.71,0.49,10.09
	c0,0.2-0.04,0.4-0.08,0.6c-0.45,1.49,0.85,3.65-0.43,4.45c-1.22,0.77-2.97,0.47-4.49,0.45c-2.05-0.02-4.06-0.1-6.09,0.35
	c-1.52,0.35-2.33,1.24-2.46,3.11c-0.21,3.46-0.43,6.86,2.95,8.62c0.34,0.17,0.53,0.47,0.62,0.87c0.68,2.91,2.52,4.4,4.62,5.97
	c1.39,1.04,2.27,2.88,4.19,3.18c0.77,0.12,0.53,1.37,0.56,2.11c0.17,4.35,0.3,8.7,0.43,13.05c0,0.2-0.02,0.4-0.02,0.6
	c0.06,1.86,1.45,4.42-0.56,5.37c-1.86,0.87-4.17,1.52-6.24-0.6c-1.45-1.49-3.25-0.47-4.73,0.45c-1.84,1.17-2.59,3.41-2.24,5.54
	c0.47,3.01,0.79,6.41,4.13,7.48c1.11,0.35,0.88,1.54,0.83,2.51c-0.04,1.24,0.45,2.14,1.5,1.59c1.41-0.77,1.37,0.05,1.39,1.19
	c0.02,1.74,0.49,2.26,2.05,1.39c1.6-0.9,4.32,1.19,4.3,3.3c-0.04,5.15,1.37,10.27,0.11,15.39c-0.24,0.94,0.11,1.89,0.28,2.51
	c0.75,2.59-0.62,2.49-1.95,2.41c-1.18-0.05-2.42-0.1-3.53-0.57c-4.98-2.06-8.1,1.91-9.47,5.77c-0.47,1.34,1.24,5.82,2.67,6.21
	c1.41,0.4,1.9,0.97,1.65,2.56c-0.11,0.62,0.13,1.24,0.73,1.37c0.85,0.17,0.92-0.7,1.05-1.34c0.64-3.13,0.64-3.13,3.23-3.03
	c0.77,0.03,1.52,0.22,2.29,0.25c2.82,0.12,3.53,1.02,3.31,4.27c-0.02,0.35,0.15,0.9-0.34,0.97c-3.38,0.57,0.09,2.46-0.51,3.58
	c1.26,0.92,0.96,2.44,0.96,3.78c0,3.98-0.06,7.93-0.09,11.91c0,1.19-0.13,2.46,1.24,2.81c0.26,0.07,0.45,0.2,0.34,0.57
	c-0.13,0.35-0.41,0.32-0.66,0.3c-3.78-0.4-7.42,0.67-11.1,1.49c-1.2,0.27-2.01,0.82-2.72,1.91c-2.09,3.21-2.14,5.52-0.15,8.85
	c0.18,0.3,0.43,0.62,0.62,0.93c1.56,0.15,3.08,0.52,4.53,1.21c0.11-0.21,0.3-0.35,0.58-0.38c1.97-0.15,3.91-0.22,5.88-0.37
	c0.79-0.05,0.66,0.52,0.79,1.14c0.26,1.49,0.28,3.08-0.11,4.42c-0.53,1.91-0.32,3.58,0.02,5.42c0.53,2.96-0.26,5.92-0.36,8.87
	c-0.09,2.88-0.41,5.74-0.21,8.62c0.13,2.11-0.45,3.46-2.52,3.33c-1.62-0.1-3.08,0.37-4.81-0.85c-1.86-1.29-4.9-0.42-5.84,2.73
	c-0.68,2.34-1.13,4.57-0.19,6.91c0.15,0.35,0.17,0.97,0.38,1.07c2.5,1.19,2.5,4,2.97,6.41c0.32,1.61,2.1,1.84,2.22,3.6
	c0.04,0.45,0.71,0.37,1.09,0.03c0.37-0.35,0.53-0.71,0.31-1.09c1.57,1.8,3.33,3.19,5.55,3.87c0.88,0.27,1.3,1.54,1.28,2.68
	c-0.06,5.02-0.15,10.04-0.23,15.06c-0.02,0.65-0.32,1.32-0.88,1.24c-1.86-0.22-3.93,0.75-5.5-1.29c-0.64-0.85-1.35-0.92-2.29-0.6
	c-2.54,0.85-4.53,2.51-5.26,5.44c-0.62,2.49,1.67,6.91,3.91,8.13c1.13,0.6,1.52,1.52,1.45,2.81c-0.06,1.39,0.21,2.39,1.62,2.34
	c1.07-0.05,0.77,1.07,1.09,1.64c0.28,0.47,0.66,1.02,1.24,0.72c0.39-0.2,0.6-0.7,0.24-1.22c1.05,0.25,0.94,1.14,0.83,2.06
	c-0.11,0.82-0.09,1.69,0.81,1.86c0.6,0.12,1.2-0.12,1.33-1.02c0.17-1.42,0.26-0.32,0.64-0.07c1.62,1.04,1.6,2.54,1.22,4.28
	c-0.81,3.68-0.6,7.43-0.47,11.18c0.06,1.59,0.11,3.21-0.11,4.75c-0.26,1.86-1.84,2.39-3.21,1.22c-2.24-1.94-5.11-2.24-7.06-0.8
	c-2.01,1.52-3.29,5.17-2.82,7.98c0.81,4.95,0.86,5.02,4.96,5.07c0.83,0,1.33,0.05,1.26,1.19c-0.21,3.03,1.99,3.78,3.57,5.07
	c0.49,0.4,1.18,0.4,1.63-0.27c0.51-0.74,0.79-1.67,0.09-2.41c-0.79-0.85-1.24-2.11-2.42-2.51c-0.41-0.15-0.88-0.72-0.64-1.42
	c0.19-0.57,0.73-0.4,1.11-0.45c4.04-0.4,4.55,0.42,3.23,4.92c-0.19,0.65-0.43,1.47-0.24,2.01c1.45,4.03,0.58,8.23,0.71,12.35
	c0.09,3.18,0.3,6.31,0.62,9.47c0.13,1.42-0.3,2.04-1.56,1.91c-1.37-0.12-2.76-0.03-4.08-0.27c-3.74-0.72-6.69,0.62-8.85,4.28
	c-1.28,2.16-0.17,7.46,2.18,8.58c1.9,0.89,3.06,3.01,5.15,3.53c0.58,0.15,1.15,0.95,1.8,0.4c0.6-0.5,0.32-1.29,0.11-1.91
	c-0.64-1.91,0.07-2.51,1.63-2.46c0.85,0.02,1.71-0.12,2.57-0.12c0.73,0,1.09,0.35,0.94,1.29c-0.58,3.8-0.04,7.58,0.17,11.36
	c0.3,5.17-0.43,10.27-0.49,15.41c-0.04,3.88-0.66,4.42-3.98,3.55c-0.41-0.1-0.83-0.25-1.2-0.5c-4.53-3.08-8.53-0.7-9.13,5.42
	c-0.23,2.41,1.84,5.74,4.21,6.16c2.42,0.45,3.83,2.54,5.37,4.2c0.94,1.02,1.52,1.94,2.89,1.64c1.24-0.27,1.88,0.3,1.88,1.89
	c0.02,2.96,0.24,5.89,0.19,8.85c-0.04,4.05-0.26,8.1-0.36,12.15c-0.02,1.14-0.32,2.14-1.35,2.11c-1.84-0.05-3.66,0.07-5.43-1.09
	c-4.41-2.88-6.63-0.42-6.97,4.25c-0.43,5.94,1.24,8.77,6.16,10.32c0.88,0.27,0.94,0.5,0.58,1.29c-0.34,0.77-0.92,1.74,0.3,2.11
	c1.2,0.37,1.07-0.89,1.28-1.69c0.11-0.37,0.17-0.77,0.28-1.14c0.11-0.37,0.21-0.87,0.64-0.72c0.41,0.15,0.32,0.62,0.19,0.99
	c-0.3,1.02-1.45,2.51,0.11,2.93c1.48,0.4,0.88-1.69,1.26-2.63c0.36-0.85-0.11-2.16,0.58-2.73c0.56-0.45,1.54-0.6,2.14,0.12
	c0.58,0.7,0.3,1.69,0.3,2.56c0,0.25-0.17,0.25-0.36,0.32c-1.54,0.5-2.14,2.01-0.92,3.43c1.37,1.59,1.45,3.33,1.3,5.15
	c-0.45,5.32,0.15,10.59,0.08,15.91c-0.04,3.38,0,3.38-2.99,3.51c-1.99,0.07-3.91,0.7-5.73-1.27c-1.22-1.29-3.51-0.2-5.2,1.79
	c-2.57,3.03-2.44,6.76,0.3,9.52c1.56,1.57,2.8,3.98,5.41,2.68c0.45-0.22,0.94,0,0.79,0.7c-0.68,3.11,2.03,2.78,3.1,3.58
	c1.84,1.37,2.72,2.06,2.46,4.47c-0.11,0.97-0.23,1.96-0.28,2.93c-0.04,0.84-0.32,1.22-1.09,1.24c-5.47,0.15-10.73,2.06-16.21,2.39
	c-3.59,0.2-7.12,0.32-10.65-0.55c-1.01-0.25-2.14,0.35-3.21,0.35c-7.08-0.03-14.13-0.7-21.21-0.95c-7.25-0.25-14.52-0.15-21.79-0.27
	c-6.99-0.1-13.96-0.32-20.96-0.45c-13.04-0.25-26.09-0.57-39.13-0.02C231,567.69,222.7,567.56,214.45,566.89z M370.07,551.53
	c0.02-1.12,0.79-0.67,1.39-0.82c1.01,0.84,3.27-0.67,3.21,2.39c-0.02,1.07-0.41,1.64-1.3,1.74
	C372.85,554.89,370.05,552.15,370.07,551.53z M241.37,576.46c-0.32,0.07-0.66,0-1.01,0c-0.56,0-1.37,0.37-1.56-0.4
	c-0.21-0.84,0.53-1.29,1.15-1.64c0.36-0.22,0.73-0.57,1.13-0.62c1.03-0.15,2.93-0.57,2.91,0.07
	C243.96,575.19,242.69,576.19,241.37,576.46z M251.7,576.66c-1.69,0.03-3.36-0.12-5.05-0.3c-0.73-0.08-0.41-0.57-0.19-1.02
	c0.9-2.01,2.52-2.01,4.13-2.14c0.34-0.02,0.68,0.03,0.88,0.05c0.23,0,0.32-0.03,0.39,0c0.81,0.3,2.37-0.7,2.35,0.57
	C254.15,574.94,253.19,576.63,251.7,576.66z M254.82,570.69v-0.12c-0.39,0.02-0.81,0.05-1.24,0.02c-0.23,0-0.49-0.05-0.75-0.1
	c0.19-0.12,0.36-0.32,0.58-0.37c1.07-0.17,2.14-0.32,3.23-0.47c0.32-0.05,0.81-0.05,0.83,0.35c0.04,0.65-0.47,0.67-0.9,0.7
	C255.99,570.72,255.39,570.69,254.82,570.69z M262.15,574.42c-0.3,0.99-2.54,2.66-3.57,2.66c-0.85,0.1-2.05,0.22-2.24-0.72
	c-0.19-0.97,0.75-1.81,1.54-2.44c1.35-1.04,2.74-0.67,4.13-0.2C262.32,573.83,262.24,574.12,262.15,574.42z M262.43,570.99
	c-0.3-0.07-0.77-0.07-0.75-0.57c0.02-0.52,0.49-0.35,0.77-0.37c0.41-0.02,0.83-0.07,1.26,0c0.53,0.1,1.56-0.22,1.56,0.3
	c0,0.99-1,0.65-1.58,0.84C263.24,571.14,262.84,571.12,262.43,570.99z M266.21,576.81c-0.73,0.05-1.75,0.9-2.12,0.08
	c-0.45-0.99,0.73-1.59,1.24-2.29c0.81-1.09,1.86-0.6,2.84-0.37c0.26,0.05,0.41,0.3,0.41,0.67
	C268.03,575.84,267.35,576.73,266.21,576.81z M269.34,571.39c0-0.77,0.66-1.09,1.22-1.02c0.49,0.05,1.41-0.15,1.3,0.77
	c-0.09,0.75-0.98,0.47-1.41,0.67C269.96,571.81,269.34,571.91,269.34,571.39z M277.7,575.42c-0.86,1.47-1.93,1.89-4.6,1.74
	c-0.66-0.5-2.12,0.92-2.2-0.6c-0.04-0.87,1.16-2.14,2.35-2.29c1.33-0.17,2.67-0.27,4-0.25C278.15,574.05,278.15,574.65,277.7,575.42
	z M277.97,571.91c-0.75-0.27-2.18,0.35-2.16-0.57c0.02-1.32,1.41-0.67,2.22-0.85c0.08-0.03,0.17,0,0.26,0.05
	c0.77,0.52,2.44-0.32,2.35,0.6C280.45,572.51,278.91,571.71,277.97,571.91z M281.61,577.28c-0.55-0.2-1.84-0.03-1.62-0.72
	c0.43-1.27,1.33-2.59,2.84-2.39c0.51,0.07,1.26-0.42,1.48,0.57C284.52,575.64,282.74,577.28,281.61,577.28z M283.75,571.36
	c0.11-1.44,1.39-0.22,1.95-0.72c0.66,0.03,1.62-0.45,1.62,0.37c0,1.24-1.13,0.87-1.82,0.89
	C284.86,571.94,283.68,572.21,283.75,571.36z M291.72,574.47c-0.58,1.19-1.2,2.39-2.46,2.71c-0.58,0.15-1.18,0.12-1.54,0.15
	c-0.66-0.1-1.3,0.52-1.54-0.27c-0.17-0.6,0.43-0.97,0.77-1.37c0.41-0.5,0.79-1.09,1.3-1.37c0.98-0.57,2.03-0.9,3.17-0.52
	C291.72,573.9,291.83,574.27,291.72,574.47z M292.62,572.01c-0.43-0.17-1.24,0.3-1.2-0.42c0.04-0.72,0.83-0.8,1.43-0.72
	c0.41,0.05,1.07,0.03,1.09,0.47C293.97,572.43,293.07,571.76,292.62,572.01z M299.91,574.79c-1.22,1.79-2.82,2.46-4.75,2.29
	c-0.6-0.1-1.48,0.65-1.78-0.42c-0.19-0.72,0.64-1.07,0.98-1.59c1.37-2.04,3.42-1.39,5.22-1.64
	C300.49,573.3,300.38,574.07,299.91,574.79z M300.23,571.99c-0.49-0.05-0.81-0.05-1.15-0.1c-0.24-0.03-0.49-0.08-0.53-0.42
	c-0.04-0.37,0.23-0.5,0.47-0.52c0.32-0.08,0.66-0.12,0.98-0.08c0.85,0.17,2.48-0.22,2.42,0.3
	C302.26,572.41,300.9,571.59,300.23,571.99z M308.21,573.88c-0.17,1.04-3.51,3.41-4.73,3.36c-0.58-0.08-1.35,0.3-1.62-0.37
	c-0.36-0.89,0.58-1.29,0.92-1.91c0.04-0.07,0.11-0.15,0.17-0.2c0.98-1.02,4.3-2.01,5-1.57
	C308.23,573.35,308.27,573.58,308.21,573.88z M311.82,577.18h-1.03c-0.49,0-1.11,0.12-1.28-0.6c-0.11-0.5,0.23-0.97,0.58-1.24
	c1.24-0.97,2.31-2.39,4-2.39c1.54,0,2.54-2.01,4.26-1.57c0.58,0.15,1.03,0.1,0.6,0.99C317.79,574.82,314.24,577.23,311.82,577.18z
	 M319.52,577.16c-0.47-0.05-1.35-0.1-0.81-0.82c1.28-1.79,2.8-3.35,4.3-4.95c0.23-0.25,0.83-0.03,1.73-0.03
	c0.02,0,0.53,0.05,1.05,0.1c0.62,0.08,0.92,0.32,0.53,1.14C325.29,574.89,321.61,577.38,319.52,577.16z M332.2,572.41
	c-0.43,0.1-0.86,0.1-1.26,0.22c-0.47,0.15-1.07,0.25-1.03,1.04c0.04,0.65,0.43,0.97,1.01,1.14c0.49,0.15,1.39-0.62,1.39,0.52
	c0,0.72-0.66,1.37-1.28,1.72c-0.79,0.47-1.69,0.1-2.59,0.22c-0.28,0-0.62,0.05-0.96,0c-0.47-0.08-1.16,0.2-1.35-0.47
	c-0.21-0.72,0.56-0.84,0.83-1.27c0.68-1.07,1.8-1.54,2.27-3.06c0.43-1.37,1.99-0.37,3.02-0.37
	C332.82,572.11,332.3,572.38,332.2,572.41z M339.7,575.14c-0.79,1.19-1.56,2.39-3.1,2.06c-0.53-0.1-1.3,0.32-1.56-0.47
	c-0.23-0.7,0.41-1.24,0.79-1.69c0.98-1.17,2.33-0.87,3.55-0.95C339.79,574.07,340.11,574.52,339.7,575.14z M348.11,573.92
	c-0.34,1.07-3.1,3.75-4.13,3.8c-0.32-0.05-0.81-0.17-1.3-0.25c-1.07-0.12-0.94-0.6-0.51-1.54c1.26-2.68,3.57-2.24,5.56-2.71
	C348.17,573.13,348.26,573.45,348.11,573.92z M355.85,573.43c-1.86,1.59-3.01,4.57-5.52,4.08c-0.73,0.2-1.09,0.22-1.28-0.17
	c-0.21-0.42,0.06-0.77,0.3-1.04c1.67-1.86,3.44-3.55,5.9-3.75c0.26-0.03,0.55,0,0.73,0.17
	C356.19,572.91,356.04,573.25,355.85,573.43z M361.96,573.63c-1.69,1.12-2.24,4.2-4.83,3.68c-0.34,0-0.85,0.45-1.03-0.25
	c-0.04-0.2,0.36-0.57,0.58-0.85c1.22-1.49,2.95-2.24,4-3.98c0.36-0.6,1.33-0.75,1.82-0.1C362.82,572.56,362.37,573.35,361.96,573.63
	z M363.87,576.63c-0.26,0.3-0.58,0.42-0.88,0.03c-0.09-0.12-0.13-0.42-0.06-0.52c1.28-1.79,2.59-3.58,3.89-5.34
	c0.17,0.2,0.34,0.4,0.51,0.6c0.15,0.05,0.3,0.1,0.45,0.12c-0.06,0.25-0.06,0.57-0.19,0.75
	C366.37,573.75,365.13,575.22,363.87,576.63z M367.78,577.48c-0.36-0.05-0.77-0.4-0.49-0.72c1.99-2.11,3.27-5.12,5.9-6.44
	c0.28-0.15,0.79-0.12,0.98,0.08c0.3,0.32-0.06,0.67-0.28,0.92c-1.65,1.86-3.32,3.73-4.96,5.59
	C368.59,577.28,368.23,577.53,367.78,577.48z M375.33,575.69c-0.6,0.47-1.56,0.84-2.03,0.17c-0.3-0.42,0.62-1.02,0.98-1.52
	c0.56-0.75,1.26-1.34,1.86-2.01c0.23-0.27,0.47-0.65,0.81-0.45c0.15,0.07,0.13,0.55,0.17,0.82
	C377.27,574.32,376.22,574.99,375.33,575.69z M377.81,565.3c-0.24,0.05-0.09-1.54-0.21-2.39c-0.02-0.2,0-0.4,0.02-0.74
	c0.34-0.72-0.47-2.31,0.58-2.46c0.55-0.08,0.26,1.69,0.43,2.61c0.04,0.2,0.04,0.4,0.04,0.57
	C378.58,563.83,378.81,565.05,377.81,565.3z M381.31,568.51c-0.98,0.07-0.41-1.12-0.53-1.69c-0.06-0.99-0.15-2.16,0.81-2.24
	c1.05-0.08,0.36,1.14,0.54,1.76C382.38,567.34,382.06,568.43,381.31,568.51z M392.2,547.45c-0.3,1.39-1.26,0.62-1.9,0.85
	c-0.56,0.2-1.15,0.3-1.75,0.37c-0.3,0.03-0.75,0.08-0.86-0.37c-0.11-0.45,0.28-0.65,0.58-0.85c0.47-0.35,1.37-0.57,1-1.39
	c-0.41-0.92-1.22-0.82-2.01-0.32c-1.41,0.89-3.16,0.45-4.53,2.31c-0.77,1.04-3.25,0.55-4.94,0.52c-3.14-0.05-6.31-0.35-9.45-0.4
	c-1.6-0.02-1.73-1.34-1.9-2.58c-0.23-1.74,0.92-1.12,1.69-1.27c4.06-0.77,8.17-0.15,12.25-0.52c3.14,0,6.31-0.03,9.45,0
	C391.34,543.8,392.56,545.76,392.2,547.45z"/>
</svg>
