<?xml version="1.0" encoding="utf-8"?>
<!-- Generator: Adobe Illustrator 25.2.1, SVG Export Plug-In . SVG Version: 6.00 Build 0)  -->
<svg version="1.1" id="Calque_1" xmlns="http://www.w3.org/2000/svg" xmlns:xlink="http://www.w3.org/1999/xlink" x="0px" y="0px"
	 viewBox="0 0 100 112" style="enable-background:new 0 0 100 112;" xml:space="preserve">
<style type="text/css">
	.st0{fill-rule:evenodd;clip-rule:evenodd;fill:#A5593C;}
</style>
<path class="st0" d="M45.08,40.43c-0.14,0.02-0.32,0-0.32,0.17c0.62,0.18,1.85,0.17,2.43,0.06c-0.24-0.42-1.01,0.04-1.25-0.3
	c0.19-0.36,0.18-1.11,0.45-1.52c0.14,0.57,0.12,1.02,0.32,1.49c0.05,0,0.05,0.04,0.09,0.05c0.21-0.49-0.17-0.97-0.19-1.4
	c-0.04-0.95-0.43-1.69-0.47-2.8c-0.06,0-0.06-0.06-0.13-0.05C45.58,37.41,45.56,39.04,45.08,40.43z M45.96,39.37
	c-0.1,0.39-0.08,0.89-0.39,1.12c-0.33-0.23-0.06-0.74,0.03-1.13c0.1-0.45,0.12-0.99,0.22-1.44c0.02-0.1,0.1-0.14,0.14-0.22
	c-0.09-0.17,0.04-0.3,0.01-0.54C46.34,37.89,46.16,38.6,45.96,39.37z M57.9,53.37c-3,0.2-6.61-0.21-9.37,0.03
	c0.23,0.11,0.54,0.11,0.86,0.02c1.27,0.1,3.24,0.1,4.86,0.08c1.79-0.02,3.48,0.16,4.82-0.01C58.71,53.33,58.23,53.35,57.9,53.37z
	 M47.67,53.42c0.22,0.05,0.65,0.12,0.72-0.12C48.07,53.28,47.84,53.21,47.67,53.42z M48.27,52.94c0.97-0.08,1.89,0.17,2.79,0.03
	c0.31,0.15,0.93,0.02,1.35,0.03c0.66,0.03,1.44-0.05,2.07,0.01c0.32,0.03,0.75-0.01,1.13-0.02c0.73-0.01,1.5,0.01,2.21,0.06
	c0.53,0.03,1.01,0.18,1.22-0.15c-0.02-0.03-0.4-0.09-0.49-0.19c0.11-1.37-0.09-2.32,0.14-3.51c-0.49-0.01-1.11-0.07-1.44-0.13
	c-0.74,0.29-1.21-3.48-1.21-3.54c-0.1-0.89-1.59-7.28-1.65-7.52c-0.02-0.08-0.32-1.55-0.4-1.99c-0.1-0.51-1.41-6.46-1.57-7.34
	c-0.16-0.89-0.86-4.73-1.07-5.84c-0.13-0.73-0.51-3.25-0.54-3.39c-0.28-0.65-0.26-1.46-0.62-2.18c-0.08,0.28,0.1,0.55,0.11,0.81
	c0.01,0.15-0.1,0.25-0.1,0.4c0,0.09,0.11,0.29,0.12,0.45c0.07,0.72,0.24,1.24,0.36,1.72c0.25,1,0.61,3.04,0.59,3.17
	c0.93,5.9,2.55,12.05,3.5,17.83c0.51,1.91,1.09,4.33,1.4,6.79c0.14,0.04,0.22,0.38,0.17,0.45c-0.25-0.02-0.03-0.5-0.3-0.5
	c-0.13-0.86-0.64-1.58-0.57-2.49c-0.6-1.47-0.79-3.35-1.13-5.03c-0.53-2.62-1.14-5.45-1.64-7.88c-0.11-0.54-0.25-1.09-0.36-1.63
	c-0.24-1.11-2.43-12.32-2.74-14.26c-1.45,0.08-2.9-0.11-4.5-0.02c-0.03,0.21,0.22,0.14,0.17,0.36c-0.91,4.91-3.17,16.81-3.52,17.88
	c-0.45,3.4-1.48,6.45-2.06,9.94c-0.04,0.12-0.15,0.15-0.19,0.27c-0.16,1.73-0.72,3.38-2.4,3.9c-0.1-0.08-0.24-0.12-0.45-0.1
	c-0.24,1.04,0.02,2.43-0.18,3.28c0.4,0.17,0.81,0.12,1.26,0.12c2.48,0.01,5.26-0.03,7.97,0.11c-0.02,0.19,0.07,0.21-0.01,0.36
	c-2.76,0-5.46-0.1-7.92-0.07c-0.22,0-0.44-0.17-0.59,0.08c1.64,0.1,2.79,0.1,4.05,0.1c1.39,0.01,2.86,0.14,4.73,0.08
	c0.13,0,0.31,0.01,0.41-0.12c-0.04-0.11-0.31,0.01-0.36-0.1c-0.41-0.88,0.09-2.64-0.18-3.65c-0.29,0.9,0.02,2.39-0.3,3.01
	c-0.16,0.03-0.17-0.07-0.31-0.05c-0.07-1.18,0.04-2.42-0.01-3.15c0.03-0.13,0.32,0,0.32-0.17c-0.35-0.27-0.97,0.04-1.3-0.21
	c0.28-1.16,0.4-2.44,0.77-3.67c0.78,0,1.7,0.01,2.57,0.07c0.19,1.29,0.8,2.69,0.71,3.76c-0.4,0.01-1.06,0.16-1.3-0.08
	c-0.16,1.33,0.05,2.63-0.24,3.96c0.27,0.25,0.72-0.14,0.94,0.16C47.81,52.96,48.07,52.96,48.27,52.94z M44.78,45.15
	c-0.24,0.98-0.37,2.08-0.66,3c0,0.29,0,0.87-0.38,0.89c-0.11-0.56,0.14-1.14,0.22-1.66c0.13-0.79,0.2-1.52,0.33-2.38
	c0.14-0.1,0.17-0.31,0.28-0.44c1.04-0.02,1.8,0,2.93,0.08c0.04,0.15,0.05,0.33,0.08,0.5C46.65,45.24,45.7,45.04,44.78,45.15z
	 M47.2,52.69c-0.2-1.1,0-2.08-0.05-3.38c0.57-0.06,1.14,0.18,1.58-0.01c-0.28-1.62-0.81-3.24-0.96-4.84
	c-0.98-0.18-2.75-0.21-3.6-0.09c-0.22,1.63-0.45,3.39-0.93,4.84c0.61,0.12,1.15,0.01,1.75,0.13c0,0.94,0.04,2.06-0.08,3.15
	c-2.83,0.05-5.24-0.07-8.1-0.07c-0.03-0.92-0.08-1.84,0.11-2.43c0.63-0.15,1.01-0.45,1.46-0.82c0.45-0.37,0.63-1.06,0.99-1.55
	c0.03-0.65,0.35-1.23,0.5-1.88c0.21-0.93,0.23-1.9,0.52-2.82c0.06-0.18,0.19-0.32,0.24-0.49c0.21-0.7,0.22-1.4,0.37-2.15
	c0.48-2.46,1.06-4.97,1.54-7.48c0.68-3.49,1.32-6.89,1.97-10.13c0.33-1.65,0.68-3.58,1.04-5.33c1.03-0.16,2.29,0.01,3.69-0.04
	c0.6,2.04,1.13,4.9,1.44,7.15c0.3,0.75,0.45,1.88,0.65,2.9c1.05,5.38,2.32,11.08,3.32,16.43c0.47,1.78,0.78,3.65,1.4,5.21
	c0.01,0.18-0.21,0.12-0.23,0.26c0.8-0.14,1.01,0.75,1,1.2c-1.92,0.23-1.88-0.98-2.28-2.35c-0.66-2.28-1-4.62-1.62-7.02
	c-0.4-1.55-0.63-3.14-0.92-4.66c-0.96-5.01-2.1-9.93-3.05-14.62c-0.02-0.15,0.04-0.21,0.05-0.31c-0.38-0.94-0.42-2-0.73-2.99
	c-0.54-0.3-1.14-0.18-1.84-0.14c-0.66,1.92-0.69,4.34-1.43,6.4c0,0.81-0.16,1.51-0.28,2.24c-0.66,3.96-1.53,8.09-2.43,12.14
	c-0.27,1.22-0.53,2.45-0.77,3.63c-0.2,1-0.39,2.07-0.71,3.09c-0.23,0.96-0.59,2.35-1.07,3.22c-0.19,0.34-0.34,0.75-0.56,0.89
	c-0.51,0.32-0.98-0.02-1.58,0.18c-0.08,0.44,0.04,0.97,0.05,1.49c0.3,0.14,0.53,0.08,0.9,0.07c0.88-0.04,1.87,0.14,2.66,0.02
	c1-0.14,2.06,0.3,3.11-0.06c-0.14-0.48-0.14-0.82-0.1-1.31c-0.42-0.35-1.09-0.13-1.7-0.36c-0.14-0.37-0.09-0.69-0.29-1.04
	c0.4-1.76,0.79-3.55,1.13-5.37c1.33-0.17,3.33-0.03,5.09,0c0.38,1.49,0.63,3.13,1.05,4.62c0.22,0.78,0.47,1.46,0.04,2.03
	c-0.44,0.05-0.97-0.04-1.26,0.06c-0.16,0.39-0.18,1.12-0.04,1.66c3.4,0.17,5.93,0.05,9.09,0.19c0.17-0.37-0.12-0.98,0.25-1.07
	c-0.25-0.53-0.54-1.16-0.64-1.59c0.38-0.15,0.87-0.04,1.4-0.1c0.08,0.88-0.03,1.56-0.06,2.3c-0.01,0.33,0.09,0.8-0.07,1.08
	c-2.85,0.21-5.56-0.17-7.97,0.07c-0.19-0.18-0.46,0-0.67-0.15c-0.13,0-0.19,0.08-0.23,0.17C48.66,52.64,47.94,52.73,47.2,52.69z
	 M50.53,42.1c-0.02,0.08,0.03,0.09,0.09,0.09c-0.1,0.18,0.07,0.5-0.11,0.67c-0.25-0.03-0.27-0.02-0.54-0.01
	c0.03-0.16-0.16-0.11-0.13-0.27c0.04,0.01,0.04,0.05,0.09,0.05C49.55,42.12,50.03,42.07,50.53,42.1z M49.35,40.58
	c0.01-0.2,0.04-0.18,0.01-0.36c0.21-0.07,0.51,0.04,0.72,0.11c0,0.22,0.12,0.32,0.17,0.5c-0.19,0.12-0.44,0.19-0.73,0.21
	c0.02-0.09-0.01-0.14-0.09-0.14c-0.01-0.16,0.01-0.29,0.06-0.4C49.44,40.53,49.44,40.6,49.35,40.58z M47.21,22.34
	c0.06,0,0.12,0,0.18,0c0.08,0.11,0.16,0.23,0.12,0.45c-0.11-0.02-0.1,0.08-0.23,0.04C47.12,22.64,47.36,22.53,47.21,22.34z
	 M47.55,23.16c0.02,0.17,0.15,0.26,0.08,0.41c-0.15,0.13-0.36,0.07-0.59-0.02c-0.04-0.12-0.08-0.39,0.01-0.5
	C47.26,23.05,47.32,23.19,47.55,23.16z M49.11,30.76c0.55,1.18,0.39,2.42,0.86,3.53c-0.09,0.31,0.03,0.44-0.02,0.68
	c-0.29-0.08-0.6-0.05-0.8-0.29c0.04-0.19-0.11-0.32,0.01-0.45c-0.59-1.94-0.78-3.79-1.25-5.62c0.25-0.12,0.47-0.08,0.77-0.03
	c0.33,0.58,0.09,1.08,0.46,1.5C48.97,30.3,49.21,30.62,49.11,30.76z M51.59,42.8c-0.09,0.08-0.3,0.03-0.45,0.03
	c-0.2-0.2-0.14-0.57-0.34-0.68c0.13-0.06,0.26,0.12,0.41-0.08c0.13,0.03,0.19,0.11,0.31,0.14c0,0.11-0.08,0.13-0.05,0.27
	C51.64,42.3,51.55,42.61,51.59,42.8z M51.85,46.73c0.02-0.18-0.07-0.25-0.03-0.45c0.26-0.12,0.3-0.07,0.54-0.03
	c0.08,0.05-0.03,0.29,0.17,0.23c-0.02,0.26-0.22,0.33-0.42,0.39C52.25,46.73,51.92,46.88,51.85,46.73z M51.58,44.92
	c-0.18-0.09-0.13-0.4-0.26-0.55c0.13-0.24,0.4-0.09,0.64-0.16c0.03,0.18,0.11,0.31,0.08,0.54C51.9,44.82,51.81,44.94,51.58,44.92z
	 M51.19,40.95c-0.16,0.02-0.29,0.06-0.5,0.03c0.09-0.33-0.16-0.35-0.16-0.59c0.35-0.1,0.55-0.05,0.76,0.11
	C51.29,40.68,51.14,40.71,51.19,40.95z M50.46,39.71c0.05-0.18-0.13-0.14-0.08-0.32c0.04,0,0.04-0.05,0.05-0.09
	c0.31-0.17,0.44,0.04,0.63,0.2C50.92,39.65,50.77,39.77,50.46,39.71z M50.57,38.72c-0.21-0.08-0.36-0.13-0.49-0.19
	c-0.07-0.17,0.19-0.23,0.1-0.27C50.43,38.07,51.03,38.47,50.57,38.72z M50.55,37.69c-0.09,0-0.27,0.09-0.5,0.08
	c-0.08-0.1-0.07-0.29-0.26-0.28c0.04-0.39,0.56-0.23,0.81-0.11C50.58,37.45,50.43,37.61,50.55,37.69z M50.26,36.78
	c-0.13-0.07-0.26-0.04-0.27,0.13c-0.21-0.17-0.48-0.28-0.43-0.69c0.11-0.01,0.21-0.02,0.19-0.18c0.15,0.08,0.24,0,0.45,0.06
	C50.3,36.31,50.44,36.53,50.26,36.78z M49.52,35.73c-0.07-0.18-0.26-0.44-0.16-0.64c0.31,0.04,0.43,0,0.67,0.06
	c0.07,0.17,0.06,0.41,0.12,0.59C49.86,35.72,49.76,35.79,49.52,35.73z M47.96,28.39c-0.41-0.45-0.14-1.07,0.51-0.71
	c0.11,0.13,0.15,0.33,0.12,0.59C48.38,28.41,48.29,28.39,47.96,28.39z M48.39,27.37c-0.37-0.02-0.57,0.04-0.81-0.07
	c0.02-0.19-0.11-0.25-0.08-0.45c0.34-0.17,0.68,0.01,0.94,0.16C48.41,27.11,48.37,27.21,48.39,27.37z M46.71,27.73
	c0.48-0.31,0.82,0.07,0.79,0.61c-0.29,0-0.57,0.1-0.72-0.11C46.9,28.04,46.79,27.87,46.71,27.73z M47.31,27.38
	c-0.24,0-0.45-0.01-0.63-0.06c-0.06-0.18-0.21-0.36-0.12-0.54c0.23-0.03,0.37,0.03,0.67,0.02C47.21,27.04,47.36,27.12,47.31,27.38z
	 M48.02,25.78c-0.3-0.01-0.47,0.04-0.72-0.06C47.13,25.31,48.09,25.4,48.02,25.78z M48.18,26.5c-0.23,0.13-0.53-0.01-0.76-0.11
	c-0.11-0.56,0.81-0.29,0.81-0.02C48.18,26.38,48.19,26.45,48.18,26.5z M47.19,25.04c0.03-0.04,0.07-0.12,0-0.14
	c0.11-0.2,0.41-0.19,0.68-0.21c0.08,0.11,0.15,0.24,0.17,0.41C47.77,25.21,47.42,25.18,47.19,25.04z M47.74,24.42
	c-0.23-0.01-0.51,0.01-0.67-0.06c0.04-0.18-0.04-0.26-0.03-0.41c0.28-0.17,0.65,0.05,0.85,0.2C47.84,24.25,47.79,24.33,47.74,24.42z
	 M46.99,25.57c-0.02,0.23-0.3,0.17-0.54,0.17C46.48,25.55,46.84,25.5,46.99,25.57z M47.11,26.16c-0.04,0.16,0.07,0.24-0.01,0.31
	c-0.29,0.09-0.76,0-0.66-0.42C46.65,25.94,46.97,26.07,47.11,26.16z M46.99,36.34c0.34,1.76,0.78,3.55,1.08,5.34
	c-1.26,0.11-3.06,0.03-4.32-0.07c-0.05-0.21,0.1-0.37,0.15-0.58c0.67-3,1.22-6.42,1.87-9.59c0-0.05,0-0.09,0-0.14
	c0.03,0,0.06,0,0.09,0c0.28,0.34,0.24,0.81,0.33,1.22C46.42,33.7,46.73,35.01,46.99,36.34z M47.32,30.31
	c-0.13-0.19-0.27-0.58-0.16-0.86c-0.13-0.24-0.39-0.54-0.25-0.91c0.29-0.04,0.46-0.06,0.67,0.06c0.44,2.05,0.88,4.1,1.24,6.11
	c-0.17,0.12-0.27,0.04-0.5,0.12C47.84,33.59,47.57,31.72,47.32,30.31z M48.87,34.94c0.02,0.28,0.23,0.39,0.21,0.73
	c-0.14,0.11-0.4,0.24-0.63,0.12c-0.1-0.24-0.11-0.57-0.11-0.9C48.56,34.85,48.66,34.96,48.87,34.94z M48.79,36.11
	c0.15,0.06,0.37,0.06,0.45,0.19c0,0.22-0.05,0.38-0.15,0.49c-0.09,0-0.18-0.01-0.27-0.01c-0.15-0.04,0.01-0.36-0.17-0.37
	C48.65,36.27,48.8,36.27,48.79,36.11z M49.44,37.3c-0.03,0.14,0.08,0.16,0.04,0.32c-0.2,0.04-0.22,0.23-0.45,0.12
	C48.75,37.4,49,36.99,49.44,37.3z M49.19,38.24c0.1,0.14,0.21,0.05,0.4,0.06c0.02,0.09,0.13,0.09,0.08,0.23
	c-0.21,0.09-0.31,0.03-0.59,0.07C49.18,38.46,49.14,38.32,49.19,38.24z M49.35,39.19c0.27,0.06,0.44-0.13,0.54,0.19
	c-0.06,0.19-0.36,0.35-0.59,0.21C49.24,39.53,49.3,39.29,49.35,39.19z M50.39,44.12c0.2,0.05,0.33,0.12,0.54,0.06
	C51.45,45.01,49.99,45.09,50.39,44.12z M50.92,46.16c0.47-0.05,0.54,0.27,0.53,0.55c-0.1,0.18-0.26-0.15-0.36,0.13
	c-0.25-0.05-0.29-0.31-0.35-0.55C50.84,46.4,50.85,46.22,50.92,46.16z M51.73,48.12c-0.09,0.14,0.12,0.31,0.12,0.5
	c-0.15-0.01-0.13,0.18-0.19,0.27c-0.2-0.07-0.31-0.23-0.49-0.33C51.04,48.2,51.3,47.97,51.73,48.12z M51.68,49.88
	c0.25-0.1,0.68-0.04,0.58,0.33c-0.23,0.2-0.37,0.11-0.59,0.07C51.75,50.14,51.7,50.04,51.68,49.88z M52.3,48.63
	c-0.13-0.06,0.07-0.05,0.09,0c0-0.03,0-0.06,0-0.09c-0.01-0.06-0.09-0.05-0.09,0c-0.1-0.49,0.5-0.25,0.73-0.21
	c-0.06,0.25-0.17,0.24-0.06,0.49c-0.25-0.03,0.02-0.09-0.09-0.18c-0.12-0.02-0.15,0.06-0.14,0.18C52.49,48.82,52.5,48.58,52.3,48.63
	z M53.38,50.24c-0.08,0.05-0.18,0.08-0.23,0.17c-0.24-0.07-0.41-0.19-0.53-0.37C52.96,49.82,53.21,49.98,53.38,50.24z"/>
<path class="st0" d="M63.39,59.36c-0.01-0.8-0.07-1.67-0.05-2.34c0.01-0.31,0.26-0.56,0-0.81c-1.01,0.05-2.77,0.07-4.1,0.09
	c-4.99,0.09-10.45,0-14.69,0.19c0.18,5.27,0.01,10.88,0.24,15.5c0.33-0.08,0.19-0.54,0.19-0.81c-0.04-4.39-0.11-9.09,0-12.83
	c-0.13-0.32-0.13-1.13-0.05-1.62c5.6-0.07,11.45-0.21,16.22-0.14c0.52,0.01,1.41-0.28,1.96,0c0.11,1.45-0.33,2.5-0.67,3.53
	c-0.2,0.62-0.48,1.24-0.67,1.86c-0.75,2.52-1.63,4.91-2.48,7.35c-0.43,1.23-0.72,2.51-1.15,3.67c-0.87,2.4-1.58,4.95-2.38,7.44
	c-0.59,1.84-1.2,3.71-1.81,5.63c-0.4,1.25-1.12,3.57-0.14,4.63c0.52,0.06,0.88,0.08,1.43,0c-0.01-0.46,0.37-0.9,0.57-1.34
	c0.12-0.27,0.18-0.61,0.29-0.91c0.1-0.29,0.29-0.53,0.38-0.81c0.22-0.71,0.36-1.53,0.52-2.29c0.16-0.74,0.31-1.49,0.48-2.24
	c0.34-1.55,0.42-3.16,0.67-4.72c1.26-0.03,2.6-0.18,3.72,0.05c0.1,4.41,0.09,7.03,0.09,11.59c0,1.43,0.19,2.92-0.19,4.1
	c-5.7,0.08-11.24,0.14-16.36,0.14c-0.73,0-1.47-0.06-2.15,0.1c0.54,0.44,1.32,0.14,2,0.14c4.14,0,7.9-0.1,11.64-0.1
	c2.22,0,4.7-0.12,6.1,0.1c0.23-1.25,0.1-2.61,0.1-3.96c0-3.74-0.14-7.61-0.14-11.26c0-0.31,0.11-0.83-0.14-0.91
	c-0.26,0.55-0.03,1.36-0.05,2.1c-0.06,3.14,0.08,6.9,0.14,9.59c-0.16,1.43,0.04,2.89-0.14,4.05c-0.63-0.27-0.46-1.01-0.48-1.53
	c-0.05-2.01-0.16-3.81-0.14-5.68c0.03-2.71-0.12-5.91,0.05-8.78c-1.37-0.16-3.16,0.07-4.34-0.05c-0.34,3.7-0.92,7.49-2.05,10.4
	c-0.1,0.25-0.13,0.51-0.24,0.72c-0.05,0.09-0.17,0.17-0.24,0.29c-0.13,0.24-0.15,0.9-0.67,0.72c-0.7-1.13-0.21-2.19,0.15-3.39
	c0.19-0.64,0.29-1.33,0.48-2c0.64-2.37,1.52-4.86,2.2-7.06c0.12-0.38,0.25-0.76,0.38-1.14c1.32-3.86,2.8-7.55,4.1-11.4
	c0.42-1.23,0.79-2.63,1.29-3.91c0.07-0.18,0.21-0.43,0.24-0.57C63.55,60.39,63.39,59.86,63.39,59.36z M63.1,61.07
	c-0.09,0.39-0.35,0.75-0.48,1.15c-0.58,1.87-1.19,4.02-1.91,5.96c-0.29,0.78-0.67,1.52-0.81,2.34c-0.3,0.37-0.42,0.79-0.62,1.24
	c-0.6,1.34-1.02,3.07-1.53,4.48c-0.47,1.31-0.88,2.67-1.34,4.1c-0.63,1.97-1.27,4.1-1.86,6.34c-0.19,0.74-0.5,1.53-0.52,2.15
	c-0.02,0.53,0.38,1.14,0.1,1.62c-0.39-0.02-0.37-0.45-0.57-0.67c-0.03-1.39,0.3-2.66,0.67-3.86c2.09-6.89,4.68-14.71,7.15-21.85
	c0.24-0.7,0.5-1.42,0.62-2.1c0.36-0.94,0.68-1.93,0.95-2.72c-0.01-0.08,0.04-0.08,0.05-0.14c0.06-0.01,0.09,0.01,0.1,0.05
	C63.16,59.81,63.21,60.62,63.1,61.07z M52.37,64.51c-0.25,1.35-0.88,2.69-1.24,4.1c-0.28,1.08-0.67,2.15-0.95,3.24
	c-0.22,0.85-0.35,1.74-0.62,2.53c-0.06,0.18-0.23,0.33-0.29,0.53c-0.11,0.38-0.12,0.79-0.24,1.19c-0.37,1.21-0.74,2.42-1.1,3.62
	c-1.46,4.92-2.65,9.76-4.2,14.31c0.49,0.03,0.53-0.71,0.67-1.14c0.16-0.52,0.31-1.02,0.48-1.38c2.54-8.73,5.01-18.03,7.54-26.33
	c0.14-0.45,0.22-1.01,0.38-1.53c0.33-1.06,0.75-2.1,0.14-2.91c-0.17,0.09-0.21-0.02-0.38-0.05c-0.64,0.92-1.07,2.15-1.48,3.39
	c-0.18,0.54-0.54,1.04-0.76,1.57c-0.74,1.72-1.21,3.42-1.53,5.25c-0.19,0.07-0.08,0.46-0.29,0.53c-1.09,0.16-2.36,0-3.24,0.19
	c0.71,0.36,1.88,0.12,2.81,0.1c0.47-0.01,0.91,0.16,1.29-0.1c-0.04-0.18-0.43-0.02-0.48-0.19c0-0.21,0.07-0.38,0.19-0.57
	c0.23-2.2,1.13-4.11,1.96-6.06c0.44-1.03,0.9-2.22,1.43-3.29c0.42-0.86,0.38-0.11,0.48,0.24c-0.4,0.92-0.89,1.85-1.24,2.86
	c-0.09,0.25-0.15,0.57-0.05,0.81c-0.06,0-0.07-0.06-0.14-0.05c-0.72,2.23-1.32,4.6-2.05,6.82c-1.33,0.03-2.7,0.08-3.96-0.05
	c-0.3,0.27-0.89-0.17-1.05,0.19c0.04,0.26,0.39,0.14,0.52,0.14c1.55,0.07,2.95-0.01,4.24,0c0.14,0.07,0.06,0.39,0.29,0.24
	c0.2-0.09,0.18-0.39,0.19-0.67c0.53-1.33,0.77-2.95,1.38-4.2c0.12-0.93,0.58-1.85,0.86-2.86c0.25-0.9,0.42-1.86,0.95-2.48
	c0.02,0.52-0.36,0.92-0.48,1.34C52.36,64.05,52.41,64.3,52.37,64.51z M62.39,94.65c-2.97,0.02-6.19-0.02-9.35,0.14
	c-3.66,0.19-6.75-0.13-9.54,0.24c0.29,0.25,0.75,0.16,1.1,0.14c2.84-0.13,5.78-0.19,8.63-0.19c2.49,0,5.07-0.2,7.34-0.09
	c0.55,0.03,1.28,0.13,1.81,0.05c0.04-0.01,0.36-0.03,0.29-0.19C62.66,94.65,62.45,94.65,62.39,94.65z M52.18,88.83
	c0.04-0.17,0.2-0.32,0.24-0.48c0.06-0.23,0-0.43,0.05-0.62c0.22-0.8,0.59-1.65,0.81-2.53c0.24-0.92,0.44-1.83,0.81-2.53
	c2.22-8,4.9-15.58,7.35-23.28c0.15-0.49,0.48-0.98,0.43-1.53c-0.59-0.43-1.62-0.2-2.53-0.19c-4.34,0.04-8.91,0.09-13.5,0.19
	c-0.07,4.12,0,8.59,0.09,12.88c0.63,0.21,1.21,0.04,1.91,0.05c0.15-1.35,0.48-2.79,0.81-3.72c0.26-0.74,0.54-1.57,0.81-2.38
	c0.36-1.09,0.76-2.17,1.1-3.24c0.38-0.51,0.65-1.14,1.1-1.57c0.77,0.09,1.46,0.02,2.29,0.05c0.63,0.86,0.23,2.12-0.09,3.29
	c-0.56,2.03-1.18,4.18-1.72,6.06c-0.79,2.75-1.4,5.51-2.29,8.06c-1.86,5.35-3.26,10.75-4.72,15.93c0.5,0.6,1.31,0.46,2,0.43
	c3.22-0.12,7.42-0.14,10.78-0.14c1.19,0,2.36,0.03,3.34-0.24c-0.08-4.76-0.31-9.7-0.43-14.31c-0.6,0.05-1.3,0-1.67,0.28
	c-0.48,3.56-0.89,7.26-2.05,10.3c-0.36,0.35-0.58,0.98-1,1.43c-0.47,0.5-0.88,0.62-1.72,0.62c-0.66,0-1.04-0.07-1.53-0.33
	c-0.59-0.52-0.81-1.29-0.72-1.96C52.15,89.19,52.15,88.96,52.18,88.83z M47.93,64.22c-0.01,0.05-0.13,0.09-0.14,0.14
	c-0.03,0.18,0.08,0.69-0.33,0.67c0.05-0.71,0.04-1.39,0.14-1.96c0.2-0.13,0.48-0.12,0.72-0.1C48.18,63.4,48.05,63.81,47.93,64.22z
	 M48.36,62.74c-0.19,0.05-0.42,0.06-0.67,0.05c-0.25-0.27-0.05-0.47-0.14-0.86c0.29-0.18,0.71-0.21,1.19-0.19
	C48.77,62.05,48.5,62.35,48.36,62.74z M47.55,61.55c-0.09,0.11,0.05-0.23,0-0.38c0.63-0.01,1.03-0.07,1.53-0.05
	C49.01,61.68,47.92,61.45,47.55,61.55z M47.55,60.74c0.24-0.33,1.39-0.45,1.77-0.05C48.93,60.87,47.85,61.07,47.55,60.74z
	 M47.6,60.17c-0.04-0.27,0.08-0.37,0.19-0.48c0.68,0.13,1.27-0.11,1.96,0C49.55,60.52,48.31,60.06,47.6,60.17z M59.43,87.12
	c0.39,0.28-0.07,0.91-0.14,1.05C59.15,87.96,59.44,87.49,59.43,87.12z M59.38,88.45c0.2,0.11,0.07,0.26,0.1,0.53
	c-0.15,0.01-0.2-0.09-0.38-0.05c-0.01-0.09-0.03-0.16-0.1-0.19C59.07,88.57,59.29,88.46,59.38,88.45z M59.29,90.12
	c0.12,0.01,0.09,0.16,0.09,0.29c-0.06-0.02-0.29,0.01-0.14,0.05c-0.14,0.08-0.25-0.03-0.52,0C58.69,90.06,59.19,90.29,59.29,90.12z
	 M58.52,90.22c0.11-0.01,0.05,0.14,0.14,0.14c-0.03,0.1-0.07,0.1-0.14,0.05c-0.05,0.03-0.05,0.11-0.14,0.1
	C58.43,90.41,58.48,90.31,58.52,90.22z M59.24,91.31c0.12,0.04,0.17,0.15,0.14,0.33c-0.56-0.08-0.73,0.01-1.19-0.05
	C58.33,91.2,58.92,91.41,59.24,91.31z M56.76,59.59c0.24-0.02,0.42-0.2,0.67,0c0-0.05,0-0.09,0-0.14c0.61,0.16,1.53,0.08,2.1,0.14
	c0.05,0.33-0.3,0.27-0.43,0.29c-0.42,0.04-1.14-0.16-1.72-0.14c-0.32,0.01-0.72,0.08-1.19-0.05C56.22,59.39,56.57,59.61,56.76,59.59
	z M56.42,60.07c0.01-0.04-0.02-0.04-0.05-0.05c0.88-0.01,2.23,0.12,2.96,0.09c0.15,0.19-0.23,0.19-0.33,0.29
	c-0.81-0.34-2.26,0.21-3.05-0.14C55.97,59.95,56.26,60.06,56.42,60.07z M59.19,60.69c-0.45,0.3-1.07,0.12-1.62,0.14
	c-0.52,0.03-1.22,0.39-1.53-0.1C57.08,60.56,58.13,60.54,59.19,60.69z M58.24,61.22c0.23,0,0.68-0.21,0.81,0.14
	c-1.15,0-2.24,0.06-3.1,0C56.57,61.09,57.51,61.21,58.24,61.22z M58.95,61.93c-0.92,0.07-2.09-0.06-2.96-0.05
	c0.22-0.15,0.73-0.18,0.95-0.05c0.36-0.09,0.89-0.21,1.33-0.19C58.5,61.66,58.91,61.63,58.95,61.93z M55.99,62.17
	c0.82,0.15,1.64-0.05,2.62,0.19c-0.25,0.34-0.88,0.14-1.38,0.14c-0.52,0.01-1.03,0.09-1.38,0.05
	C55.66,62.37,55.96,62.28,55.99,62.17z M56.52,62.93c0.68,0,1.46-0.16,1.91,0c-0.49,0.38-2.05,0.05-2.72,0.14
	C55.78,62.7,56.22,62.93,56.52,62.93z M58.33,63.46c-0.27,0.48-1.15,0.09-1.62,0.38c-0.28-0.29-0.97,0.09-1.19-0.29
	C56.4,63.37,57.29,63.33,58.33,63.46z M55.37,64.08c0.52-0.11,1.09-0.02,1.58,0c0.35,0.02,0.87-0.28,1.14,0.14
	c-0.23,0.35-0.77,0.1-1.24,0.1c-0.5-0.01-1.06,0.17-1.57,0.05C55.27,64.22,55.39,64.22,55.37,64.08z M56.66,64.75
	c0.6-0.03,1.33-0.22,1.29,0.33c-0.25,0.06-0.53-0.08-0.86-0.1c-0.65-0.03-1.5,0.23-2-0.1C55.33,64.62,56.07,64.77,56.66,64.75z
	 M54.94,65.41c0.23-0.04,0.31-0.12,0.53,0c0.77-0.06,1.75-0.3,2.24,0.19c-0.33,0.35-0.97,0.12-1.48,0.14
	c-0.5,0.03-0.99,0.2-1.38,0.1C54.9,65.72,54.95,65.59,54.94,65.41z M55.56,66.18c0.66,0.01,1.63-0.2,1.91-0.05
	c0.26,0.52-0.93,0.62-1.34,0.48c-0.52,0.12-0.79,0.07-1.43,0.14C54.54,66.08,55.02,66.17,55.56,66.18z M52.37,74.52
	c0.45-1.54,0.75-3.31,1.38-4.63c0.11-0.76,0.3-1.45,0.62-2c0.82-0.05,1.9,0.16,2.39-0.24c-0.64-0.22-1.62,0.03-2.39,0
	c0.03-0.19,0.1-0.35,0.14-0.52c0.97-0.27,1.58-0.16,2.72-0.24c-0.89,3.27-2.14,6.26-3.05,9.64c-0.61,0.32-1.56,0.01-2.39,0.09
	C51.79,75.88,52.15,75.27,52.37,74.52z M51.75,76.96c0.65-0.05,1.44-0.04,2.24,0.05c0.08,1.11-1.56,0.65-2.62,0.72
	C51.44,77.44,51.68,77.07,51.75,76.96z M53.61,78.34c-0.36,0.58-1.78,0.3-2.48,0.38C51.07,77.95,52.94,78.38,53.61,78.34z
	 M51.7,79.25c0.25-0.04,1.07-0.06,1.58,0.05c0.08,0.08-0.04,0.2,0,0.38c-1.08-0.13-1.48,0.08-2.43,0
	C50.8,79.2,51.63,79.34,51.7,79.25z M50.8,80.25c0.93,0,1.43-0.05,2.24-0.05c0.09,0.36-0.37,0.41-0.52,0.43
	c-0.69,0.1-1.17-0.06-1.91-0.05C50.62,80.42,50.74,80.37,50.8,80.25z M52.8,81.39c-0.05,0.13-0.11,0.25-0.14,0.38
	c-0.67-0.09-1.72,0.03-2.39-0.19C50.67,81.06,52.23,81.18,52.8,81.39z M48.22,89.88c0.03,0,0.14,0.1,0.14,0.1
	c0.1-0.01,0.09-0.14,0.14-0.14c0.08-0.01,0.12,0.1,0.19,0.09c0.11,0,0.25-0.13,0.38-0.14c0.42-0.05,1.03,0.04,1.53-0.05
	c0.16,0.19-0.06,0.33-0.1,0.48c-0.96,0.08-1.83,0.02-2.77,0.14C47.77,90.22,47.9,89.9,48.22,89.88z M50.7,91.74
	c-0.88,0.05-2.4,0.07-3.39,0.14c0.2-0.56,0.97-0.36,1.43-0.48c0.17-0.04,0.45,0.02,0.72,0c0.18-0.01,0.42-0.1,0.52-0.1
	c0.19,0.01,0.39,0.1,0.62-0.05C50.62,91.5,50.79,91.52,50.7,91.74z M50.75,88.55c-0.9,0.17-1.51,0.13-2.34,0.1
	c-0.08-0.11-0.11-0.27-0.14-0.43c0.92-0.41,1.65,0.09,2.53-0.24C50.91,88.12,50.64,88.4,50.75,88.55z M48.84,86.93
	c-0.15-0.81,0.89-0.54,1.43-0.76c0.31,0.27,0.63-0.01,1.05,0.1C51.12,87.2,49.73,86.66,48.84,86.93z M49.32,85.02
	c0.07-0.11,0.03-0.32,0.14-0.38c0.28-0.05,0.37,0.08,0.48,0.19c0.26-0.34,1.48-0.19,1.81-0.14C51.13,85.26,50.14,84.94,49.32,85.02z
	 M49.7,83.54c0.16-1.04,1.81-0.61,2.62-0.71c0.04,0.3-0.15,0.36-0.19,0.57C51.53,83.22,50.54,83.68,49.7,83.54z"/>
</svg>
